<svg width="22" height="23" viewBox="0 0 22 23" fill="none" xmlns="http://www.w3.org/2000/svg">
<path fill-rule="evenodd" clip-rule="evenodd" d="M21.6349 2.68148C22.1187 2.20179 22.122 1.42074 21.6423 0.93695C21.1626 0.453161 20.3816 0.449836 19.8978 0.929524L11.138 9.61503L2.45251 0.855262C1.97282 0.371473 1.19177 0.368149 0.707983 0.847836C0.224194 1.32752 0.220869 2.10858 0.700556 2.59236L10.2546 12.2281L11.1232 13.1041L11.9991 12.2355L21.6349 2.68148ZM21.2919 12.5444C21.7757 12.0647 21.7791 11.2837 21.2994 10.7999C20.8197 10.3161 20.0386 10.3128 19.5548 10.7924L10.7951 19.478L2.10956 10.7182C1.62987 10.2344 0.848817 10.2311 0.365028 10.7108C-0.118761 11.1904 -0.122086 11.9715 0.357602 12.4553L9.91166 22.091L10.7802 22.967L11.6562 22.0985L21.2919 12.5444Z" fill="#F5F5F5"/>
</svg>
