<svg width="27" height="29" viewBox="0 0 27 29" fill="none" xmlns="http://www.w3.org/2000/svg">
<path fill-rule="evenodd" clip-rule="evenodd" d="M26.5521 3.17949C27.1458 2.59078 27.1499 1.63222 26.5612 1.03848C25.9725 0.444735 25.0139 0.440655 24.4202 1.02936L13.6695 11.6889L3.01005 0.938223C2.42134 0.344482 1.46278 0.340402 0.86904 0.929109C0.275299 1.51782 0.271219 2.47638 0.859926 3.07012L12.5854 14.8958L13.6513 15.9709L14.7264 14.9049L26.5521 3.17949ZM26.131 15.2844C26.7248 14.6957 26.7288 13.7371 26.1401 13.1434C25.5514 12.5496 24.5929 12.5455 23.9991 13.1343L13.2485 23.7937L2.589 13.0431C2.00029 12.4494 1.04173 12.4453 0.447989 13.034C-0.145752 13.6227 -0.149832 14.5813 0.438875 15.175L12.1643 27.0007L13.2303 28.0758L14.3053 27.0098L26.131 15.2844Z" fill="#F5F5F5"/>
</svg>
