<svg width="317" height="179" viewBox="0 0 317 179" fill="none" xmlns="http://www.w3.org/2000/svg">
<path d="M220.848 0.646971C233.129 -2.6479 256.605 101.99 316.198 178.961H0C45.8055 133.389 66.605 53.7808 82.4967 43.8817C98.3884 33.9827 114.981 129.263 136.248 133.389C167.564 139.466 192.103 8.35938 220.848 0.646971Z" fill="#1B5865"/>
<path d="M211.734 78.8611C198.646 74.1169 206.826 64.3715 189.298 64.3715C191.869 52.9201 204.255 27.4467 214.538 14.3593C225.058 0.971784 234.947 37.4521 242.583 53.3875C247.958 64.6053 261.699 91.294 250.294 92.4158C236.039 93.818 235.104 70.6815 226.457 67.176C217.81 63.6704 230.43 85.6384 211.734 78.8611Z" fill="#F5F5F5"/>
</svg>
