<svg width="357" height="451" viewBox="0 0 357 451" fill="none" xmlns="http://www.w3.org/2000/svg">
<rect x="144.052" y="15.2222" width="11.1381" height="14.4795" fill="#F0E9D6"/>
<path d="M149.621 0L155.19 15.222H144.052L149.621 0Z" fill="#F0E9D6"/>
<rect x="146.28" y="18.1919" width="1.11381" height="10.7668" rx="0.556903" fill="#195959"/>
<rect x="149.251" y="18.1919" width="1.11381" height="10.7668" rx="0.556903" fill="#195959"/>
<rect x="152.22" y="18.1919" width="1.11381" height="10.7668" rx="0.556903" fill="#195959"/>
<rect x="112.124" y="72.0259" width="75.7388" height="51.6063" fill="#F0E9D6"/>
<rect x="139.598" y="73.1396" width="1.11381" height="2.59888" rx="0.556903" fill="#646868"/>
<rect x="148.137" y="73.1396" width="1.11381" height="2.59888" rx="0.556903" fill="#646868"/>
<rect x="156.676" y="73.1396" width="1.11381" height="2.59888" rx="0.556903" fill="#646868"/>
<rect x="142.567" y="73.1396" width="1.11381" height="2.59888" rx="0.556903" fill="#646868"/>
<rect x="151.106" y="73.1396" width="1.11381" height="2.59888" rx="0.556903" fill="#646868"/>
<rect x="159.646" y="73.1396" width="1.11381" height="2.59888" rx="0.556903" fill="#646868"/>
<rect x="145.538" y="73.1396" width="1.11381" height="2.59888" rx="0.556903" fill="#646868"/>
<rect x="154.077" y="73.1396" width="1.11381" height="2.59888" rx="0.556903" fill="#646868"/>
<rect x="162.616" y="73.1396" width="1.11381" height="2.59888" rx="0.556903" fill="#646868"/>
<rect x="113.237" y="80.9365" width="24.6276" height="13.3657" fill="#F0E9D6"/>
<rect x="114.805" y="82.2542" width="1.72287" height="4.79063" fill="#F0E9D6" stroke="#195959" stroke-width="0.335402"/>
<rect x="114.805" y="88.1941" width="1.72287" height="4.79063" fill="#F0E9D6" stroke="#195959" stroke-width="0.335402"/>
<rect x="117.578" y="82.2542" width="1.72287" height="4.79063" fill="#F0E9D6" stroke="#195959" stroke-width="0.335402"/>
<rect x="117.578" y="88.1941" width="1.72287" height="4.79063" fill="#F0E9D6" stroke="#195959" stroke-width="0.335402"/>
<rect x="120.353" y="82.2542" width="1.72287" height="4.79063" fill="#F0E9D6" stroke="#195959" stroke-width="0.335402"/>
<rect x="120.353" y="88.1941" width="1.72287" height="4.79063" fill="#F0E9D6" stroke="#195959" stroke-width="0.335402"/>
<rect x="129.372" y="82.2542" width="1.72287" height="4.79063" fill="#F0E9D6" stroke="#195959" stroke-width="0.335402"/>
<rect x="129.372" y="88.1941" width="1.72287" height="4.79063" fill="#F0E9D6" stroke="#195959" stroke-width="0.335402"/>
<rect x="132.148" y="82.2542" width="1.72287" height="4.79063" fill="#F0E9D6" stroke="#195959" stroke-width="0.335402"/>
<rect x="132.148" y="88.1941" width="1.72287" height="4.79063" fill="#F0E9D6" stroke="#195959" stroke-width="0.335402"/>
<rect x="134.922" y="82.2542" width="1.72287" height="4.79063" fill="#F0E9D6" stroke="#195959" stroke-width="0.335402"/>
<rect x="134.922" y="88.1941" width="1.72287" height="4.79063" fill="#F0E9D6" stroke="#195959" stroke-width="0.335402"/>
<path d="M130.592 87.6188C130.592 90.5311 128.392 92.8525 125.724 92.8525C123.057 92.8525 120.857 90.5311 120.857 87.6188C120.857 84.7065 123.057 82.3852 125.724 82.3852C128.392 82.3852 130.592 84.7065 130.592 87.6188Z" fill="#F0E9D6" stroke="#195959" stroke-width="0.670804"/>
<ellipse cx="125.724" cy="87.6186" rx="2.77494" ry="2.97015" fill="#646868"/>
<rect x="138" y="81" width="24.6276" height="13.3657" fill="#F0E9D6"/>
<rect x="139.568" y="82.3177" width="1.72287" height="4.79063" fill="#F0E9D6" stroke="#195959" stroke-width="0.335402"/>
<rect x="139.568" y="88.2576" width="1.72287" height="4.79063" fill="#F0E9D6" stroke="#195959" stroke-width="0.335402"/>
<rect x="142.341" y="82.3177" width="1.72287" height="4.79063" fill="#F0E9D6" stroke="#195959" stroke-width="0.335402"/>
<rect x="142.341" y="88.2576" width="1.72287" height="4.79063" fill="#F0E9D6" stroke="#195959" stroke-width="0.335402"/>
<rect x="145.116" y="82.3177" width="1.72287" height="4.79063" fill="#F0E9D6" stroke="#195959" stroke-width="0.335402"/>
<rect x="145.116" y="88.2576" width="1.72287" height="4.79063" fill="#F0E9D6" stroke="#195959" stroke-width="0.335402"/>
<rect x="154.135" y="82.3177" width="1.72287" height="4.79063" fill="#F0E9D6" stroke="#195959" stroke-width="0.335402"/>
<rect x="154.135" y="88.2576" width="1.72287" height="4.79063" fill="#F0E9D6" stroke="#195959" stroke-width="0.335402"/>
<rect x="156.91" y="82.3177" width="1.72287" height="4.79063" fill="#F0E9D6" stroke="#195959" stroke-width="0.335402"/>
<rect x="156.91" y="88.2576" width="1.72287" height="4.79063" fill="#F0E9D6" stroke="#195959" stroke-width="0.335402"/>
<rect x="159.685" y="82.3177" width="1.72287" height="4.79063" fill="#F0E9D6" stroke="#195959" stroke-width="0.335402"/>
<rect x="159.685" y="88.2576" width="1.72287" height="4.79063" fill="#F0E9D6" stroke="#195959" stroke-width="0.335402"/>
<path d="M155.355 87.6823C155.355 90.5946 153.154 92.9159 150.487 92.9159C147.82 92.9159 145.62 90.5946 145.62 87.6823C145.62 84.77 147.82 82.4487 150.487 82.4487C153.154 82.4487 155.355 84.77 155.355 87.6823Z" fill="#F0E9D6" stroke="#195959" stroke-width="0.670804"/>
<ellipse cx="150.487" cy="87.6821" rx="2.77494" ry="2.97015" fill="#646868"/>
<rect x="163" y="81" width="24.6276" height="13.3657" fill="#F0E9D6"/>
<rect x="164.568" y="82.3177" width="1.72287" height="4.79063" fill="#F0E9D6" stroke="#195959" stroke-width="0.335402"/>
<rect x="164.568" y="88.2576" width="1.72287" height="4.79063" fill="#F0E9D6" stroke="#195959" stroke-width="0.335402"/>
<rect x="167.341" y="82.3177" width="1.72287" height="4.79063" fill="#F0E9D6" stroke="#195959" stroke-width="0.335402"/>
<rect x="167.341" y="88.2576" width="1.72287" height="4.79063" fill="#F0E9D6" stroke="#195959" stroke-width="0.335402"/>
<rect x="170.116" y="82.3177" width="1.72287" height="4.79063" fill="#F0E9D6" stroke="#195959" stroke-width="0.335402"/>
<rect x="170.116" y="88.2576" width="1.72287" height="4.79063" fill="#F0E9D6" stroke="#195959" stroke-width="0.335402"/>
<rect x="179.135" y="82.3177" width="1.72287" height="4.79063" fill="#F0E9D6" stroke="#195959" stroke-width="0.335402"/>
<rect x="179.135" y="88.2576" width="1.72287" height="4.79063" fill="#F0E9D6" stroke="#195959" stroke-width="0.335402"/>
<rect x="181.91" y="82.3177" width="1.72287" height="4.79063" fill="#F0E9D6" stroke="#195959" stroke-width="0.335402"/>
<rect x="181.91" y="88.2576" width="1.72287" height="4.79063" fill="#F0E9D6" stroke="#195959" stroke-width="0.335402"/>
<rect x="184.685" y="82.3177" width="1.72287" height="4.79063" fill="#F0E9D6" stroke="#195959" stroke-width="0.335402"/>
<rect x="184.685" y="88.2576" width="1.72287" height="4.79063" fill="#F0E9D6" stroke="#195959" stroke-width="0.335402"/>
<path d="M180.355 87.6823C180.355 90.5946 178.154 92.9159 175.487 92.9159C172.82 92.9159 170.62 90.5946 170.62 87.6823C170.62 84.77 172.82 82.4487 175.487 82.4487C178.154 82.4487 180.355 84.77 180.355 87.6823Z" fill="#F0E9D6" stroke="#195959" stroke-width="0.670804"/>
<ellipse cx="175.487" cy="87.6821" rx="2.77494" ry="2.97015" fill="#646868"/>
<path fill-rule="evenodd" clip-rule="evenodd" d="M116.573 108.555V108.432C116.573 108.452 116.573 108.473 116.573 108.493C116.573 108.514 116.573 108.534 116.573 108.555ZM116.579 108.039H140.316C140.115 100.412 134.878 94.3022 128.448 94.3022C122.017 94.3022 116.78 100.412 116.579 108.039Z" fill="#A5604A"/>
<rect x="116.579" y="108.039" width="23.7612" height="15.5933" fill="#F0E9D6"/>
<rect x="120.663" y="108.782" width="1.11381" height="2.59888" rx="0.556903" fill="#195959"/>
<rect x="129.202" y="108.782" width="1.11381" height="2.59888" rx="0.556903" fill="#195959"/>
<rect x="123.633" y="108.782" width="1.11381" height="2.59888" rx="0.556903" fill="#195959"/>
<rect x="132.173" y="108.782" width="1.11381" height="2.59888" rx="0.556903" fill="#195959"/>
<rect x="126.604" y="108.782" width="1.11381" height="2.59888" rx="0.556903" fill="#195959"/>
<rect x="135.143" y="108.782" width="1.11381" height="2.59888" rx="0.556903" fill="#195959"/>
<path fill-rule="evenodd" clip-rule="evenodd" d="M198.982 108.569C198.982 108.544 198.982 108.518 198.982 108.493C198.982 108.468 198.982 108.443 198.982 108.418V108.569ZM198.976 108.04C198.776 100.412 193.539 94.3022 187.108 94.3022C180.677 94.3022 175.44 100.412 175.239 108.04H198.976Z" fill="#A5604A"/>
<rect x="175.239" y="108.04" width="23.7612" height="15.5933" fill="#F0E9D6"/>
<rect x="180.065" y="108.782" width="1.11381" height="2.59888" rx="0.556903" fill="#195959"/>
<rect x="188.604" y="108.782" width="1.11381" height="2.59888" rx="0.556903" fill="#195959"/>
<rect x="183.036" y="108.782" width="1.11381" height="2.59888" rx="0.556903" fill="#195959"/>
<rect x="191.575" y="108.782" width="1.11381" height="2.59888" rx="0.556903" fill="#195959"/>
<rect x="186.006" y="108.782" width="1.11381" height="2.59888" rx="0.556903" fill="#195959"/>
<rect x="194.546" y="108.782" width="1.11381" height="2.59888" rx="0.556903" fill="#195959"/>
<path d="M158.904 94.6738L167.814 100.985H149.993L158.904 94.6738Z" fill="#A5604A"/>
<rect x="149.993" y="100.985" width="17.8209" height="22.6474" fill="#F0E9D6"/>
<path d="M160.185 105.441C160.185 104.713 160.775 104.123 161.503 104.123C162.23 104.123 162.82 104.713 162.82 105.441V108.614H160.185V105.441Z" fill="#F0E9D6" stroke="#195959" stroke-width="0.335402"/>
<path d="M159.442 116.207C159.442 114.659 160.697 113.405 162.245 113.405C163.792 113.405 165.047 114.659 165.047 116.207V117.153H159.442V116.207Z" fill="#F0E9D6" stroke="#195959" stroke-width="0.335402"/>
<path d="M152.759 116.207C152.759 114.659 154.014 113.405 155.562 113.405C157.11 113.405 158.364 114.659 158.364 116.207V117.153H152.759V116.207Z" fill="#F0E9D6" stroke="#195959" stroke-width="0.335402"/>
<path d="M164.64 105.441C164.64 104.713 165.23 104.123 165.958 104.123C166.685 104.123 167.275 104.713 167.275 105.441V108.614H164.64V105.441Z" fill="#F0E9D6" stroke="#195959" stroke-width="0.335402"/>
<path d="M155.73 105.441C155.73 104.713 156.32 104.123 157.048 104.123C157.775 104.123 158.365 104.713 158.365 105.441V108.614H155.73V105.441Z" fill="#F0E9D6" stroke="#195959" stroke-width="0.335402"/>
<path d="M151.274 105.441C151.274 104.713 151.864 104.123 152.592 104.123C153.319 104.123 153.909 104.713 153.909 105.441V108.614H151.274V105.441Z" fill="#F0E9D6" stroke="#195959" stroke-width="0.335402"/>
<rect x="23.7598" y="94.3022" width="88.3619" height="29.3302" fill="#F0E9D6"/>
<path d="M30.7756 85.0205H112.122V94.3022H23.7598L30.7756 85.0205Z" fill="#A5604A"/>
<rect x="110.638" y="113.237" width="0.371269" height="2.59888" rx="0.185634" fill="#195959"/>
<rect x="102.842" y="113.237" width="0.371269" height="2.59888" rx="0.185634" fill="#195959"/>
<rect x="95.0439" y="113.237" width="0.371269" height="2.59888" rx="0.185634" fill="#195959"/>
<rect x="87.248" y="113.237" width="0.371269" height="2.59888" rx="0.185634" fill="#195959"/>
<rect x="79.4512" y="113.237" width="0.371269" height="2.59888" rx="0.185634" fill="#195959"/>
<rect x="71.6543" y="113.237" width="0.371269" height="2.59888" rx="0.185634" fill="#195959"/>
<rect x="63.8574" y="113.237" width="0.371269" height="2.59888" rx="0.185634" fill="#195959"/>
<rect x="56.0615" y="113.237" width="0.371269" height="2.59888" rx="0.185634" fill="#195959"/>
<rect x="48.2646" y="113.237" width="0.371269" height="2.59888" rx="0.185634" fill="#195959"/>
<rect x="40.4678" y="113.237" width="0.371269" height="2.59888" rx="0.185634" fill="#195959"/>
<rect x="32.6709" y="113.237" width="0.371269" height="2.59888" rx="0.185634" fill="#195959"/>
<rect x="109.524" y="113.237" width="0.371269" height="2.59888" rx="0.185634" fill="#195959"/>
<rect x="101.727" y="113.237" width="0.371269" height="2.59888" rx="0.185634" fill="#195959"/>
<rect x="93.9307" y="113.237" width="0.371269" height="2.59888" rx="0.185634" fill="#195959"/>
<rect x="86.1338" y="113.237" width="0.371269" height="2.59888" rx="0.185634" fill="#195959"/>
<rect x="78.3379" y="113.237" width="0.371269" height="2.59888" rx="0.185634" fill="#195959"/>
<rect x="70.54" y="113.237" width="0.371269" height="2.59888" rx="0.185634" fill="#195959"/>
<rect x="62.7441" y="113.237" width="0.371269" height="2.59888" rx="0.185634" fill="#195959"/>
<rect x="47.1504" y="113.237" width="0.371269" height="2.59888" rx="0.185634" fill="#195959"/>
<rect x="54.9473" y="113.237" width="0.371269" height="2.59888" rx="0.185634" fill="#195959"/>
<rect x="39.3535" y="113.237" width="0.371269" height="2.59888" rx="0.185634" fill="#195959"/>
<rect x="31.5576" y="113.237" width="0.371269" height="2.59888" rx="0.185634" fill="#195959"/>
<rect x="108.409" y="113.237" width="0.371269" height="2.59888" rx="0.185634" fill="#195959"/>
<rect x="100.613" y="113.237" width="0.371269" height="2.59888" rx="0.185634" fill="#195959"/>
<rect x="92.8164" y="113.237" width="0.371269" height="2.59888" rx="0.185634" fill="#195959"/>
<rect x="85.0205" y="113.237" width="0.371269" height="2.59888" rx="0.185634" fill="#195959"/>
<rect x="77.2236" y="113.237" width="0.371269" height="2.59888" rx="0.185634" fill="#195959"/>
<rect x="69.4268" y="113.237" width="0.371269" height="2.59888" rx="0.185634" fill="#195959"/>
<rect x="46.0371" y="113.237" width="0.371269" height="2.59888" rx="0.185634" fill="#195959"/>
<rect x="61.6309" y="113.237" width="0.371269" height="2.59888" rx="0.185634" fill="#195959"/>
<rect x="53.833" y="113.237" width="0.371269" height="2.59888" rx="0.185634" fill="#195959"/>
<rect x="38.2402" y="113.237" width="0.371269" height="2.59888" rx="0.185634" fill="#195959"/>
<rect x="30.4443" y="113.237" width="0.371269" height="2.59888" rx="0.185634" fill="#195959"/>
<rect x="107.296" y="113.237" width="0.371269" height="2.59888" rx="0.185634" fill="#195959"/>
<rect x="99.5" y="113.237" width="0.371269" height="2.59888" rx="0.185634" fill="#195959"/>
<rect x="91.7031" y="113.237" width="0.371269" height="2.59888" rx="0.185634" fill="#195959"/>
<rect x="83.9062" y="113.237" width="0.371269" height="2.59888" rx="0.185634" fill="#195959"/>
<rect x="76.1094" y="113.237" width="0.371269" height="2.59888" rx="0.185634" fill="#195959"/>
<rect x="44.9229" y="113.237" width="0.371269" height="2.59888" rx="0.185634" fill="#195959"/>
<rect x="68.3135" y="113.237" width="0.371269" height="2.59888" rx="0.185634" fill="#195959"/>
<rect x="60.5166" y="113.237" width="0.371269" height="2.59888" rx="0.185634" fill="#195959"/>
<rect x="52.7197" y="113.237" width="0.371269" height="2.59888" rx="0.185634" fill="#195959"/>
<rect x="37.127" y="113.237" width="0.371269" height="2.59888" rx="0.185634" fill="#195959"/>
<rect x="29.3291" y="113.237" width="0.371269" height="2.59888" rx="0.185634" fill="#195959"/>
<rect x="106.183" y="113.237" width="0.371269" height="2.59888" rx="0.185634" fill="#195959"/>
<rect x="98.3857" y="113.237" width="0.371269" height="2.59888" rx="0.185634" fill="#195959"/>
<rect x="90.5898" y="113.237" width="0.371269" height="2.59888" rx="0.185634" fill="#195959"/>
<rect x="82.792" y="113.237" width="0.371269" height="2.59888" rx="0.185634" fill="#195959"/>
<rect x="43.8096" y="113.237" width="0.371269" height="2.59888" rx="0.185634" fill="#195959"/>
<rect x="74.9961" y="113.237" width="0.371269" height="2.59888" rx="0.185634" fill="#195959"/>
<rect x="67.1992" y="113.237" width="0.371269" height="2.59888" rx="0.185634" fill="#195959"/>
<rect x="59.4023" y="113.237" width="0.371269" height="2.59888" rx="0.185634" fill="#195959"/>
<rect x="51.6055" y="113.237" width="0.371269" height="2.59888" rx="0.185634" fill="#195959"/>
<rect x="36.0127" y="113.237" width="0.371269" height="2.59888" rx="0.185634" fill="#195959"/>
<rect x="28.2158" y="113.237" width="0.371269" height="2.59888" rx="0.185634" fill="#195959"/>
<rect x="105.068" y="113.237" width="0.371269" height="2.59888" rx="0.185634" fill="#195959"/>
<rect x="97.2725" y="113.237" width="0.371269" height="2.59888" rx="0.185634" fill="#195959"/>
<rect x="89.4746" y="113.237" width="0.371269" height="2.59888" rx="0.185634" fill="#195959"/>
<rect x="42.6963" y="113.237" width="0.371269" height="2.59888" rx="0.185634" fill="#195959"/>
<rect x="81.6787" y="113.237" width="0.371269" height="2.59888" rx="0.185634" fill="#195959"/>
<rect x="73.8818" y="113.237" width="0.371269" height="2.59888" rx="0.185634" fill="#195959"/>
<rect x="66.0859" y="113.237" width="0.371269" height="2.59888" rx="0.185634" fill="#195959"/>
<rect x="58.2881" y="113.237" width="0.371269" height="2.59888" rx="0.185634" fill="#195959"/>
<rect x="50.4922" y="113.237" width="0.371269" height="2.59888" rx="0.185634" fill="#195959"/>
<rect x="34.8984" y="113.237" width="0.371269" height="2.59888" rx="0.185634" fill="#195959"/>
<rect x="27.1025" y="113.237" width="0.371269" height="2.59888" rx="0.185634" fill="#195959"/>
<rect x="103.955" y="113.237" width="0.371269" height="2.59888" rx="0.185634" fill="#195959"/>
<rect x="96.1582" y="113.237" width="0.371269" height="2.59888" rx="0.185634" fill="#195959"/>
<rect x="41.5811" y="113.237" width="0.371269" height="2.59888" rx="0.185634" fill="#195959"/>
<rect x="88.3613" y="113.237" width="0.371269" height="2.59888" rx="0.185634" fill="#195959"/>
<rect x="80.5654" y="113.237" width="0.371269" height="2.59888" rx="0.185634" fill="#195959"/>
<rect x="72.7686" y="113.237" width="0.371269" height="2.59888" rx="0.185634" fill="#195959"/>
<rect x="64.9717" y="113.237" width="0.371269" height="2.59888" rx="0.185634" fill="#195959"/>
<rect x="57.1748" y="113.237" width="0.371269" height="2.59888" rx="0.185634" fill="#195959"/>
<rect x="49.3789" y="113.237" width="0.371269" height="2.59888" rx="0.185634" fill="#195959"/>
<rect x="33.7852" y="113.237" width="0.371269" height="2.59888" rx="0.185634" fill="#195959"/>
<rect x="25.9883" y="113.237" width="0.371269" height="2.59888" rx="0.185634" fill="#195959"/>
<rect x="24.875" y="113.237" width="0.371269" height="2.59888" rx="0.185634" fill="#195959"/>
<line x1="23.7598" y1="117.895" x2="112.122" y2="117.895" stroke="#195959" stroke-width="0.335402"/>
<line x1="23.7598" y1="120.123" x2="112.122" y2="120.123" stroke="#195959" stroke-width="0.335402"/>
<rect x="88" y="96" width="24.6276" height="13.3657" fill="#F0E9D6"/>
<rect x="89.5677" y="97.3177" width="1.72287" height="4.79063" fill="#F0E9D6" stroke="#195959" stroke-width="0.335402"/>
<rect x="89.5677" y="103.258" width="1.72287" height="4.79063" fill="#F0E9D6" stroke="#195959" stroke-width="0.335402"/>
<rect x="92.3411" y="97.3177" width="1.72287" height="4.79063" fill="#F0E9D6" stroke="#195959" stroke-width="0.335402"/>
<rect x="92.3411" y="103.258" width="1.72287" height="4.79063" fill="#F0E9D6" stroke="#195959" stroke-width="0.335402"/>
<rect x="95.1155" y="97.3177" width="1.72287" height="4.79063" fill="#F0E9D6" stroke="#195959" stroke-width="0.335402"/>
<rect x="95.1155" y="103.258" width="1.72287" height="4.79063" fill="#F0E9D6" stroke="#195959" stroke-width="0.335402"/>
<rect x="104.135" y="97.3177" width="1.72287" height="4.79063" fill="#F0E9D6" stroke="#195959" stroke-width="0.335402"/>
<rect x="104.135" y="103.258" width="1.72287" height="4.79063" fill="#F0E9D6" stroke="#195959" stroke-width="0.335402"/>
<rect x="106.91" y="97.3177" width="1.72287" height="4.79063" fill="#F0E9D6" stroke="#195959" stroke-width="0.335402"/>
<rect x="106.91" y="103.258" width="1.72287" height="4.79063" fill="#F0E9D6" stroke="#195959" stroke-width="0.335402"/>
<rect x="109.685" y="97.3177" width="1.72287" height="4.79063" fill="#F0E9D6" stroke="#195959" stroke-width="0.335402"/>
<rect x="109.685" y="103.258" width="1.72287" height="4.79063" fill="#F0E9D6" stroke="#195959" stroke-width="0.335402"/>
<path d="M105.355 102.682C105.355 105.595 103.154 107.916 100.487 107.916C97.82 107.916 95.6196 105.595 95.6196 102.682C95.6196 99.77 97.82 97.4487 100.487 97.4487C103.154 97.4487 105.355 99.77 105.355 102.682Z" fill="#F0E9D6" stroke="#195959" stroke-width="0.670804"/>
<ellipse cx="100.487" cy="102.682" rx="2.77494" ry="2.97015" fill="#646868"/>
<rect x="38" y="96" width="24.6276" height="13.3657" fill="#F0E9D6"/>
<rect x="39.5677" y="97.3177" width="1.72287" height="4.79063" fill="#F0E9D6" stroke="#195959" stroke-width="0.335402"/>
<rect x="39.5677" y="103.258" width="1.72287" height="4.79063" fill="#F0E9D6" stroke="#195959" stroke-width="0.335402"/>
<rect x="42.3411" y="97.3177" width="1.72287" height="4.79063" fill="#F0E9D6" stroke="#195959" stroke-width="0.335402"/>
<rect x="42.3411" y="103.258" width="1.72287" height="4.79063" fill="#F0E9D6" stroke="#195959" stroke-width="0.335402"/>
<rect x="45.1155" y="97.3177" width="1.72287" height="4.79063" fill="#F0E9D6" stroke="#195959" stroke-width="0.335402"/>
<rect x="45.1155" y="103.258" width="1.72287" height="4.79063" fill="#F0E9D6" stroke="#195959" stroke-width="0.335402"/>
<rect x="54.135" y="97.3177" width="1.72287" height="4.79063" fill="#F0E9D6" stroke="#195959" stroke-width="0.335402"/>
<rect x="54.135" y="103.258" width="1.72287" height="4.79063" fill="#F0E9D6" stroke="#195959" stroke-width="0.335402"/>
<rect x="56.9104" y="97.3177" width="1.72287" height="4.79063" fill="#F0E9D6" stroke="#195959" stroke-width="0.335402"/>
<rect x="56.9104" y="103.258" width="1.72287" height="4.79063" fill="#F0E9D6" stroke="#195959" stroke-width="0.335402"/>
<rect x="59.6848" y="97.3177" width="1.72287" height="4.79063" fill="#F0E9D6" stroke="#195959" stroke-width="0.335402"/>
<rect x="59.6848" y="103.258" width="1.72287" height="4.79063" fill="#F0E9D6" stroke="#195959" stroke-width="0.335402"/>
<path d="M55.3548 102.682C55.3548 105.595 53.1544 107.916 50.4872 107.916C47.82 107.916 45.6196 105.595 45.6196 102.682C45.6196 99.77 47.82 97.4487 50.4872 97.4487C53.1544 97.4487 55.3548 99.77 55.3548 102.682Z" fill="#F0E9D6" stroke="#195959" stroke-width="0.670804"/>
<ellipse cx="50.4869" cy="102.682" rx="2.77494" ry="2.97015" fill="#646868"/>
<rect x="63" y="96" width="24.6276" height="13.3657" fill="#F0E9D6"/>
<rect x="64.5677" y="97.3177" width="1.72287" height="4.79063" fill="#F0E9D6" stroke="#195959" stroke-width="0.335402"/>
<rect x="64.5677" y="103.258" width="1.72287" height="4.79063" fill="#F0E9D6" stroke="#195959" stroke-width="0.335402"/>
<rect x="67.3411" y="97.3177" width="1.72287" height="4.79063" fill="#F0E9D6" stroke="#195959" stroke-width="0.335402"/>
<rect x="67.3411" y="103.258" width="1.72287" height="4.79063" fill="#F0E9D6" stroke="#195959" stroke-width="0.335402"/>
<rect x="70.1155" y="97.3177" width="1.72287" height="4.79063" fill="#F0E9D6" stroke="#195959" stroke-width="0.335402"/>
<rect x="70.1155" y="103.258" width="1.72287" height="4.79063" fill="#F0E9D6" stroke="#195959" stroke-width="0.335402"/>
<rect x="79.135" y="97.3177" width="1.72287" height="4.79063" fill="#F0E9D6" stroke="#195959" stroke-width="0.335402"/>
<rect x="79.135" y="103.258" width="1.72287" height="4.79063" fill="#F0E9D6" stroke="#195959" stroke-width="0.335402"/>
<rect x="81.9104" y="97.3177" width="1.72287" height="4.79063" fill="#F0E9D6" stroke="#195959" stroke-width="0.335402"/>
<rect x="81.9104" y="103.258" width="1.72287" height="4.79063" fill="#F0E9D6" stroke="#195959" stroke-width="0.335402"/>
<rect x="84.6848" y="97.3177" width="1.72287" height="4.79063" fill="#F0E9D6" stroke="#195959" stroke-width="0.335402"/>
<rect x="84.6848" y="103.258" width="1.72287" height="4.79063" fill="#F0E9D6" stroke="#195959" stroke-width="0.335402"/>
<path d="M80.3548 102.682C80.3548 105.595 78.1544 107.916 75.4872 107.916C72.82 107.916 70.6196 105.595 70.6196 102.682C70.6196 99.77 72.82 97.4487 75.4872 97.4487C78.1544 97.4487 80.3548 99.77 80.3548 102.682Z" fill="#F0E9D6" stroke="#195959" stroke-width="0.670804"/>
<ellipse cx="75.4869" cy="102.682" rx="2.77494" ry="2.97015" fill="#646868"/>
<rect x="13" y="96" width="24.6276" height="13.3657" fill="#F0E9D6"/>
<rect x="14.5672" y="97.3177" width="1.72287" height="4.79063" fill="#F0E9D6" stroke="#195959" stroke-width="0.335402"/>
<rect x="14.5672" y="103.258" width="1.72287" height="4.79063" fill="#F0E9D6" stroke="#195959" stroke-width="0.335402"/>
<rect x="17.3411" y="97.3177" width="1.72287" height="4.79063" fill="#F0E9D6" stroke="#195959" stroke-width="0.335402"/>
<rect x="17.3411" y="103.258" width="1.72287" height="4.79063" fill="#F0E9D6" stroke="#195959" stroke-width="0.335402"/>
<rect x="20.116" y="97.3177" width="1.72287" height="4.79063" fill="#F0E9D6" stroke="#195959" stroke-width="0.335402"/>
<rect x="20.116" y="103.258" width="1.72287" height="4.79063" fill="#F0E9D6" stroke="#195959" stroke-width="0.335402"/>
<rect x="29.135" y="97.3177" width="1.72287" height="4.79063" fill="#F0E9D6" stroke="#195959" stroke-width="0.335402"/>
<rect x="29.135" y="103.258" width="1.72287" height="4.79063" fill="#F0E9D6" stroke="#195959" stroke-width="0.335402"/>
<rect x="31.9104" y="97.3177" width="1.72287" height="4.79063" fill="#F0E9D6" stroke="#195959" stroke-width="0.335402"/>
<rect x="31.9104" y="103.258" width="1.72287" height="4.79063" fill="#F0E9D6" stroke="#195959" stroke-width="0.335402"/>
<rect x="34.6848" y="97.3177" width="1.72287" height="4.79063" fill="#F0E9D6" stroke="#195959" stroke-width="0.335402"/>
<rect x="34.6848" y="103.258" width="1.72287" height="4.79063" fill="#F0E9D6" stroke="#195959" stroke-width="0.335402"/>
<path d="M30.3548 102.682C30.3548 105.595 28.1544 107.916 25.4872 107.916C22.82 107.916 20.6196 105.595 20.6196 102.682C20.6196 99.77 22.82 97.4487 25.4872 97.4487C28.1544 97.4487 30.3548 99.77 30.3548 102.682Z" fill="#F0E9D6" stroke="#195959" stroke-width="0.670804"/>
<ellipse cx="25.4869" cy="102.682" rx="2.77494" ry="2.97015" fill="#646868"/>
<path d="M112.165 94.6738L112.165 101.078H102.841L112.165 94.6738Z" fill="#A5604A"/>
<rect x="102.883" y="100.986" width="9.28172" height="22.6474" fill="#F0E9D6"/>
<path d="M110.141 116.207V117.154H104.536V116.207C104.536 114.66 105.791 113.405 107.338 113.405C108.886 113.405 110.141 114.66 110.141 116.207Z" fill="#F0E9D6" stroke="#195959" stroke-width="0.335402"/>
<path d="M110.884 104.698V107.872H108.249V104.698C108.249 103.97 108.839 103.381 109.566 103.381C110.294 103.381 110.884 103.97 110.884 104.698Z" fill="#F0E9D6" stroke="#195959" stroke-width="0.335402"/>
<path d="M106.428 104.698V107.872H103.794V104.698C103.794 103.97 104.383 103.381 105.111 103.381C105.839 103.381 106.428 103.97 106.428 104.698Z" fill="#F0E9D6" stroke="#195959" stroke-width="0.335402"/>
<rect y="37.8696" width="23.7612" height="85.7631" fill="#F0E9D6"/>
<rect x="5.02956" y="77.428" width="12.216" height="17.0425" fill="#F0E9D6" stroke="#195959" stroke-width="0.335402"/>
<rect x="5.02956" y="97.4759" width="12.216" height="17.0425" fill="#F0E9D6" stroke="#195959" stroke-width="0.335402"/>
<path d="M5.19727 81.8653L8.16741 77.5957L11.1376 81.8653V94.4884H5.19727V81.8653Z" fill="#F0E9D6" stroke="#195959" stroke-width="0.335402"/>
<path d="M5.19727 51.782L10.9519 44.1812L16.7066 51.782V74.2539H5.19727V51.782Z" fill="#F0E9D6" stroke="#195959" stroke-width="0.335402"/>
<path d="M5.19727 101.913L8.16741 97.6436L11.1376 101.913V114.536H5.19727V101.913Z" fill="#F0E9D6" stroke="#195959" stroke-width="0.335402"/>
<path d="M11.1387 81.8653L14.1088 77.5957L17.079 81.8653V94.4884H11.1387V81.8653Z" fill="#F0E9D6" stroke="#195959" stroke-width="0.335402"/>
<path d="M11.1387 101.913L14.1088 97.6436L17.079 101.913V114.536H11.1387V101.913Z" fill="#F0E9D6" stroke="#195959" stroke-width="0.335402"/>
<path d="M5.36497 58.4749C5.36497 55.3893 7.86633 52.8879 10.9519 52.8879C14.0375 52.8879 16.5389 55.3893 16.5389 58.4749V74.0861H5.36497V58.4749Z" fill="#F0E9D6" stroke="#195959" stroke-width="0.335402"/>
<rect x="7.05469" y="82.4214" width="0.742537" height="11.1381" rx="0.371269" fill="#195959"/>
<rect x="7.05469" y="57.1758" width="1.48507" height="15.5933" rx="0.742537" fill="#195959"/>
<rect x="10.396" y="57.1758" width="1.11381" height="15.5933" rx="0.556903" fill="#195959"/>
<rect x="13.3652" y="57.1758" width="1.48507" height="15.5933" rx="0.742537" fill="#195959"/>
<rect x="7.05469" y="102.47" width="0.742537" height="11.1381" rx="0.371269" fill="#195959"/>
<rect x="8.53857" y="82.4214" width="0.742537" height="11.1381" rx="0.371269" fill="#195959"/>
<rect x="8.53857" y="102.47" width="0.742537" height="11.1381" rx="0.371269" fill="#195959"/>
<rect x="12.9946" y="82.4214" width="0.742537" height="11.1381" rx="0.371269" fill="#195959"/>
<rect x="12.9946" y="102.47" width="0.742537" height="11.1381" rx="0.371269" fill="#195959"/>
<rect x="14.48" y="82.4214" width="0.742537" height="11.1381" rx="0.371269" fill="#195959"/>
<rect x="14.48" y="102.47" width="0.742537" height="11.1381" rx="0.371269" fill="#195959"/>
<line x1="11.8447" y1="16.3359" x2="11.8447" y2="32.6718" stroke="#195959" stroke-width="0.670804"/>
<path d="M11.8806 32.3008L23.7612 37.8698H0L11.8806 32.3008Z" fill="#A5604A"/>
<mask id="path-254-inside-1_122_1161" fill="white">
<path fill-rule="evenodd" clip-rule="evenodd" d="M112.141 72.0262H187.841C187.201 47.7013 170.5 28.2168 149.991 28.2168C129.482 28.2168 112.781 47.7013 112.141 72.0262Z"/>
</mask>
<path fill-rule="evenodd" clip-rule="evenodd" d="M112.141 72.0262H187.841C187.201 47.7013 170.5 28.2168 149.991 28.2168C129.482 28.2168 112.781 47.7013 112.141 72.0262Z" fill="#A5604A"/>
<path d="M112.141 72.0262L109.458 71.9556L109.386 74.7094H112.141V72.0262ZM187.841 72.0262V74.7094H190.596L190.524 71.9556L187.841 72.0262ZM112.141 74.7094H187.841V69.343H112.141V74.7094ZM149.991 30.9C168.63 30.9 184.545 48.7715 185.159 72.0968L190.524 71.9556C189.857 46.6311 172.37 25.5336 149.991 25.5336V30.9ZM114.823 72.0968C115.437 48.7715 131.352 30.9 149.991 30.9V25.5336C127.612 25.5336 110.125 46.6311 109.458 71.9556L114.823 72.0968Z" fill="#F0E9D6" mask="url(#path-254-inside-1_122_1161)"/>
<path d="M147.764 30.208C142.381 36.5702 138.112 52.3491 139.039 69.7987" stroke="#F0E9D6" stroke-width="2.34781" stroke-linecap="round"/>
<path d="M154.076 30.0728C159.459 36.4349 163.728 52.2138 162.8 69.6634" stroke="#F0E9D6" stroke-width="2.34781" stroke-linecap="round"/>
<path d="M30 150.647H55.915V191.856H30V150.647Z" fill="#F0E9D6"/>
<path d="M55.915 143H88.6274L55.915 150.647H30L55.915 143Z" fill="#A5604A"/>
<path d="M55.915 150.647L88.6274 143V191.856H55.915V150.647Z" fill="#F0E9D6"/>
<path d="M63.1373 167.216H67.3856V179.111H63.1373V167.216Z" fill="#A5604A"/>
<path d="M74.183 167.216H78.4314V179.111H74.183V167.216Z" fill="#A5604A"/>
<path d="M140 166.647H165.915V207.856H140V166.647Z" fill="#F0E9D6"/>
<path d="M165.915 159H198.627L165.915 166.647H140L165.915 159Z" fill="#A5604A"/>
<path d="M165.915 166.647L198.627 159V207.856H165.915V166.647Z" fill="#F0E9D6"/>
<path d="M173.137 183.216H177.386V195.111H173.137V183.216Z" fill="#A5604A"/>
<path d="M184.183 183.216H188.431V195.111H184.183V183.216Z" fill="#A5604A"/>
<path d="M211 91.6471H236.915V132.856H211V91.6471Z" fill="#F0E9D6"/>
<path d="M236.915 84H269.627L236.915 91.6471H211L236.915 84Z" fill="#A5604A"/>
<path d="M236.915 91.6471L269.627 84V132.856H236.915V91.6471Z" fill="#F0E9D6"/>
<path d="M244.137 108.216H248.386V120.111H244.137V108.216Z" fill="#A5604A"/>
<path d="M255.183 108.216H259.431V120.111H255.183V108.216Z" fill="#A5604A"/>
<path d="M138.908 145.041H119.942V199.15H138.908V145.041Z" fill="#F0E9D6"/>
<path d="M119.942 135H96L119.942 145.041H138.908L119.942 135Z" fill="#A5604A"/>
<path d="M119.942 145.041L96 135L96.0002 199.15H119.942V145.041Z" fill="#F0E9D6"/>
<path d="M114.656 166.796H111.547V182.415H114.656V166.796Z" fill="#A5604A"/>
<path d="M106.572 166.796H103.462V182.415H106.572V166.796Z" fill="#A5604A"/>
<path d="M303.908 113.041H284.942V167.15H303.908V113.041Z" fill="#F0E9D6"/>
<path d="M284.942 103H261L284.942 113.041H303.908L284.942 103Z" fill="#A5604A"/>
<path d="M284.942 113.041L261 103L261 167.15H284.942V113.041Z" fill="#F0E9D6"/>
<path d="M279.656 134.796H276.547V150.415H279.656V134.796Z" fill="#A5604A"/>
<path d="M271.572 134.796H268.462V150.415H271.572V134.796Z" fill="#A5604A"/>
<path d="M241.908 149.041H222.942V203.15H241.908V149.041Z" fill="#F0E9D6"/>
<path d="M222.942 139H199L222.942 149.041H241.908L222.942 139Z" fill="#A5604A"/>
<path d="M222.942 149.041L199 139L199 203.15H222.942V149.041Z" fill="#F0E9D6"/>
<path d="M217.656 170.796H214.547V186.415H217.656V170.796Z" fill="#A5604A"/>
<path d="M209.572 170.796H206.462V186.415H209.572V170.796Z" fill="#A5604A"/>
<path d="M240.318 182.235L233.39 177L225.59 182.235V233H240.318V182.235Z" fill="#F0E9D6"/>
<path d="M218.216 178.395L207.001 184.374L225.638 182.181L233.39 177L218.216 178.395Z" fill="#A5604A"/>
<path d="M225.59 182.235L207.001 184.374L207 233L225.59 233V182.235Z" fill="#F0E9D6"/>
<path d="M237.349 189.954H235.04V195.135H237.349V189.954Z" fill="#A5604A"/>
<path d="M231.081 189.954H228.772V195.135H231.081V189.954Z" fill="#A5604A"/>
<path d="M80.3176 189.235L73.3903 184L65.5905 189.235V240H80.3176V189.235Z" fill="#F0E9D6"/>
<path d="M58.2162 185.395L47.0005 191.374L65.6383 189.181L73.3903 184L58.2162 185.395Z" fill="#A5604A"/>
<path d="M65.5905 189.235L47.0005 191.374L47 240L65.5905 240V189.235Z" fill="#F0E9D6"/>
<path d="M77.3495 196.954H75.0404V202.135H77.3495V196.954Z" fill="#A5604A"/>
<path d="M71.0809 196.954H68.7717V202.135H71.0809V196.954Z" fill="#A5604A"/>
<path d="M282 190.113L291.262 186L301.691 190.113V230H282V190.113Z" fill="#F0E9D6"/>
<path d="M311.55 187.096L326.546 191.794L301.627 190.071L291.262 186L311.55 187.096Z" fill="#A5604A"/>
<path d="M301.691 190.113L326.546 191.794L326.545 230L301.691 230V190.113Z" fill="#F0E9D6"/>
<path d="M285.97 196.178H289.057V200.249H285.97V196.178Z" fill="#A5604A"/>
<path d="M294.349 196.178H297.437V200.249H294.349V196.178Z" fill="#A5604A"/>
<path d="M244 182.565H259.471V207.167H244V182.565Z" fill="#F0E9D6"/>
<path d="M259.471 178H279L259.471 182.565H244L259.471 178Z" fill="#A5604A"/>
<path d="M259.471 182.565L279 178L279 207.167L259.471 207.167V182.565Z" fill="#F0E9D6"/>
<path d="M263.783 192.457H266.319V199.558H263.783V192.457Z" fill="#A5604A"/>
<path d="M270.377 192.457H272.913V199.558H270.377V192.457Z" fill="#A5604A"/>
<path d="M233 218.113L242.262 214L252.691 218.113V258H233V218.113Z" fill="#F0E9D6"/>
<path d="M262.55 215.096L277.546 219.794L252.627 218.071L242.262 214L262.55 215.096Z" fill="#A5604A"/>
<path d="M252.691 218.113L277.546 219.794L277.545 258L252.691 258V218.113Z" fill="#F0E9D6"/>
<path d="M236.97 224.178H240.057V228.249H236.97V224.178Z" fill="#A5604A"/>
<path d="M245.349 224.178H248.437V228.249H245.349V224.178Z" fill="#A5604A"/>
<path d="M110 194.565H125.471V219.167H110V194.565Z" fill="#F0E9D6"/>
<path d="M125.471 190H145L125.471 194.565H110L125.471 190Z" fill="#A5604A"/>
<path d="M125.471 194.565L145 190L145 219.167L125.471 219.167V194.565Z" fill="#F0E9D6"/>
<path d="M129.783 204.457H132.319V211.558H129.783V204.457Z" fill="#A5604A"/>
<path d="M136.377 204.457H138.913V211.558H136.377V204.457Z" fill="#A5604A"/>
<path d="M169 202.565H184.471V227.167H169V202.565Z" fill="#F0E9D6"/>
<path d="M184.471 198H204L184.471 202.565H169L184.471 198Z" fill="#A5604A"/>
<path d="M184.471 202.565L204 198L204 227.167L184.471 227.167V202.565Z" fill="#F0E9D6"/>
<path d="M188.783 212.457H191.319V219.558H188.783V212.457Z" fill="#A5604A"/>
<path d="M195.377 212.457H197.913V219.558H195.377V212.457Z" fill="#A5604A"/>
<path d="M142.318 209.235L135.39 204L127.59 209.235V260H142.318V209.235Z" fill="#F0E9D6"/>
<path d="M120.216 205.395L109.001 211.374L127.638 209.181L135.39 204L120.216 205.395Z" fill="#A5604A"/>
<path d="M127.59 209.235L109.001 211.374L109 260L127.59 260V209.235Z" fill="#F0E9D6"/>
<path d="M139.349 216.954H137.04V222.135H139.349V216.954Z" fill="#A5604A"/>
<path d="M133.081 216.954H130.772V222.135H133.081V216.954Z" fill="#A5604A"/>
<path d="M159 223.113L168.262 219L178.691 223.113V263H159V223.113Z" fill="#F0E9D6"/>
<path d="M188.55 220.096L203.546 224.794L178.627 223.071L168.262 219L188.55 220.096Z" fill="#A5604A"/>
<path d="M178.691 223.113L203.546 224.794L203.545 263L178.691 263V223.113Z" fill="#F0E9D6"/>
<path d="M162.97 229.178H166.057V233.249H162.97V229.178Z" fill="#A5604A"/>
<path d="M171.349 229.178H174.437V233.249H171.349V229.178Z" fill="#A5604A"/>
<rect x="166" y="239.569" width="1.63742" height="22.4382" rx="0.818709" transform="rotate(-1.42499 166 239.569)" fill="#D49F8F"/>
<path fill-rule="evenodd" clip-rule="evenodd" d="M167.302 240.567V253.121C168.422 252.781 170.684 252.391 173.306 252.149V239.234C170.567 239.539 168.29 240.092 167.302 240.567Z" fill="#009246"/>
<path fill-rule="evenodd" clip-rule="evenodd" d="M173.306 252.149V239.234C175.347 239.006 177.644 238.915 179.855 239.095V251.952C177.706 251.857 175.392 251.956 173.306 252.149Z" fill="white"/>
<path fill-rule="evenodd" clip-rule="evenodd" d="M179.854 251.952V239.096C182.053 239.275 184.167 239.721 185.858 240.567V253.121C184.419 252.401 182.239 252.057 179.854 251.952Z" fill="#CE2B37"/>
<path d="M36 253.647H61.915V294.856H36V253.647Z" fill="#F0E9D6"/>
<path d="M61.915 246H94.6274L61.915 253.647H36L61.915 246Z" fill="#A5604A"/>
<path d="M61.915 253.647L94.6274 246V294.856H61.915V253.647Z" fill="#F0E9D6"/>
<path d="M69.1373 270.216H73.3856V282.111H69.1373V270.216Z" fill="#A5604A"/>
<path d="M80.183 270.216H84.4314V282.111H80.183V270.216Z" fill="#A5604A"/>
<path d="M127 264.647H152.915V305.856H127V264.647Z" fill="#F0E9D6"/>
<path d="M152.915 257H185.627L152.915 264.647H127L152.915 257Z" fill="#A5604A"/>
<path d="M152.915 264.647L185.627 257V305.856H152.915V264.647Z" fill="#F0E9D6"/>
<path d="M160.137 281.216H164.386V293.111H160.137V281.216Z" fill="#A5604A"/>
<path d="M171.183 281.216H175.431V293.111H171.183V281.216Z" fill="#A5604A"/>
<path d="M217 265.647H242.915V306.856H217V265.647Z" fill="#F0E9D6"/>
<path d="M242.915 258H275.627L242.915 265.647H217L242.915 258Z" fill="#A5604A"/>
<path d="M242.915 265.647L275.627 258V306.856H242.915V265.647Z" fill="#F0E9D6"/>
<path d="M250.137 282.216H254.386V294.111H250.137V282.216Z" fill="#A5604A"/>
<path d="M261.183 282.216H265.431V294.111H261.183V282.216Z" fill="#A5604A"/>
<path d="M321.908 273.041H302.942V327.15H321.908V273.041Z" fill="#F0E9D6"/>
<path d="M302.942 263H279L302.942 273.041H321.908L302.942 263Z" fill="#A5604A"/>
<path d="M302.942 273.041L279 263L279 327.15H302.942V273.041Z" fill="#F0E9D6"/>
<path d="M297.656 294.796H294.547V310.415H297.656V294.796Z" fill="#A5604A"/>
<path d="M289.572 294.796H286.462V310.415H289.572V294.796Z" fill="#A5604A"/>
<path d="M229.908 280.041H210.942V334.15H229.908V280.041Z" fill="#F0E9D6"/>
<path d="M210.942 270H187L210.942 280.041H229.908L210.942 270Z" fill="#A5604A"/>
<path d="M210.942 280.041L187 270L187 334.15H210.942V280.041Z" fill="#F0E9D6"/>
<path d="M205.656 301.796H202.547V317.415H205.656V301.796Z" fill="#A5604A"/>
<path d="M197.572 301.796H194.462V317.415H197.572V301.796Z" fill="#A5604A"/>
<path d="M239.318 324.235L232.39 319L224.59 324.235V375H239.318V324.235Z" fill="#F0E9D6"/>
<path d="M217.216 320.395L206.001 326.374L224.638 324.181L232.39 319L217.216 320.395Z" fill="#A5604A"/>
<path d="M224.59 324.235L206.001 326.374L206 375L224.59 375V324.235Z" fill="#F0E9D6"/>
<path d="M236.349 331.954H234.04V337.135H236.349V331.954Z" fill="#A5604A"/>
<path d="M230.081 331.954H227.772V337.135H230.081V331.954Z" fill="#A5604A"/>
<path d="M65.3176 283.235L58.3903 278L50.5905 283.235V334H65.3176V283.235Z" fill="#F0E9D6"/>
<path d="M43.2162 279.395L32.0005 285.374L50.6383 283.181L58.3903 278L43.2162 279.395Z" fill="#A5604A"/>
<path d="M50.5905 283.235L32.0005 285.374L32 334L50.5905 334V283.235Z" fill="#F0E9D6"/>
<path d="M62.3495 290.954H60.0404V296.135H62.3495V290.954Z" fill="#A5604A"/>
<path d="M56.0809 290.954H53.7717V296.135H56.0809V290.954Z" fill="#A5604A"/>
<path d="M140 337.113L149.262 333L159.691 337.113V377H140V337.113Z" fill="#F0E9D6"/>
<path d="M169.55 334.096L184.546 338.794L159.627 337.071L149.262 333L169.55 334.096Z" fill="#A5604A"/>
<path d="M159.691 337.113L184.546 338.794L184.545 377L159.691 377V337.113Z" fill="#F0E9D6"/>
<path d="M143.97 343.178H147.057V347.249H143.97V343.178Z" fill="#A5604A"/>
<path d="M152.349 343.178H155.437V347.249H152.349V343.178Z" fill="#A5604A"/>
<path d="M149 302.565H164.471V327.167H149V302.565Z" fill="#F0E9D6"/>
<path d="M164.471 298H184L164.471 302.565H149L164.471 298Z" fill="#A5604A"/>
<path d="M164.471 302.565L184 298L184 327.167L164.471 327.167V302.565Z" fill="#F0E9D6"/>
<path d="M168.783 312.457H171.319V319.558H168.783V312.457Z" fill="#A5604A"/>
<path d="M175.377 312.457H177.913V319.558H175.377V312.457Z" fill="#A5604A"/>
<path d="M258 329.113L267.262 325L277.691 329.113V369H258V329.113Z" fill="#F0E9D6"/>
<path d="M287.55 326.096L302.546 330.794L277.627 329.071L267.262 325L287.55 326.096Z" fill="#A5604A"/>
<path d="M277.691 329.113L302.546 330.794L302.545 369L277.691 369V329.113Z" fill="#F0E9D6"/>
<path d="M261.97 335.178H265.057V339.249H261.97V335.178Z" fill="#A5604A"/>
<path d="M270.349 335.178H273.437V339.249H270.349V335.178Z" fill="#A5604A"/>
<path d="M39 365.113L48.262 361L58.6905 365.113V405H39V365.113Z" fill="#F0E9D6"/>
<path d="M68.5505 362.096L83.5461 366.794L58.6269 365.071L48.262 361L68.5505 362.096Z" fill="#A5604A"/>
<path d="M58.6905 365.113L83.5461 366.794L83.5451 405L58.6905 405V365.113Z" fill="#F0E9D6"/>
<path d="M42.9702 371.178H46.0575V375.249H42.9702V371.178Z" fill="#A5604A"/>
<path d="M51.3492 371.178H54.4366V375.249H51.3492V371.178Z" fill="#A5604A"/>
<path d="M95 355.565H110.471V380.167H95V355.565Z" fill="#F0E9D6"/>
<path d="M110.471 351H130L110.471 355.565H95L110.471 351Z" fill="#A5604A"/>
<path d="M110.471 355.565L130 351L130 380.167L110.471 380.167V355.565Z" fill="#F0E9D6"/>
<path d="M114.783 365.457H117.319V372.558H114.783V365.457Z" fill="#A5604A"/>
<path d="M121.377 365.457H123.913V372.558H121.377V365.457Z" fill="#A5604A"/>
<path d="M140.908 255.041H121.942V309.15H140.908V255.041Z" fill="#F0E9D6"/>
<path d="M121.942 245H98L121.942 255.041H140.908L121.942 245Z" fill="#A5604A"/>
<path d="M121.942 255.041L98 245L98.0002 309.15H121.942V255.041Z" fill="#F0E9D6"/>
<path d="M116.656 276.796H113.547V292.415H116.656V276.796Z" fill="#A5604A"/>
<path d="M108.572 276.796H105.462V292.415H108.572V276.796Z" fill="#A5604A"/>
<path d="M99 300.565H114.471V325.167H99V300.565Z" fill="#F0E9D6"/>
<path d="M114.471 296H134L114.471 300.565H99L114.471 296Z" fill="#A5604A"/>
<path d="M114.471 300.565L134 296L134 325.167L114.471 325.167V300.565Z" fill="#F0E9D6"/>
<path d="M118.783 310.457H121.319V317.558H118.783V310.457Z" fill="#A5604A"/>
<path d="M125.377 310.457H127.913V317.558H125.377V310.457Z" fill="#A5604A"/>
<path d="M105.318 300.235L98.3903 295L90.5905 300.235V351H105.318V300.235Z" fill="#F0E9D6"/>
<path d="M83.2162 296.395L72.0005 302.374L90.6383 300.181L98.3903 295L83.2162 296.395Z" fill="#A5604A"/>
<path d="M90.5905 300.235L72.0005 302.374L72 351L90.5905 351V300.235Z" fill="#F0E9D6"/>
<path d="M102.349 307.954H100.04V313.135H102.349V307.954Z" fill="#A5604A"/>
<path d="M96.0809 307.954H93.7717V313.135H96.0809V307.954Z" fill="#A5604A"/>
<path fill-rule="evenodd" clip-rule="evenodd" d="M352.491 423.566H94V436.34C125.31 421.737 141.34 423.589 167.64 436.34V445.608H185.674V436.34C216.984 421.737 233.014 423.589 259.314 436.34V445.608H278.851V436.34C310.161 421.737 326.191 423.589 352.491 436.34V423.566Z" fill="#F0E9D6"/>
<path fill-rule="evenodd" clip-rule="evenodd" d="M352.491 394.01H94V423.566H352.491V394.01ZM222.995 405.03C218.984 405.03 215.731 408.283 215.731 412.294V419.057H230.259V412.294C230.259 408.283 227.007 405.03 222.995 405.03ZM233.265 412.294C233.265 408.283 236.517 405.03 240.529 405.03C244.54 405.03 247.792 408.283 247.792 412.294V419.057H233.265V412.294ZM205.462 405.03C201.45 405.03 198.198 408.283 198.198 412.294V419.057H212.726V412.294C212.726 408.283 209.474 405.03 205.462 405.03Z" fill="#F0E9D6"/>
<rect x="111.533" y="397.015" width="4.00762" height="4.50857" fill="#646868"/>
<rect x="135.579" y="397.015" width="4.00762" height="4.50857" fill="#646868"/>
<rect x="152.611" y="397.015" width="4.00762" height="4.50857" fill="#646868"/>
<rect x="169.644" y="397.015" width="4.00762" height="4.50857" fill="#646868"/>
<rect x="186.676" y="397.015" width="4.00762" height="4.50857" fill="#646868"/>
<rect x="203.709" y="397.015" width="4.00762" height="4.50857" fill="#646868"/>
<rect x="221.242" y="397.015" width="4.00762" height="4.50857" fill="#646868"/>
<rect x="238.775" y="397.015" width="4.00762" height="4.50857" fill="#646868"/>
<rect x="255.808" y="397.015" width="4.00762" height="4.50857" fill="#646868"/>
<rect x="273.341" y="397.015" width="4.00762" height="4.50857" fill="#646868"/>
<rect x="290.373" y="397.015" width="4.00762" height="4.50857" fill="#646868"/>
<rect x="307.405" y="397.015" width="4.00762" height="4.50857" fill="#646868"/>
<rect x="324.438" y="397.015" width="4.00762" height="4.50857" fill="#646868"/>
<rect x="341.972" y="397.015" width="4.00762" height="4.50857" fill="#646868"/>
<path d="M102.767 389H356.75L352.491 394.01H94L102.767 389Z" fill="#A5604A"/>
<path d="M352.491 394.01L356.749 389L357 445.608H352.491V394.01Z" fill="#F0E9D6"/>
<path d="M94 394.01H98.2581L98.5086 450.617H94V394.01Z" fill="#F0E9D6"/>
<rect x="143.594" y="405.531" width="9.01714" height="19.0362" fill="#F0E9D6"/>
<rect x="145.097" y="410.541" width="2.50476" height="3.50667" fill="#646868"/>
<rect x="148.604" y="410.541" width="2.50476" height="3.50667" fill="#646868"/>
<rect x="145.097" y="418.055" width="6.01143" height="3.50667" fill="#646868"/>
<rect x="145.097" y="406.032" width="6.01143" height="2.00381" fill="#646868"/>
<rect x="143.594" y="404.028" width="9.01714" height="1.50286" fill="#A5604A"/>
<rect x="161.628" y="404.028" width="9.01714" height="19.0362" fill="#D59F8F"/>
<rect x="163.131" y="409.038" width="2.50476" height="3.50667" fill="#646868"/>
<rect x="166.638" y="409.038" width="2.50476" height="3.50667" fill="#646868"/>
<rect x="163.131" y="416.552" width="6.01143" height="3.50667" fill="#646868"/>
<rect x="163.131" y="404.529" width="6.01143" height="2.00381" fill="#646868"/>
<rect x="161.628" y="402.525" width="9.01714" height="1.50286" fill="#A5604A"/>
<rect x="258.813" y="405.03" width="9.01714" height="19.0362" fill="#E9CB76"/>
<rect x="260.316" y="410.04" width="2.50476" height="3.50667" fill="#646868"/>
<rect x="263.823" y="410.04" width="2.50476" height="3.50667" fill="#646868"/>
<rect x="260.316" y="417.554" width="6.01143" height="3.50667" fill="#646868"/>
<rect x="260.316" y="405.531" width="6.01143" height="2.00381" fill="#646868"/>
<rect x="258.813" y="403.528" width="9.01714" height="1.50286" fill="#A5604A"/>
<rect x="276.848" y="404.529" width="16.5314" height="19.0362" fill="#D59F8F"/>
<rect x="279.603" y="409.539" width="4.59206" height="3.50667" fill="#646868"/>
<rect x="286.031" y="409.539" width="4.59206" height="3.50667" fill="#646868"/>
<rect x="279.603" y="417.053" width="11.021" height="3.50667" fill="#646868"/>
<rect x="279.603" y="405.03" width="11.021" height="2.00381" fill="#646868"/>
<rect x="276.848" y="403.027" width="16.5314" height="1.50286" fill="#A5604A"/>
<rect x="267.831" y="405.14" width="9.01714" height="20.4291" fill="#D59F8F"/>
<rect x="269.334" y="410.516" width="2.50476" height="3.76325" fill="#646868"/>
<rect x="272.841" y="410.516" width="2.50476" height="3.76325" fill="#646868"/>
<rect x="269.334" y="418.581" width="6.01143" height="3.76325" fill="#646868"/>
<rect x="269.334" y="405.678" width="6.01143" height="2.15043" fill="#646868"/>
<rect x="267.831" y="403.527" width="9.01714" height="1.61282" fill="#A5604A"/>
<rect x="320.431" y="403.638" width="9.01714" height="20.4291" fill="#F0E9D6"/>
<rect x="321.934" y="409.014" width="2.50476" height="3.76325" fill="#646868"/>
<rect x="325.44" y="409.014" width="2.50476" height="3.76325" fill="#646868"/>
<rect x="321.934" y="417.078" width="6.01143" height="3.76325" fill="#646868"/>
<rect x="321.934" y="404.175" width="6.01143" height="2.15043" fill="#646868"/>
<rect x="320.431" y="402.025" width="9.01714" height="1.61282" fill="#A5604A"/>
<rect x="134.577" y="409.038" width="9.01714" height="15.5295" fill="#F0E9D6"/>
<rect x="136.08" y="410.541" width="2.50476" height="3.50667" fill="#646868"/>
<rect x="139.587" y="410.541" width="2.50476" height="3.50667" fill="#646868"/>
<rect x="136.08" y="418.055" width="6.01143" height="3.50667" fill="#646868"/>
<rect x="134.577" y="407.535" width="9.01714" height="1.50286" fill="#A5604A"/>
<rect x="118.547" y="409.539" width="9.01714" height="15.5295" fill="#F0E9D6"/>
<rect x="120.05" y="411.042" width="2.50476" height="3.50667" fill="#646868"/>
<rect x="123.557" y="411.042" width="2.50476" height="3.50667" fill="#646868"/>
<rect x="120.05" y="418.556" width="6.01143" height="3.50667" fill="#646868"/>
<rect x="118.547" y="408.036" width="9.01714" height="1.50286" fill="#A5604A"/>
<rect x="109.529" y="410.04" width="9.01714" height="15.5295" fill="#E9CB76"/>
<rect x="111.032" y="411.543" width="2.50476" height="3.50667" fill="#646868"/>
<rect x="114.539" y="411.543" width="2.50476" height="3.50667" fill="#646868"/>
<rect x="111.032" y="419.057" width="6.01143" height="3.50667" fill="#646868"/>
<rect x="109.529" y="408.537" width="9.01714" height="1.50286" fill="#A5604A"/>
<rect x="152.611" y="409.539" width="9.01714" height="15.5295" fill="#F0E9D6"/>
<rect x="154.114" y="411.042" width="2.50476" height="3.50667" fill="#646868"/>
<rect x="157.621" y="411.042" width="2.50476" height="3.50667" fill="#646868"/>
<rect x="154.114" y="418.556" width="6.01143" height="3.50667" fill="#646868"/>
<rect x="152.611" y="408.036" width="9.01714" height="1.50286" fill="#A5604A"/>
<rect x="311.414" y="408.537" width="9.01714" height="15.5295" fill="#F0E9D6"/>
<rect x="312.917" y="410.04" width="2.50476" height="3.50667" fill="#646868"/>
<rect x="316.424" y="410.04" width="2.50476" height="3.50667" fill="#646868"/>
<rect x="312.917" y="417.554" width="6.01143" height="3.50667" fill="#646868"/>
<rect x="311.414" y="407.034" width="9.01714" height="1.50286" fill="#A5604A"/>
<rect x="329.448" y="409.038" width="9.01714" height="15.5295" fill="#F7E0A0"/>
<rect x="330.951" y="410.541" width="2.50476" height="3.50667" fill="#646868"/>
<rect x="334.458" y="410.541" width="2.50476" height="3.50667" fill="#646868"/>
<rect x="330.951" y="418.055" width="6.01143" height="3.50667" fill="#646868"/>
<rect x="329.448" y="407.535" width="9.01714" height="1.50286" fill="#A5604A"/>
<rect x="187.679" y="405.841" width="10.019" height="18.7268" fill="#F0E9D6"/>
<rect x="189.349" y="407.653" width="2.78307" height="4.22863" fill="#646868"/>
<rect x="193.245" y="407.653" width="2.78307" height="4.22863" fill="#646868"/>
<rect x="189.349" y="416.714" width="6.67937" height="4.22863" fill="#646868"/>
<rect x="187.679" y="404.028" width="10.019" height="1.81227" fill="#A5604A"/>
<rect x="170.646" y="409.539" width="14.0267" height="15.5295" fill="#E9CB76"/>
<rect x="172.983" y="411.042" width="3.8963" height="3.50667" fill="#646868"/>
<rect x="178.438" y="411.042" width="3.8963" height="3.50667" fill="#646868"/>
<rect x="172.983" y="418.556" width="9.35111" height="3.50667" fill="#646868"/>
<rect x="170.646" y="408.036" width="14.0267" height="1.50286" fill="#A5604A"/>
<rect x="293.379" y="409.038" width="18.0343" height="15.5295" fill="#F7E0A0"/>
<rect x="296.385" y="410.541" width="5.00952" height="3.50667" fill="#646868"/>
<rect x="303.398" y="410.541" width="5.00952" height="3.50667" fill="#646868"/>
<rect x="296.385" y="418.055" width="12.0229" height="3.50667" fill="#646868"/>
<rect x="293.379" y="407.535" width="18.0343" height="1.50286" fill="#A5604A"/>
<rect x="249.797" y="411.145" width="9.01714" height="11.4188" fill="#E9CB76"/>
<rect x="251.3" y="412.25" width="2.50476" height="2.57843" fill="#646868"/>
<rect x="254.807" y="412.25" width="2.50476" height="2.57843" fill="#646868"/>
<rect x="251.3" y="417.775" width="6.01143" height="2.57843" fill="#646868"/>
<rect x="249.797" y="410.04" width="9.01714" height="1.10504" fill="#A5604A"/>
<rect x="336.962" y="411.823" width="12.0229" height="13.2458" fill="#F0E9D6"/>
<rect x="338.966" y="413.104" width="3.33968" height="2.99098" fill="#646868"/>
<rect x="343.641" y="413.104" width="3.33968" height="2.99098" fill="#646868"/>
<rect x="338.966" y="419.514" width="8.01524" height="2.99098" fill="#646868"/>
<rect x="336.962" y="410.541" width="12.0229" height="1.28185" fill="#A5604A"/>
</svg>
