<svg width="41" height="43" viewBox="0 0 41 43" fill="none" xmlns="http://www.w3.org/2000/svg">
<g filter="url(#filter0_d_60_209)">
<path fill-rule="evenodd" clip-rule="evenodd" d="M18.5378 28.0068C18.632 27.0301 18.6844 25.9468 18.6844 24.8063C18.6844 20.495 17.9355 17 17.0116 17C16.0878 17 15.3389 20.495 15.3389 24.8063C15.3389 25.5885 15.3635 26.3438 15.4094 27.0563C15.3258 26.9124 15.24 26.7678 15.152 26.6227C13.255 23.495 11.0768 21.3478 10.2868 21.8269C9.49694 22.306 10.3944 25.2299 12.2915 28.3577C14.1885 31.4855 16.3667 33.6327 17.1567 33.1536C17.1783 33.1404 17.1988 33.1254 17.2179 33.1086C18.2041 32.9545 19.9221 31.6004 21.5048 29.6441C23.4737 27.2106 24.4875 24.7667 23.7693 24.1856C23.0511 23.6046 20.8727 25.1063 18.9039 27.5399C18.7779 27.6956 18.6558 27.8514 18.5378 28.0068Z" fill="url(#paint0_linear_60_209)"/>
</g>
<defs>
<filter id="filter0_d_60_209" x="0.465198" y="0.216517" width="39.7607" height="41.9812" filterUnits="userSpaceOnUse" color-interpolation-filters="sRGB">
<feFlood flood-opacity="0" result="BackgroundImageFix"/>
<feColorMatrix in="SourceAlpha" type="matrix" values="0 0 0 0 0 0 0 0 0 0 0 0 0 0 0 0 0 0 127 0" result="hardAlpha"/>
<feOffset dx="3.34554" dy="-3.90314"/>
<feGaussianBlur stdDeviation="6.44017"/>
<feComposite in2="hardAlpha" operator="out"/>
<feColorMatrix type="matrix" values="0 0 0 0 0 0 0 0 0 0 0 0 0 0 0 0 0 0 0.25 0"/>
<feBlend mode="normal" in2="BackgroundImageFix" result="effect1_dropShadow_60_209"/>
<feBlend mode="normal" in="SourceGraphic" in2="effect1_dropShadow_60_209" result="shape"/>
</filter>
<linearGradient id="paint0_linear_60_209" x1="11.4528" y1="19.7034" x2="20.1965" y2="20.8471" gradientUnits="userSpaceOnUse">
<stop stop-color="#AABD83"/>
<stop offset="1" stop-color="#648D13"/>
</linearGradient>
</defs>
</svg>
