<svg width="1502" height="296" viewBox="0 0 1502 296" fill="none" xmlns="http://www.w3.org/2000/svg">
<path d="M0 0H1500V204L422 143.5L0 211V0Z" fill="#CCE0E3"/>
<rect y="157" width="1500" height="139" fill="#615968"/>
<path d="M473.268 227.568C576.95 206.59 550.934 181.382 503.401 136.756C490.627 118.116 305.203 156.932 131.735 158.004C107.571 158.153 30.7495 154.637 9.28469 206.64C1.01358 226.678 9.94501 286.745 126.226 286.964C226.193 287.152 227.263 242.65 286.439 228.722C364.01 210.465 369.585 248.546 473.268 227.568Z" fill="url(#paint0_linear_133_996)"/>
<path fill-rule="evenodd" clip-rule="evenodd" d="M350.505 166H205C205 132.311 237.572 105 277.752 105C317.932 105 350.504 132.311 350.505 166Z" fill="#63A861"/>
<path d="M1000.86 272.622C1064.11 258.893 1116.52 223.962 1091.94 176.039C1039.94 118.539 854.545 141.12 751.354 150.765C648.163 160.41 562.481 185.154 600.974 223.321C642 264 674 279.278 737.588 279.278C797.341 279.278 801.167 242.038 837.424 232.248C884.954 219.415 937.608 286.352 1000.86 272.622Z" fill="#9CD067"/>
<path d="M487 30.1593C512 33.1594 510.113 103.937 557.284 164.863H307C343.257 128.791 359.721 65.7769 372.3 57.9415C384.878 50.106 393.666 112.893 410.5 116.159C435.288 120.969 448.907 25.588 487 30.1593Z" fill="#1B5865"/>
<path d="M479.759 89.0072C469.399 85.252 468.874 68.8438 455 68.8438C457.035 59.7796 471.5 40.1593 481.979 37.9514C495.166 35.1728 498.133 56.2303 504.177 68.8438C508.431 77.7231 519.308 98.8483 510.281 99.7363C498.997 100.846 498.257 82.5327 491.413 79.7579C484.568 76.9832 494.557 94.3717 479.759 89.0072Z" fill="#F5F5F5"/>
<path d="M933 33.1595C958 36.1596 956.113 106.937 1003.28 167.863H753C789.257 131.791 805.721 68.7771 818.3 60.9417C830.878 53.1062 839.666 115.893 856.5 119.16C881.288 123.969 894.907 28.5882 933 33.1595Z" fill="#1B5865"/>
<path fill-rule="evenodd" clip-rule="evenodd" d="M725.75 165C725.75 165 725.75 165 725.75 165C725.75 131.311 702.077 104 672.875 104C643.673 104 620 131.311 620 165C620 165 620 165 620 165H725.75Z" fill="#63A861"/>
<path fill-rule="evenodd" clip-rule="evenodd" d="M404.75 181C404.75 181 404.75 181 404.75 181C404.75 147.311 381.077 120 351.875 120C322.673 120 299 147.311 299 181C299 181 299 181 299 181H404.75Z" fill="#63A861"/>
<path fill-rule="evenodd" clip-rule="evenodd" d="M674.505 182H529C529 148.311 561.572 121 601.752 121C641.932 121 674.504 148.311 674.505 182Z" fill="#63A861"/>
<path d="M829 186.887H694C729.442 143.556 742.392 68 759.567 68C776.742 68 802.419 150.524 829 186.887Z" fill="#0B353E"/>
<path d="M1069.18 183.546H934.18C969.622 140.216 982.572 64.6592 999.747 64.6592C1016.92 64.6592 1042.6 147.183 1069.18 183.546Z" fill="#0B353E"/>
<path d="M1126.18 207.546H991.18C1026.62 164.216 1039.57 88.6594 1056.75 88.6594C1073.92 88.6594 1099.6 171.184 1126.18 207.546Z" fill="#0B353E"/>
<path d="M324.155 203.057H275.628C263.048 197.447 270.375 185.852 281.044 190.34C281.044 190.34 279.155 178.122 288.925 177C292.91 177 301.265 177 299.17 189.218C302.494 182.361 306.275 182.541 311.382 184.605C314.279 185.777 318.066 190.34 314.595 195.702C324.155 189.218 328.864 199.691 324.155 203.057Z" fill="#437D35"/>
<path d="M1000.16 234.057H951.628C939.048 228.447 946.375 216.852 957.044 221.34C957.044 221.34 955.155 209.122 964.925 208C968.91 208 977.265 208 975.17 220.218C978.494 213.361 982.275 213.541 987.382 215.605C990.279 216.777 994.066 221.34 990.595 226.702C1000.16 220.218 1004.86 230.691 1000.16 234.057Z" fill="#437D35"/>
<path d="M972.155 252.057H923.628C911.048 246.447 918.375 234.852 929.044 239.34C929.044 239.34 927.155 227.122 936.925 226C940.91 226 949.265 226 947.17 238.218C950.494 231.361 954.275 231.541 959.382 233.605C962.279 234.777 966.066 239.34 962.595 244.702C972.155 238.218 976.864 248.691 972.155 252.057Z" fill="#437D35"/>
<path fill-rule="evenodd" clip-rule="evenodd" d="M483.823 155L489.498 180.6H488.31L491.23 193.004H489.564L493.996 206.743H474L478.433 193.004H476.638L479.558 180.6H478.149L483.823 155Z" fill="#136753"/>
<path fill-rule="evenodd" clip-rule="evenodd" d="M969.881 141L975.556 166.6H974.368L977.288 179.004H975.622L980.054 192.743H960.058L964.491 179.004H962.696L965.616 166.6H964.207L969.881 141Z" fill="#136753"/>
<path fill-rule="evenodd" clip-rule="evenodd" d="M515.823 139L521.498 164.6H520.31L523.23 177.004H521.564L525.996 190.743H506L510.433 177.004H508.638L511.558 164.6H510.149L515.823 139Z" fill="#136753"/>
<path fill-rule="evenodd" clip-rule="evenodd" d="M986.881 147L992.556 172.6H991.368L994.288 185.004H992.622L997.054 198.743H977.058L981.491 185.004H979.696L982.616 172.6H981.207L986.881 147Z" fill="#136753"/>
<rect x="393.405" y="174.188" width="3.69697" height="21.8121" fill="#6D5249"/>
<path d="M379.029 174.927C376.071 181.767 389.092 181.541 395.192 181.541C402.69 181.541 409.344 179.134 408.975 176.177C408.605 173.219 403.244 175.108 408.975 166.609C414.705 158.11 412.672 156.446 406.757 152.191C404.777 150.767 415.999 140.686 403.429 139.947C399.516 139.716 401.581 134.031 395.192 135.144C386.563 136.647 390.386 140.73 384.286 141.47C378.186 142.209 379.479 148.679 382.437 151.267C385.395 153.855 374.408 159.585 379.029 162.912C383.65 166.239 381.986 168.088 379.029 174.927Z" fill="#7EA755"/>
<rect x="680.527" y="197.188" width="3.69697" height="21.8121" fill="#6D5249"/>
<path d="M666.151 197.927C663.193 204.767 676.214 204.541 682.314 204.541C689.812 204.541 696.466 202.134 696.097 199.177C695.727 196.219 690.366 198.108 696.097 189.609C701.827 181.11 699.794 179.447 693.878 175.191C691.898 173.767 703.121 163.686 690.551 162.947C686.638 162.717 688.703 157.032 682.314 158.144C673.685 159.647 677.507 163.731 671.408 164.47C665.308 165.209 666.601 171.679 669.559 174.267C672.517 176.855 661.53 182.585 666.151 185.912C670.772 189.24 669.108 191.088 666.151 197.927Z" fill="#7EA755"/>
<path fill-rule="evenodd" clip-rule="evenodd" d="M739.538 227.007C739.632 226.03 739.684 224.947 739.684 223.806C739.684 219.495 738.935 216 738.012 216C737.088 216 736.339 219.495 736.339 223.806C736.339 224.589 736.364 225.344 736.409 226.056C736.326 225.913 736.24 225.768 736.152 225.623C734.255 222.495 732.077 220.348 731.287 220.827C730.497 221.306 731.394 224.23 733.291 227.358C735.189 230.486 737.367 232.633 738.157 232.154C738.178 232.141 738.199 232.126 738.218 232.109C739.204 231.955 740.922 230.601 742.505 228.644C744.474 226.211 745.488 223.767 744.769 223.186C744.051 222.605 741.873 224.107 739.904 226.54C739.778 226.696 739.656 226.852 739.538 227.007Z" fill="#7EA755"/>
<path fill-rule="evenodd" clip-rule="evenodd" d="M753.538 240.007C753.632 239.03 753.684 237.947 753.684 236.806C753.684 232.495 752.935 229 752.012 229C751.088 229 750.339 232.495 750.339 236.806C750.339 237.589 750.363 238.344 750.409 239.056C750.326 238.913 750.24 238.768 750.152 238.623C748.255 235.495 746.077 233.348 745.287 233.827C744.497 234.306 745.394 237.23 747.291 240.358C749.188 243.486 751.367 245.633 752.157 245.154C752.178 245.141 752.199 245.126 752.218 245.109C753.204 244.955 754.922 243.601 756.505 241.644C758.474 239.211 759.487 236.767 758.769 236.186C758.051 235.605 755.873 237.107 753.904 239.54C753.778 239.696 753.656 239.852 753.538 240.007Z" fill="#7EA755"/>
<path fill-rule="evenodd" clip-rule="evenodd" d="M763.538 216.007C763.632 215.03 763.685 213.947 763.685 212.806C763.685 208.495 762.936 205 762.012 205C761.088 205 760.339 208.495 760.339 212.806C760.339 213.589 760.364 214.344 760.41 215.056C760.326 214.913 760.24 214.768 760.152 214.623C758.255 211.495 756.077 209.348 755.287 209.827C754.497 210.306 755.395 213.23 757.292 216.358C759.189 219.486 761.367 221.633 762.157 221.154C762.179 221.141 762.199 221.126 762.218 221.109C763.204 220.955 764.922 219.601 766.505 217.644C768.474 215.211 769.488 212.767 768.77 212.186C768.051 211.605 765.873 213.107 763.904 215.54C763.778 215.696 763.656 215.852 763.538 216.007Z" fill="#7EA755"/>
<circle cx="443.132" cy="60.7748" r="6.10939" transform="rotate(-58.6254 443.132 60.7748)" stroke="black" stroke-width="0.8"/>
<circle cx="454.384" cy="42.3237" r="6.10939" transform="rotate(-58.6254 454.384 42.3237)" stroke="black" stroke-width="0.8"/>
<path d="M437.565 49.9073L443.424 40.2987" stroke="black" stroke-width="0.8" stroke-linecap="round"/>
<path d="M437.605 50.0847L443.199 60.8153" stroke="black" stroke-width="0.8" stroke-linecap="round"/>
<path d="M434.592 49.7727L448.647 52.2088" stroke="black" stroke-width="0.8" stroke-linecap="round"/>
<path d="M445.155 40.7076L448.734 52.3436" stroke="black" stroke-width="0.8" stroke-linecap="round"/>
<path d="M440.488 39.6044L454.624 42.4298" stroke="black" stroke-width="0.8" stroke-linecap="round"/>
<path d="M440.606 39.4113L443.662 33.6503" stroke="black" stroke-width="0.8" stroke-linecap="round"/>
<path d="M443.662 33.6509C446.248 34.1607 446.343 36.5057 445.191 38.3953" stroke="black" stroke-width="0.8" stroke-linecap="round"/>
<path d="M432.653 51.0299C432.511 50.9435 432.467 50.7586 432.553 50.617L435.222 46.2409C435.234 46.2211 435.259 46.2149 435.279 46.2269V46.2269C435.873 46.5892 436.061 47.3645 435.699 47.9585L434.03 50.6962C433.742 51.1685 433.125 51.3178 432.653 51.0299V51.0299Z" fill="black"/>
<circle cx="448.419" cy="52.1041" r="1.82263" transform="rotate(-58.6254 448.419 52.1041)" fill="black"/>
<path d="M447.888 51.4765L452.437 52.2682L452.898 50.262" stroke="black" stroke-width="0.8" stroke-linecap="round"/>
<path d="M452.454 50.9438L452.303 51.9238C449.782 51.3694 444.957 49.3202 443.589 48.4862C442.102 47.8477 440.207 47.5856 439.213 47.6046C438.811 47.0915 433.603 49.1865 432.558 45.3329C431.513 41.4794 435.498 38.4599 434.828 37.0684C434.158 35.6769 435.898 33.701 436.658 33.6279C437.417 33.5549 439.017 34.8876 438.758 36.3379C438.499 37.7881 436.653 36.1265 437.522 37.1924C437.78 37.5097 438.359 39.0429 438.866 39.5306C439.372 40.0183 443.064 39.6784 443.367 39.3274C443.671 38.9763 443.011 37.8596 443.3 37.6786C443.59 37.4975 445.159 37.5611 445.13 37.901C445.102 38.241 444.138 39.5291 443.86 39.985C443.582 40.4409 438.94 41.8989 438.6 41.8703C438.26 41.8417 437.539 40.2406 437.185 40.3819C436.831 40.5233 436.407 43.1235 436.562 43.3078C436.718 43.4921 441.818 41.8673 441.736 42.4423C441.653 43.0172 439.79 45.6334 440.343 45.1664C440.895 44.6994 449.497 49.2001 452.454 50.9438Z" fill="#CF8F7B"/>
<path fill-rule="evenodd" clip-rule="evenodd" d="M434.869 37.7192C434.76 38.2032 434.413 38.7951 434.011 39.4799C433.262 40.7575 432.324 42.3586 432.385 44.1856L437.347 43.2128L437.34 43.1794C436.902 43.2905 436.599 43.3517 436.563 43.3079C436.407 43.1236 436.831 40.5234 437.185 40.3821C437.264 40.3507 437.361 40.4053 437.467 40.5095L438.832 39.4967C438.538 39.1912 438.211 38.5661 437.947 38.0337L437.609 37.5777C437.109 36.9039 436.157 36.7631 435.483 37.2632L434.869 37.7192Z" fill="#ECB70C"/>
<ellipse cx="436.07" cy="35.3245" rx="2.13577" ry="1.29672" transform="rotate(-58.6254 436.07 35.3245)" fill="#ECB70C"/>
<path fill-rule="evenodd" clip-rule="evenodd" d="M440.224 42.4279L439.571 47.6093C439.442 47.6045 439.322 47.6032 439.213 47.6053C439.104 47.4653 438.636 47.5195 437.993 47.594C436.279 47.7926 433.318 48.1357 432.558 45.3336C432.446 44.9217 432.392 44.5194 432.383 44.1275L436.53 43.137C436.533 43.2253 436.543 43.2856 436.562 43.3085C436.623 43.3804 437.402 43.1684 438.324 42.9173C438.951 42.7465 439.645 42.5576 440.224 42.4279Z" fill="black"/>
<circle cx="803.641" cy="125.543" r="6.10939" transform="rotate(65.1886 803.641 125.543)" stroke="black" stroke-width="0.8"/>
<circle cx="812.709" cy="145.16" r="6.10939" transform="rotate(65.1886 812.709 145.16)" stroke="black" stroke-width="0.8"/>
<path d="M815.768 126.965L820.491 137.181" stroke="black" stroke-width="0.8" stroke-linecap="round"/>
<path d="M815.599 126.9L803.57 125.576" stroke="black" stroke-width="0.8" stroke-linecap="round"/>
<path d="M817.534 124.57L807.689 134.892" stroke="black" stroke-width="0.8" stroke-linecap="round"/>
<path d="M819.188 138.391L807.528 134.889" stroke="black" stroke-width="0.8" stroke-linecap="round"/>
<path d="M822.701 135.128L812.487 145.3" stroke="black" stroke-width="0.8" stroke-linecap="round"/>
<path d="M822.796 135.333L825.882 141.078" stroke="black" stroke-width="0.8" stroke-linecap="round"/>
<path d="M825.882 141.077C824.019 142.943 822.018 141.716 821.089 139.707" stroke="black" stroke-width="0.8" stroke-linecap="round"/>
<path d="M817.569 122.26C817.719 122.19 817.898 122.256 817.968 122.406L820.118 127.059C820.128 127.08 820.119 127.105 820.098 127.114V127.114C819.466 127.406 818.718 127.131 818.426 126.499L817.08 123.589C816.848 123.087 817.067 122.492 817.569 122.26V122.26Z" fill="black"/>
<circle cx="807.903" cy="134.761" r="1.82263" transform="rotate(65.1886 807.903 134.761)" fill="black"/>
<path d="M808.72 134.669L805.53 138.008L806.94 139.507" stroke="black" stroke-width="0.8" stroke-linecap="round"/>
<path d="M806.621 138.759L805.891 138.088C807.754 136.302 812.142 133.434 813.596 132.761C814.954 131.881 816.226 130.453 816.764 129.616C817.414 129.568 818.572 124.074 822.355 125.351C826.138 126.627 826.429 131.619 827.958 131.836C829.488 132.053 830.16 134.6 829.799 135.271C829.437 135.942 827.439 136.53 826.378 135.508C825.318 134.485 827.725 133.876 826.356 134.005C825.949 134.044 824.353 133.671 823.666 133.82C822.979 133.97 821.207 137.226 821.329 137.674C821.452 138.121 822.747 138.195 822.736 138.536C822.726 138.877 821.8 140.145 821.533 139.932C821.267 139.719 820.733 138.202 820.509 137.717C820.285 137.232 821.656 132.564 821.869 132.298C822.082 132.031 823.814 132.323 823.894 131.95C823.973 131.577 822.049 129.778 821.809 129.805C821.57 129.832 820.081 134.973 819.649 134.585C819.218 134.196 818.081 131.192 818.161 131.911C818.242 132.631 809.715 137.273 806.621 138.759Z" fill="#CF8F7B"/>
<path fill-rule="evenodd" clip-rule="evenodd" d="M827.395 131.508C827.054 131.148 826.755 130.53 826.409 129.815C825.764 128.482 824.956 126.812 823.404 125.846L821.452 130.509L821.483 130.522C821.635 130.096 821.752 129.811 821.809 129.805C822.049 129.778 823.973 131.578 823.893 131.951C823.876 132.033 823.776 132.083 823.63 132.114L823.713 133.811C824.13 133.737 824.832 133.813 825.42 133.891L825.988 133.863C826.826 133.823 827.472 133.11 827.432 132.272L827.395 131.508Z" fill="#F5F5F5"/>
<ellipse cx="828.716" cy="133.839" rx="2.13577" ry="1.29672" transform="rotate(65.1886 828.716 133.839)" fill="#F5F5F5"/>
<path fill-rule="evenodd" clip-rule="evenodd" d="M820.503 133.337L816.561 129.911C816.637 129.806 816.704 129.708 816.763 129.616C816.941 129.603 817.156 129.184 817.452 128.608C818.241 127.074 819.603 124.423 822.354 125.35C822.759 125.487 823.123 125.666 823.454 125.877L821.969 129.873C821.894 129.826 821.838 129.801 821.809 129.805C821.715 129.815 821.458 130.58 821.153 131.486C820.946 132.102 820.717 132.784 820.503 133.337Z" fill="black"/>
<circle cx="824.5" cy="127.5" r="0.5" fill="#CE2B37"/>
<circle cx="823.5" cy="129.5" r="0.5" fill="#CE2B37"/>
<circle cx="825.5" cy="129.5" r="0.5" fill="#CE2B37"/>
<circle cx="825.5" cy="131.5" r="0.5" fill="#CE2B37"/>
<circle cx="824.5" cy="132.5" r="0.5" fill="#CE2B37"/>
<circle cx="826.5" cy="132.5" r="0.5" fill="#CE2B37"/>
<path fill-rule="evenodd" clip-rule="evenodd" d="M951.75 199C951.75 199 951.75 199 951.75 199C951.75 165.311 928.077 138 898.875 138C869.673 138 846 165.311 846 199C846 199 846 199 846 199H951.75Z" fill="#63A861"/>
<rect x="160.052" y="68.222" width="11.1381" height="14.4795" fill="#F0E9D6"/>
<path d="M165.621 53L171.19 68.222H160.052L165.621 53Z" fill="#F0E9D6"/>
<rect x="162.28" y="71.192" width="1.11381" height="10.7668" rx="0.556903" fill="#195959"/>
<rect x="165.251" y="71.192" width="1.11381" height="10.7668" rx="0.556903" fill="#195959"/>
<rect x="168.22" y="71.192" width="1.11381" height="10.7668" rx="0.556903" fill="#195959"/>
<rect x="128.124" y="125.026" width="75.7388" height="51.6063" fill="#F0E9D6"/>
<rect x="155.597" y="126.14" width="1.11381" height="2.59888" rx="0.556903" fill="#646868"/>
<rect x="164.137" y="126.14" width="1.11381" height="2.59888" rx="0.556903" fill="#646868"/>
<rect x="172.676" y="126.14" width="1.11381" height="2.59888" rx="0.556903" fill="#646868"/>
<rect x="158.568" y="126.14" width="1.11381" height="2.59888" rx="0.556903" fill="#646868"/>
<rect x="167.106" y="126.14" width="1.11381" height="2.59888" rx="0.556903" fill="#646868"/>
<rect x="175.646" y="126.14" width="1.11381" height="2.59888" rx="0.556903" fill="#646868"/>
<rect x="161.538" y="126.14" width="1.11381" height="2.59888" rx="0.556903" fill="#646868"/>
<rect x="170.077" y="126.14" width="1.11381" height="2.59888" rx="0.556903" fill="#646868"/>
<rect x="178.616" y="126.14" width="1.11381" height="2.59888" rx="0.556903" fill="#646868"/>
<rect x="129.237" y="133.937" width="24.6276" height="13.3657" fill="#F0E9D6"/>
<rect x="130.804" y="135.254" width="1.72287" height="4.79063" fill="#F0E9D6" stroke="#195959" stroke-width="0.335402"/>
<rect x="130.804" y="141.194" width="1.72287" height="4.79063" fill="#F0E9D6" stroke="#195959" stroke-width="0.335402"/>
<rect x="133.578" y="135.254" width="1.72287" height="4.79063" fill="#F0E9D6" stroke="#195959" stroke-width="0.335402"/>
<rect x="133.578" y="141.194" width="1.72287" height="4.79063" fill="#F0E9D6" stroke="#195959" stroke-width="0.335402"/>
<rect x="136.353" y="135.254" width="1.72287" height="4.79063" fill="#F0E9D6" stroke="#195959" stroke-width="0.335402"/>
<rect x="136.353" y="141.194" width="1.72287" height="4.79063" fill="#F0E9D6" stroke="#195959" stroke-width="0.335402"/>
<rect x="145.372" y="135.254" width="1.72287" height="4.79063" fill="#F0E9D6" stroke="#195959" stroke-width="0.335402"/>
<rect x="145.372" y="141.194" width="1.72287" height="4.79063" fill="#F0E9D6" stroke="#195959" stroke-width="0.335402"/>
<rect x="148.148" y="135.254" width="1.72287" height="4.79063" fill="#F0E9D6" stroke="#195959" stroke-width="0.335402"/>
<rect x="148.148" y="141.194" width="1.72287" height="4.79063" fill="#F0E9D6" stroke="#195959" stroke-width="0.335402"/>
<rect x="150.922" y="135.254" width="1.72287" height="4.79063" fill="#F0E9D6" stroke="#195959" stroke-width="0.335402"/>
<rect x="150.922" y="141.194" width="1.72287" height="4.79063" fill="#F0E9D6" stroke="#195959" stroke-width="0.335402"/>
<path d="M146.592 140.619C146.592 143.531 144.392 145.853 141.724 145.853C139.057 145.853 136.857 143.531 136.857 140.619C136.857 137.707 139.057 135.385 141.724 135.385C144.392 135.385 146.592 137.707 146.592 140.619Z" fill="#F0E9D6" stroke="#195959" stroke-width="0.670804"/>
<ellipse cx="141.724" cy="140.619" rx="2.77494" ry="2.97015" fill="#646868"/>
<rect x="154" y="134" width="24.6276" height="13.3657" fill="#F0E9D6"/>
<rect x="155.567" y="135.318" width="1.72287" height="4.79063" fill="#F0E9D6" stroke="#195959" stroke-width="0.335402"/>
<rect x="155.567" y="141.258" width="1.72287" height="4.79063" fill="#F0E9D6" stroke="#195959" stroke-width="0.335402"/>
<rect x="158.341" y="135.318" width="1.72287" height="4.79063" fill="#F0E9D6" stroke="#195959" stroke-width="0.335402"/>
<rect x="158.341" y="141.258" width="1.72287" height="4.79063" fill="#F0E9D6" stroke="#195959" stroke-width="0.335402"/>
<rect x="161.116" y="135.318" width="1.72287" height="4.79063" fill="#F0E9D6" stroke="#195959" stroke-width="0.335402"/>
<rect x="161.116" y="141.258" width="1.72287" height="4.79063" fill="#F0E9D6" stroke="#195959" stroke-width="0.335402"/>
<rect x="170.135" y="135.318" width="1.72287" height="4.79063" fill="#F0E9D6" stroke="#195959" stroke-width="0.335402"/>
<rect x="170.135" y="141.258" width="1.72287" height="4.79063" fill="#F0E9D6" stroke="#195959" stroke-width="0.335402"/>
<rect x="172.911" y="135.318" width="1.72287" height="4.79063" fill="#F0E9D6" stroke="#195959" stroke-width="0.335402"/>
<rect x="172.911" y="141.258" width="1.72287" height="4.79063" fill="#F0E9D6" stroke="#195959" stroke-width="0.335402"/>
<rect x="175.684" y="135.318" width="1.72287" height="4.79063" fill="#F0E9D6" stroke="#195959" stroke-width="0.335402"/>
<rect x="175.684" y="141.258" width="1.72287" height="4.79063" fill="#F0E9D6" stroke="#195959" stroke-width="0.335402"/>
<path d="M171.355 140.682C171.355 143.595 169.154 145.916 166.487 145.916C163.82 145.916 161.62 143.595 161.62 140.682C161.62 137.77 163.82 135.449 166.487 135.449C169.154 135.449 171.355 137.77 171.355 140.682Z" fill="#F0E9D6" stroke="#195959" stroke-width="0.670804"/>
<ellipse cx="166.487" cy="140.682" rx="2.77494" ry="2.97015" fill="#646868"/>
<rect x="179" y="134" width="24.6276" height="13.3657" fill="#F0E9D6"/>
<rect x="180.567" y="135.318" width="1.72287" height="4.79063" fill="#F0E9D6" stroke="#195959" stroke-width="0.335402"/>
<rect x="180.567" y="141.258" width="1.72287" height="4.79063" fill="#F0E9D6" stroke="#195959" stroke-width="0.335402"/>
<rect x="183.341" y="135.318" width="1.72287" height="4.79063" fill="#F0E9D6" stroke="#195959" stroke-width="0.335402"/>
<rect x="183.341" y="141.258" width="1.72287" height="4.79063" fill="#F0E9D6" stroke="#195959" stroke-width="0.335402"/>
<rect x="186.116" y="135.318" width="1.72287" height="4.79063" fill="#F0E9D6" stroke="#195959" stroke-width="0.335402"/>
<rect x="186.116" y="141.258" width="1.72287" height="4.79063" fill="#F0E9D6" stroke="#195959" stroke-width="0.335402"/>
<rect x="195.135" y="135.318" width="1.72287" height="4.79063" fill="#F0E9D6" stroke="#195959" stroke-width="0.335402"/>
<rect x="195.135" y="141.258" width="1.72287" height="4.79063" fill="#F0E9D6" stroke="#195959" stroke-width="0.335402"/>
<rect x="197.911" y="135.318" width="1.72287" height="4.79063" fill="#F0E9D6" stroke="#195959" stroke-width="0.335402"/>
<rect x="197.911" y="141.258" width="1.72287" height="4.79063" fill="#F0E9D6" stroke="#195959" stroke-width="0.335402"/>
<rect x="200.684" y="135.318" width="1.72287" height="4.79063" fill="#F0E9D6" stroke="#195959" stroke-width="0.335402"/>
<rect x="200.684" y="141.258" width="1.72287" height="4.79063" fill="#F0E9D6" stroke="#195959" stroke-width="0.335402"/>
<path d="M196.355 140.682C196.355 143.595 194.154 145.916 191.487 145.916C188.82 145.916 186.62 143.595 186.62 140.682C186.62 137.77 188.82 135.449 191.487 135.449C194.154 135.449 196.355 137.77 196.355 140.682Z" fill="#F0E9D6" stroke="#195959" stroke-width="0.670804"/>
<ellipse cx="191.487" cy="140.682" rx="2.77494" ry="2.97015" fill="#646868"/>
<path fill-rule="evenodd" clip-rule="evenodd" d="M132.573 161.555V161.432C132.573 161.452 132.573 161.473 132.573 161.493C132.573 161.514 132.573 161.534 132.573 161.555ZM132.579 161.039H156.316C156.115 153.412 150.878 147.302 144.447 147.302C138.016 147.302 132.78 153.412 132.579 161.039Z" fill="#A5604A"/>
<rect x="132.579" y="161.039" width="23.7612" height="15.5933" fill="#F0E9D6"/>
<rect x="136.663" y="161.782" width="1.11381" height="2.59888" rx="0.556903" fill="#195959"/>
<rect x="145.202" y="161.782" width="1.11381" height="2.59888" rx="0.556903" fill="#195959"/>
<rect x="139.633" y="161.782" width="1.11381" height="2.59888" rx="0.556903" fill="#195959"/>
<rect x="148.172" y="161.782" width="1.11381" height="2.59888" rx="0.556903" fill="#195959"/>
<rect x="142.603" y="161.782" width="1.11381" height="2.59888" rx="0.556903" fill="#195959"/>
<rect x="151.142" y="161.782" width="1.11381" height="2.59888" rx="0.556903" fill="#195959"/>
<path fill-rule="evenodd" clip-rule="evenodd" d="M214.982 161.568C214.982 161.543 214.982 161.518 214.982 161.493C214.982 161.468 214.982 161.443 214.982 161.418V161.568ZM214.976 161.039C214.775 153.412 209.538 147.302 203.108 147.302C196.677 147.302 191.44 153.412 191.239 161.039H214.976Z" fill="#A5604A"/>
<rect x="191.239" y="161.039" width="23.7612" height="15.5933" fill="#F0E9D6"/>
<rect x="196.066" y="161.782" width="1.11381" height="2.59888" rx="0.556903" fill="#195959"/>
<rect x="204.605" y="161.782" width="1.11381" height="2.59888" rx="0.556903" fill="#195959"/>
<rect x="199.036" y="161.782" width="1.11381" height="2.59888" rx="0.556903" fill="#195959"/>
<rect x="207.575" y="161.782" width="1.11381" height="2.59888" rx="0.556903" fill="#195959"/>
<rect x="202.006" y="161.782" width="1.11381" height="2.59888" rx="0.556903" fill="#195959"/>
<rect x="210.546" y="161.782" width="1.11381" height="2.59888" rx="0.556903" fill="#195959"/>
<path d="M174.904 147.674L183.814 153.985H165.993L174.904 147.674Z" fill="#A5604A"/>
<rect x="165.993" y="153.985" width="17.8209" height="22.6474" fill="#F0E9D6"/>
<path d="M178.82 158.441V161.614H176.185V158.441C176.185 157.713 176.775 157.123 177.502 157.123C178.23 157.123 178.82 157.713 178.82 158.441Z" fill="#F0E9D6" stroke="#195959" stroke-width="0.335402"/>
<path d="M181.047 169.207V170.153H175.442V169.207C175.442 167.659 176.697 166.405 178.245 166.405C179.792 166.405 181.047 167.659 181.047 169.207Z" fill="#F0E9D6" stroke="#195959" stroke-width="0.335402"/>
<path d="M174.365 169.207V170.153H168.76V169.207C168.76 167.659 170.014 166.405 171.562 166.405C173.11 166.405 174.365 167.659 174.365 169.207Z" fill="#F0E9D6" stroke="#195959" stroke-width="0.335402"/>
<path d="M183.276 158.441V161.614H180.641V158.441C180.641 157.713 181.231 157.123 181.958 157.123C182.686 157.123 183.276 157.713 183.276 158.441Z" fill="#F0E9D6" stroke="#195959" stroke-width="0.335402"/>
<path d="M174.365 158.441V161.614H171.73V158.441C171.73 157.713 172.32 157.123 173.048 157.123C173.775 157.123 174.365 157.713 174.365 158.441Z" fill="#F0E9D6" stroke="#195959" stroke-width="0.335402"/>
<path d="M169.909 158.441V161.614H167.274V158.441C167.274 157.713 167.864 157.123 168.592 157.123C169.319 157.123 169.909 157.713 169.909 158.441Z" fill="#F0E9D6" stroke="#195959" stroke-width="0.335402"/>
<rect x="39.7601" y="147.302" width="88.3619" height="29.3302" fill="#F0E9D6"/>
<path d="M46.7759 138.02H128.122V147.302H39.7601L46.7759 138.02Z" fill="#A5604A"/>
<rect x="126.637" y="166.237" width="0.371269" height="2.59888" rx="0.185634" fill="#195959"/>
<rect x="118.841" y="166.237" width="0.371269" height="2.59888" rx="0.185634" fill="#195959"/>
<rect x="111.044" y="166.237" width="0.371269" height="2.59888" rx="0.185634" fill="#195959"/>
<rect x="103.248" y="166.237" width="0.371269" height="2.59888" rx="0.185634" fill="#195959"/>
<rect x="95.4507" y="166.237" width="0.371269" height="2.59888" rx="0.185634" fill="#195959"/>
<rect x="87.6545" y="166.237" width="0.371269" height="2.59888" rx="0.185634" fill="#195959"/>
<rect x="79.8574" y="166.237" width="0.371269" height="2.59888" rx="0.185634" fill="#195959"/>
<rect x="72.0612" y="166.237" width="0.371269" height="2.59888" rx="0.185634" fill="#195959"/>
<rect x="64.264" y="166.237" width="0.371269" height="2.59888" rx="0.185634" fill="#195959"/>
<rect x="56.4679" y="166.237" width="0.371269" height="2.59888" rx="0.185634" fill="#195959"/>
<rect x="48.6707" y="166.237" width="0.371269" height="2.59888" rx="0.185634" fill="#195959"/>
<rect x="125.524" y="166.237" width="0.371269" height="2.59888" rx="0.185634" fill="#195959"/>
<rect x="117.727" y="166.237" width="0.371269" height="2.59888" rx="0.185634" fill="#195959"/>
<rect x="109.931" y="166.237" width="0.371269" height="2.59888" rx="0.185634" fill="#195959"/>
<rect x="102.133" y="166.237" width="0.371269" height="2.59888" rx="0.185634" fill="#195959"/>
<rect x="94.3373" y="166.237" width="0.371269" height="2.59888" rx="0.185634" fill="#195959"/>
<rect x="86.54" y="166.237" width="0.371269" height="2.59888" rx="0.185634" fill="#195959"/>
<rect x="78.7439" y="166.237" width="0.371269" height="2.59888" rx="0.185634" fill="#195959"/>
<rect x="63.1506" y="166.237" width="0.371269" height="2.59888" rx="0.185634" fill="#195959"/>
<rect x="70.9467" y="166.237" width="0.371269" height="2.59888" rx="0.185634" fill="#195959"/>
<rect x="55.3534" y="166.237" width="0.371269" height="2.59888" rx="0.185634" fill="#195959"/>
<rect x="47.5573" y="166.237" width="0.371269" height="2.59888" rx="0.185634" fill="#195959"/>
<rect x="124.409" y="166.237" width="0.371269" height="2.59888" rx="0.185634" fill="#195959"/>
<rect x="116.613" y="166.237" width="0.371269" height="2.59888" rx="0.185634" fill="#195959"/>
<rect x="108.816" y="166.237" width="0.371269" height="2.59888" rx="0.185634" fill="#195959"/>
<rect x="101.02" y="166.237" width="0.371269" height="2.59888" rx="0.185634" fill="#195959"/>
<rect x="93.2238" y="166.237" width="0.371269" height="2.59888" rx="0.185634" fill="#195959"/>
<rect x="85.4266" y="166.237" width="0.371269" height="2.59888" rx="0.185634" fill="#195959"/>
<rect x="62.0372" y="166.237" width="0.371269" height="2.59888" rx="0.185634" fill="#195959"/>
<rect x="77.6305" y="166.237" width="0.371269" height="2.59888" rx="0.185634" fill="#195959"/>
<rect x="69.8333" y="166.237" width="0.371269" height="2.59888" rx="0.185634" fill="#195959"/>
<rect x="54.24" y="166.237" width="0.371269" height="2.59888" rx="0.185634" fill="#195959"/>
<rect x="46.4438" y="166.237" width="0.371269" height="2.59888" rx="0.185634" fill="#195959"/>
<rect x="123.296" y="166.237" width="0.371269" height="2.59888" rx="0.185634" fill="#195959"/>
<rect x="115.5" y="166.237" width="0.371269" height="2.59888" rx="0.185634" fill="#195959"/>
<rect x="107.703" y="166.237" width="0.371269" height="2.59888" rx="0.185634" fill="#195959"/>
<rect x="99.9065" y="166.237" width="0.371269" height="2.59888" rx="0.185634" fill="#195959"/>
<rect x="92.1093" y="166.237" width="0.371269" height="2.59888" rx="0.185634" fill="#195959"/>
<rect x="60.9227" y="166.237" width="0.371269" height="2.59888" rx="0.185634" fill="#195959"/>
<rect x="84.3132" y="166.237" width="0.371269" height="2.59888" rx="0.185634" fill="#195959"/>
<rect x="76.516" y="166.237" width="0.371269" height="2.59888" rx="0.185634" fill="#195959"/>
<rect x="68.7198" y="166.237" width="0.371269" height="2.59888" rx="0.185634" fill="#195959"/>
<rect x="53.1265" y="166.237" width="0.371269" height="2.59888" rx="0.185634" fill="#195959"/>
<rect x="45.3293" y="166.237" width="0.371269" height="2.59888" rx="0.185634" fill="#195959"/>
<rect x="122.183" y="166.237" width="0.371269" height="2.59888" rx="0.185634" fill="#195959"/>
<rect x="114.385" y="166.237" width="0.371269" height="2.59888" rx="0.185634" fill="#195959"/>
<rect x="106.589" y="166.237" width="0.371269" height="2.59888" rx="0.185634" fill="#195959"/>
<rect x="98.792" y="166.237" width="0.371269" height="2.59888" rx="0.185634" fill="#195959"/>
<rect x="59.8093" y="166.237" width="0.371269" height="2.59888" rx="0.185634" fill="#195959"/>
<rect x="90.9959" y="166.237" width="0.371269" height="2.59888" rx="0.185634" fill="#195959"/>
<rect x="83.1987" y="166.237" width="0.371269" height="2.59888" rx="0.185634" fill="#195959"/>
<rect x="75.4026" y="166.237" width="0.371269" height="2.59888" rx="0.185634" fill="#195959"/>
<rect x="67.6053" y="166.237" width="0.371269" height="2.59888" rx="0.185634" fill="#195959"/>
<rect x="52.012" y="166.237" width="0.371269" height="2.59888" rx="0.185634" fill="#195959"/>
<rect x="44.2159" y="166.237" width="0.371269" height="2.59888" rx="0.185634" fill="#195959"/>
<rect x="121.068" y="166.237" width="0.371269" height="2.59888" rx="0.185634" fill="#195959"/>
<rect x="113.272" y="166.237" width="0.371269" height="2.59888" rx="0.185634" fill="#195959"/>
<rect x="105.475" y="166.237" width="0.371269" height="2.59888" rx="0.185634" fill="#195959"/>
<rect x="58.6958" y="166.237" width="0.371269" height="2.59888" rx="0.185634" fill="#195959"/>
<rect x="97.6786" y="166.237" width="0.371269" height="2.59888" rx="0.185634" fill="#195959"/>
<rect x="89.8814" y="166.237" width="0.371269" height="2.59888" rx="0.185634" fill="#195959"/>
<rect x="82.0853" y="166.237" width="0.371269" height="2.59888" rx="0.185634" fill="#195959"/>
<rect x="74.2881" y="166.237" width="0.371269" height="2.59888" rx="0.185634" fill="#195959"/>
<rect x="66.4919" y="166.237" width="0.371269" height="2.59888" rx="0.185634" fill="#195959"/>
<rect x="50.8986" y="166.237" width="0.371269" height="2.59888" rx="0.185634" fill="#195959"/>
<rect x="43.1025" y="166.237" width="0.371269" height="2.59888" rx="0.185634" fill="#195959"/>
<rect x="119.955" y="166.237" width="0.371269" height="2.59888" rx="0.185634" fill="#195959"/>
<rect x="112.159" y="166.237" width="0.371269" height="2.59888" rx="0.185634" fill="#195959"/>
<rect x="57.5813" y="166.237" width="0.371269" height="2.59888" rx="0.185634" fill="#195959"/>
<rect x="104.361" y="166.237" width="0.371269" height="2.59888" rx="0.185634" fill="#195959"/>
<rect x="96.5652" y="166.237" width="0.371269" height="2.59888" rx="0.185634" fill="#195959"/>
<rect x="88.7679" y="166.237" width="0.371269" height="2.59888" rx="0.185634" fill="#195959"/>
<rect x="80.9719" y="166.237" width="0.371269" height="2.59888" rx="0.185634" fill="#195959"/>
<rect x="73.1746" y="166.237" width="0.371269" height="2.59888" rx="0.185634" fill="#195959"/>
<rect x="65.3785" y="166.237" width="0.371269" height="2.59888" rx="0.185634" fill="#195959"/>
<rect x="49.7852" y="166.237" width="0.371269" height="2.59888" rx="0.185634" fill="#195959"/>
<rect x="41.988" y="166.237" width="0.371269" height="2.59888" rx="0.185634" fill="#195959"/>
<rect x="40.8746" y="166.237" width="0.371269" height="2.59888" rx="0.185634" fill="#195959"/>
<line x1="39.7601" y1="170.896" x2="128.122" y2="170.896" stroke="#195959" stroke-width="0.335402"/>
<line x1="39.7601" y1="173.123" x2="128.122" y2="173.123" stroke="#195959" stroke-width="0.335402"/>
<rect x="104" y="149" width="24.6276" height="13.3657" fill="#F0E9D6"/>
<rect x="105.568" y="150.317" width="1.72287" height="4.79063" fill="#F0E9D6" stroke="#195959" stroke-width="0.335402"/>
<rect x="105.568" y="156.257" width="1.72287" height="4.79063" fill="#F0E9D6" stroke="#195959" stroke-width="0.335402"/>
<rect x="108.341" y="150.317" width="1.72287" height="4.79063" fill="#F0E9D6" stroke="#195959" stroke-width="0.335402"/>
<rect x="108.341" y="156.257" width="1.72287" height="4.79063" fill="#F0E9D6" stroke="#195959" stroke-width="0.335402"/>
<rect x="111.116" y="150.317" width="1.72287" height="4.79063" fill="#F0E9D6" stroke="#195959" stroke-width="0.335402"/>
<rect x="111.116" y="156.257" width="1.72287" height="4.79063" fill="#F0E9D6" stroke="#195959" stroke-width="0.335402"/>
<rect x="120.135" y="150.317" width="1.72287" height="4.79063" fill="#F0E9D6" stroke="#195959" stroke-width="0.335402"/>
<rect x="120.135" y="156.257" width="1.72287" height="4.79063" fill="#F0E9D6" stroke="#195959" stroke-width="0.335402"/>
<rect x="122.911" y="150.317" width="1.72287" height="4.79063" fill="#F0E9D6" stroke="#195959" stroke-width="0.335402"/>
<rect x="122.911" y="156.257" width="1.72287" height="4.79063" fill="#F0E9D6" stroke="#195959" stroke-width="0.335402"/>
<rect x="125.685" y="150.317" width="1.72287" height="4.79063" fill="#F0E9D6" stroke="#195959" stroke-width="0.335402"/>
<rect x="125.685" y="156.257" width="1.72287" height="4.79063" fill="#F0E9D6" stroke="#195959" stroke-width="0.335402"/>
<path d="M121.355 155.682C121.355 158.595 119.155 160.916 116.488 160.916C113.82 160.916 111.62 158.595 111.62 155.682C111.62 152.77 113.82 150.449 116.488 150.449C119.155 150.449 121.355 152.77 121.355 155.682Z" fill="#F0E9D6" stroke="#195959" stroke-width="0.670804"/>
<ellipse cx="116.488" cy="155.682" rx="2.77494" ry="2.97015" fill="#646868"/>
<rect x="53.9998" y="149" width="24.6276" height="13.3657" fill="#F0E9D6"/>
<rect x="55.567" y="150.317" width="1.72287" height="4.79063" fill="#F0E9D6" stroke="#195959" stroke-width="0.335402"/>
<rect x="55.567" y="156.257" width="1.72287" height="4.79063" fill="#F0E9D6" stroke="#195959" stroke-width="0.335402"/>
<rect x="58.3409" y="150.317" width="1.72287" height="4.79063" fill="#F0E9D6" stroke="#195959" stroke-width="0.335402"/>
<rect x="58.3409" y="156.257" width="1.72287" height="4.79063" fill="#F0E9D6" stroke="#195959" stroke-width="0.335402"/>
<rect x="61.1158" y="150.317" width="1.72287" height="4.79063" fill="#F0E9D6" stroke="#195959" stroke-width="0.335402"/>
<rect x="61.1158" y="156.257" width="1.72287" height="4.79063" fill="#F0E9D6" stroke="#195959" stroke-width="0.335402"/>
<rect x="70.1345" y="150.317" width="1.72287" height="4.79063" fill="#F0E9D6" stroke="#195959" stroke-width="0.335402"/>
<rect x="70.1345" y="156.257" width="1.72287" height="4.79063" fill="#F0E9D6" stroke="#195959" stroke-width="0.335402"/>
<rect x="72.9105" y="150.317" width="1.72287" height="4.79063" fill="#F0E9D6" stroke="#195959" stroke-width="0.335402"/>
<rect x="72.9105" y="156.257" width="1.72287" height="4.79063" fill="#F0E9D6" stroke="#195959" stroke-width="0.335402"/>
<rect x="75.6843" y="150.317" width="1.72287" height="4.79063" fill="#F0E9D6" stroke="#195959" stroke-width="0.335402"/>
<rect x="75.6843" y="156.257" width="1.72287" height="4.79063" fill="#F0E9D6" stroke="#195959" stroke-width="0.335402"/>
<path d="M71.3548 155.682C71.3548 158.595 69.1544 160.916 66.4872 160.916C63.82 160.916 61.6196 158.595 61.6196 155.682C61.6196 152.77 63.82 150.449 66.4872 150.449C69.1544 150.449 71.3548 152.77 71.3548 155.682Z" fill="#F0E9D6" stroke="#195959" stroke-width="0.670804"/>
<ellipse cx="66.487" cy="155.682" rx="2.77494" ry="2.97015" fill="#646868"/>
<rect x="79.0003" y="149" width="24.6276" height="13.3657" fill="#F0E9D6"/>
<rect x="80.5675" y="150.317" width="1.72287" height="4.79063" fill="#F0E9D6" stroke="#195959" stroke-width="0.335402"/>
<rect x="80.5675" y="156.257" width="1.72287" height="4.79063" fill="#F0E9D6" stroke="#195959" stroke-width="0.335402"/>
<rect x="83.3414" y="150.317" width="1.72287" height="4.79063" fill="#F0E9D6" stroke="#195959" stroke-width="0.335402"/>
<rect x="83.3414" y="156.257" width="1.72287" height="4.79063" fill="#F0E9D6" stroke="#195959" stroke-width="0.335402"/>
<rect x="86.1163" y="150.317" width="1.72287" height="4.79063" fill="#F0E9D6" stroke="#195959" stroke-width="0.335402"/>
<rect x="86.1163" y="156.257" width="1.72287" height="4.79063" fill="#F0E9D6" stroke="#195959" stroke-width="0.335402"/>
<rect x="95.135" y="150.317" width="1.72287" height="4.79063" fill="#F0E9D6" stroke="#195959" stroke-width="0.335402"/>
<rect x="95.135" y="156.257" width="1.72287" height="4.79063" fill="#F0E9D6" stroke="#195959" stroke-width="0.335402"/>
<rect x="97.911" y="150.317" width="1.72287" height="4.79063" fill="#F0E9D6" stroke="#195959" stroke-width="0.335402"/>
<rect x="97.911" y="156.257" width="1.72287" height="4.79063" fill="#F0E9D6" stroke="#195959" stroke-width="0.335402"/>
<rect x="100.685" y="150.317" width="1.72287" height="4.79063" fill="#F0E9D6" stroke="#195959" stroke-width="0.335402"/>
<rect x="100.685" y="156.257" width="1.72287" height="4.79063" fill="#F0E9D6" stroke="#195959" stroke-width="0.335402"/>
<path d="M96.3553 155.682C96.3553 158.595 94.1549 160.916 91.4877 160.916C88.8205 160.916 86.6201 158.595 86.6201 155.682C86.6201 152.77 88.8205 150.449 91.4877 150.449C94.1549 150.449 96.3553 152.77 96.3553 155.682Z" fill="#F0E9D6" stroke="#195959" stroke-width="0.670804"/>
<ellipse cx="91.4875" cy="155.682" rx="2.77494" ry="2.97015" fill="#646868"/>
<rect x="28.9998" y="149" width="24.6276" height="13.3657" fill="#F0E9D6"/>
<rect x="30.567" y="150.317" width="1.72287" height="4.79063" fill="#F0E9D6" stroke="#195959" stroke-width="0.335402"/>
<rect x="30.567" y="156.257" width="1.72287" height="4.79063" fill="#F0E9D6" stroke="#195959" stroke-width="0.335402"/>
<rect x="33.3409" y="150.317" width="1.72287" height="4.79063" fill="#F0E9D6" stroke="#195959" stroke-width="0.335402"/>
<rect x="33.3409" y="156.257" width="1.72287" height="4.79063" fill="#F0E9D6" stroke="#195959" stroke-width="0.335402"/>
<rect x="36.1158" y="150.317" width="1.72287" height="4.79063" fill="#F0E9D6" stroke="#195959" stroke-width="0.335402"/>
<rect x="36.1158" y="156.257" width="1.72287" height="4.79063" fill="#F0E9D6" stroke="#195959" stroke-width="0.335402"/>
<rect x="45.1345" y="150.317" width="1.72287" height="4.79063" fill="#F0E9D6" stroke="#195959" stroke-width="0.335402"/>
<rect x="45.1345" y="156.257" width="1.72287" height="4.79063" fill="#F0E9D6" stroke="#195959" stroke-width="0.335402"/>
<rect x="47.9105" y="150.317" width="1.72287" height="4.79063" fill="#F0E9D6" stroke="#195959" stroke-width="0.335402"/>
<rect x="47.9105" y="156.257" width="1.72287" height="4.79063" fill="#F0E9D6" stroke="#195959" stroke-width="0.335402"/>
<rect x="50.6843" y="150.317" width="1.72287" height="4.79063" fill="#F0E9D6" stroke="#195959" stroke-width="0.335402"/>
<rect x="50.6843" y="156.257" width="1.72287" height="4.79063" fill="#F0E9D6" stroke="#195959" stroke-width="0.335402"/>
<path d="M46.3548 155.682C46.3548 158.595 44.1544 160.916 41.4872 160.916C38.82 160.916 36.6196 158.595 36.6196 155.682C36.6196 152.77 38.82 150.449 41.4872 150.449C44.1544 150.449 46.3548 152.77 46.3548 155.682Z" fill="#F0E9D6" stroke="#195959" stroke-width="0.670804"/>
<ellipse cx="41.487" cy="155.682" rx="2.77494" ry="2.97015" fill="#646868"/>
<path d="M128.165 147.674L128.165 154.078H118.841L128.165 147.674Z" fill="#A5604A"/>
<rect x="118.883" y="153.986" width="9.28172" height="22.6474" fill="#F0E9D6"/>
<path d="M126.141 169.207V170.153H120.536V169.207C120.536 167.659 121.791 166.405 123.338 166.405C124.886 166.405 126.141 167.659 126.141 169.207Z" stroke="#195959" stroke-width="0.335402"/>
<path d="M126.884 157.698V160.872H124.249V157.698C124.249 156.97 124.839 156.381 125.567 156.381C126.294 156.381 126.884 156.97 126.884 157.698Z" stroke="#195959" stroke-width="0.335402"/>
<path d="M122.428 157.698V160.872H119.793V157.698C119.793 156.97 120.383 156.381 121.111 156.381C121.838 156.381 122.428 156.97 122.428 157.698Z" stroke="#195959" stroke-width="0.335402"/>
<rect x="16" y="90.8696" width="23.7612" height="85.7631" fill="#F0E9D6"/>
<rect x="21.0296" y="130.428" width="12.216" height="17.0425" fill="#F0E9D6" stroke="#195959" stroke-width="0.335402"/>
<rect x="21.0296" y="150.476" width="12.216" height="17.0425" fill="#F0E9D6" stroke="#195959" stroke-width="0.335402"/>
<path d="M21.1973 134.865L24.1674 130.596L27.1376 134.865V147.488H21.1973V134.865Z" fill="#F0E9D6" stroke="#195959" stroke-width="0.335402"/>
<path d="M21.1973 104.782L26.9519 97.1812L32.7066 104.782V127.254H21.1973V104.782Z" fill="#F0E9D6" stroke="#195959" stroke-width="0.335402"/>
<path d="M21.1973 154.913L24.1674 150.644L27.1376 154.913V167.536H21.1973V154.913Z" fill="#F0E9D6" stroke="#195959" stroke-width="0.335402"/>
<path d="M27.1387 134.865L30.1088 130.596L33.079 134.865V147.488H27.1387V134.865Z" fill="#F0E9D6" stroke="#195959" stroke-width="0.335402"/>
<path d="M27.1387 154.913L30.1088 150.644L33.079 154.913V167.536H27.1387V154.913Z" fill="#F0E9D6" stroke="#195959" stroke-width="0.335402"/>
<path d="M32.5389 111.475V127.086H21.365V111.475C21.365 108.389 23.8663 105.888 26.9519 105.888C30.0375 105.888 32.5389 108.389 32.5389 111.475Z" fill="#F0E9D6" stroke="#195959" stroke-width="0.335402"/>
<rect x="23.0546" y="135.422" width="0.742537" height="11.1381" rx="0.371269" fill="#195959"/>
<rect x="23.0547" y="110.176" width="1.48507" height="15.5933" rx="0.742537" fill="#195959"/>
<rect x="26.3959" y="110.176" width="1.11381" height="15.5933" rx="0.556903" fill="#195959"/>
<rect x="29.3654" y="110.176" width="1.48507" height="15.5933" rx="0.742537" fill="#195959"/>
<rect x="23.0546" y="155.47" width="0.742537" height="11.1381" rx="0.371269" fill="#195959"/>
<rect x="24.5388" y="135.422" width="0.742537" height="11.1381" rx="0.371269" fill="#195959"/>
<rect x="24.5388" y="155.47" width="0.742537" height="11.1381" rx="0.371269" fill="#195959"/>
<rect x="28.9946" y="135.422" width="0.742537" height="11.1381" rx="0.371269" fill="#195959"/>
<rect x="28.9946" y="155.47" width="0.742537" height="11.1381" rx="0.371269" fill="#195959"/>
<rect x="30.4799" y="135.422" width="0.742537" height="11.1381" rx="0.371269" fill="#195959"/>
<rect x="30.4799" y="155.47" width="0.742537" height="11.1381" rx="0.371269" fill="#195959"/>
<line x1="27.8447" y1="69.3362" x2="27.8447" y2="85.672" stroke="#195959" stroke-width="0.670804"/>
<path d="M27.8806 85.3008L39.7612 90.8699H16L27.8806 85.3008Z" fill="#A5604A"/>
<mask id="path-321-inside-1_133_996" fill="white">
<path fill-rule="evenodd" clip-rule="evenodd" d="M128.141 125.026H203.842C203.202 100.701 186.501 81.2167 165.991 81.2167C145.482 81.2167 128.781 100.701 128.141 125.026Z"/>
</mask>
<path fill-rule="evenodd" clip-rule="evenodd" d="M128.141 125.026H203.842C203.202 100.701 186.501 81.2167 165.991 81.2167C145.482 81.2167 128.781 100.701 128.141 125.026Z" fill="#A5604A"/>
<path d="M128.141 125.026L125.459 124.956L125.386 127.709H128.141V125.026ZM203.842 125.026V127.709H206.597L206.524 124.955L203.842 125.026ZM128.141 127.709H203.842V122.343H128.141V127.709ZM165.991 83.8999C184.631 83.8999 200.546 101.771 201.16 125.097L206.524 124.955C205.858 99.631 188.37 78.5335 165.991 78.5335V83.8999ZM130.823 125.097C131.437 101.771 147.352 83.8999 165.991 83.8999V78.5335C143.612 78.5335 126.125 99.631 125.459 124.956L130.823 125.097Z" fill="#F0E9D6" mask="url(#path-321-inside-1_133_996)"/>
<path d="M163.765 83.2078C158.382 89.57 154.112 105.349 155.04 122.799" stroke="#F0E9D6" stroke-width="2.34781" stroke-linecap="round"/>
<path d="M170.076 83.0727C175.459 89.4349 179.729 105.214 178.801 122.663" stroke="#F0E9D6" stroke-width="2.34781" stroke-linecap="round"/>
<rect x="127.141" y="211.047" width="2.07061" height="21.3963" rx="1.0353" fill="#6D5249"/>
<path d="M124.991 208.455C124.3 215.012 121.884 219.153 123.609 223.984C127.06 225.365 128.786 226.055 132.237 225.365C134.211 224.97 133.272 212.596 132.237 208.455C131.646 206.087 132.966 199.055 133.272 197.066C133.962 192.58 132.237 182.227 132.237 176.36C132.237 170.494 133.963 168.423 132.237 160.486C130.405 152.055 128.441 149.097 128.096 152.203C127.751 155.309 127.406 170.494 124.991 181.537C122.575 192.58 125.681 201.898 124.991 208.455Z" fill="#437D35"/>
<rect x="152.141" y="223.047" width="2.07061" height="21.3963" rx="1.0353" fill="#6D5249"/>
<path d="M149.991 220.455C149.3 227.012 146.884 231.153 148.609 235.984C152.06 237.365 153.786 238.055 157.237 237.365C159.211 236.97 158.272 224.596 157.237 220.455C156.646 218.087 157.966 211.055 158.272 209.066C158.962 204.58 157.237 194.227 157.237 188.36C157.237 182.494 158.963 180.423 157.237 172.486C155.405 164.055 153.441 161.097 153.096 164.203C152.751 167.309 152.406 182.494 149.991 193.537C147.575 204.58 150.681 213.898 149.991 220.455Z" fill="#437D35"/>
<rect x="175.141" y="238.047" width="2.07061" height="21.3963" rx="1.0353" fill="#6D5249"/>
<path d="M172.991 235.455C172.3 242.012 169.884 246.153 171.609 250.984C175.06 252.365 176.786 253.055 180.237 252.365C182.211 251.97 181.272 239.596 180.237 235.455C179.646 233.087 180.966 226.055 181.272 224.066C181.962 219.58 180.237 209.227 180.237 203.36C180.237 197.494 181.963 195.423 180.237 187.486C178.405 179.055 176.441 176.097 176.096 179.203C175.751 182.309 175.406 197.494 172.991 208.537C170.575 219.58 173.681 228.898 172.991 235.455Z" fill="#437D35"/>
<path d="M1149.31 255.865C1174.07 274.182 1237.11 292.784 1323.65 293.404C1498.75 294.656 1465.25 260.949 1465.25 156.952C1424.75 156.952 1296.36 156.952 1243.25 156.952L1243.25 156.952C1219.11 156.952 1149.31 156.952 1132.25 168.453C1116.16 179.293 1127.7 204.959 1145.36 215.738C1168.5 229.868 1124.56 237.548 1149.31 255.865Z" fill="#F0E9D6"/>
<path d="M1125.42 140.699H1126.93L1127.61 168.666H1124.89L1125.42 140.699Z" fill="#6D5249"/>
<path d="M1128.44 146.769C1128.44 143.613 1128.4 141.964 1126.04 140.781C1125.19 141.462 1122.23 142.241 1122.23 147.081C1119.97 144.356 1120.48 142.176 1122.23 139.91L1122.23 139.909C1121.32 139.694 1118.61 139.052 1117.36 143.137C1116.07 139.336 1118.36 136.862 1122.88 136.826C1122.17 136.121 1120.58 134.998 1117.36 137.113C1118.29 131.663 1125.14 132.703 1126.68 135.5C1128.94 132.452 1132.27 131.986 1135.14 135.249C1133.83 135.38 1129.41 135.55 1128.01 137.472C1129.44 136.79 1134.75 138.009 1135.14 143.137L1135.01 143.038C1131.43 140.4 1130.77 139.91 1128.01 139.91C1131.23 140.745 1132.24 144.33 1128.44 146.769Z" fill="#7EA755"/>
<path d="M1124.42 165.699H1125.93L1126.61 193.666H1123.89L1124.42 165.699Z" fill="#6D5249"/>
<path d="M1127.44 171.769C1127.44 168.613 1127.4 166.964 1125.04 165.781C1124.19 166.462 1121.23 167.241 1121.23 172.081C1118.97 169.356 1119.48 167.176 1121.23 164.91L1121.23 164.909C1120.32 164.694 1117.61 164.052 1116.36 168.137C1115.07 164.336 1117.36 161.862 1121.88 161.826C1121.17 161.121 1119.58 159.998 1116.36 162.113C1117.29 156.663 1124.14 157.703 1125.68 160.5C1127.94 157.452 1131.27 156.986 1134.14 160.249C1132.83 160.38 1128.41 160.55 1127.01 162.472C1128.44 161.79 1133.75 163.009 1134.14 168.137L1134.01 168.038C1130.43 165.4 1129.77 164.91 1127.01 164.91C1130.23 165.745 1131.24 169.33 1127.44 171.769Z" fill="#7EA755"/>
<path d="M1138.42 184.699H1139.93L1140.61 212.666H1137.89L1138.42 184.699Z" fill="#6D5249"/>
<path d="M1141.44 190.769C1141.44 187.613 1141.4 185.964 1139.04 184.781C1138.19 185.462 1135.23 186.241 1135.23 191.081C1132.97 188.356 1133.48 186.176 1135.23 183.91L1135.23 183.909C1134.32 183.694 1131.61 183.052 1130.36 187.137C1129.07 183.336 1131.36 180.862 1135.88 180.826C1135.17 180.121 1133.58 178.998 1130.36 181.113C1131.29 175.663 1138.14 176.703 1139.68 179.5C1141.94 176.452 1145.27 175.986 1148.14 179.249C1146.83 179.38 1142.41 179.55 1141.01 181.472C1142.44 180.79 1147.75 182.009 1148.14 187.137L1148.01 187.038C1144.43 184.4 1143.77 183.91 1141.01 183.91C1144.23 184.745 1145.24 188.33 1141.44 190.769Z" fill="#7EA755"/>
<path d="M1138.42 184.699H1139.93L1140.61 212.666H1137.89L1138.42 184.699Z" fill="#6D5249"/>
<path d="M1141.44 190.769C1141.44 187.613 1141.4 185.964 1139.04 184.781C1138.19 185.462 1135.23 186.241 1135.23 191.081C1132.97 188.356 1133.48 186.176 1135.23 183.91L1135.23 183.909C1134.32 183.694 1131.61 183.052 1130.36 187.137C1129.07 183.336 1131.36 180.862 1135.88 180.826C1135.17 180.121 1133.58 178.998 1130.36 181.113C1131.29 175.663 1138.14 176.703 1139.68 179.5C1141.94 176.452 1145.27 175.986 1148.14 179.249C1146.83 179.38 1142.41 179.55 1141.01 181.472C1142.44 180.79 1147.75 182.009 1148.14 187.137L1148.01 187.038C1144.43 184.4 1143.77 183.91 1141.01 183.91C1144.23 184.745 1145.24 188.33 1141.44 190.769Z" fill="#7EA755"/>
<path d="M1172.07 255.417C1196.82 273.734 1259.87 292.336 1346.41 292.956C1521.5 294.208 1500.5 299.5 1500.5 156.503C1460 156.504 1319.12 156.504 1266 156.504L1266 156.504C1241.86 156.504 1172.07 156.505 1155 168.005C1138.91 178.846 1150.45 204.511 1168.11 215.291C1191.26 229.421 1147.31 237.1 1172.07 255.417Z" fill="#67C9D0"/>
<path d="M1149.42 200.699H1150.93L1151.61 228.666H1148.89L1149.42 200.699Z" fill="#6D5249"/>
<path d="M1152.44 206.769C1152.44 203.613 1152.4 201.964 1150.04 200.781C1149.19 201.462 1146.23 202.241 1146.23 207.081C1143.97 204.356 1144.48 202.176 1146.23 199.91L1146.23 199.909C1145.32 199.694 1142.61 199.052 1141.36 203.137C1140.07 199.336 1142.36 196.862 1146.88 196.826C1146.17 196.121 1144.58 194.998 1141.36 197.113C1142.29 191.663 1149.14 192.703 1150.68 195.5C1152.94 192.452 1156.27 191.986 1159.14 195.249C1157.83 195.38 1153.41 195.55 1152.01 197.472C1153.44 196.79 1158.75 198.009 1159.14 203.137L1159.01 203.038C1155.43 200.4 1154.77 199.91 1152.01 199.91C1155.23 200.745 1156.24 204.33 1152.44 206.769Z" fill="#7EA755"/>
<path d="M1142.42 224.699H1143.93L1144.61 252.666H1141.89L1142.42 224.699Z" fill="#6D5249"/>
<path d="M1145.44 230.769C1145.44 227.613 1145.4 225.964 1143.04 224.781C1142.19 225.462 1139.23 226.241 1139.23 231.081C1136.97 228.356 1137.48 226.176 1139.23 223.91L1139.23 223.909C1138.32 223.694 1135.61 223.052 1134.36 227.137C1133.07 223.336 1135.36 220.862 1139.88 220.826C1139.17 220.121 1137.58 218.998 1134.36 221.113C1135.29 215.663 1142.14 216.703 1143.68 219.5C1145.94 216.452 1149.27 215.986 1152.14 219.249C1150.83 219.38 1146.41 219.55 1145.01 221.472C1146.44 220.79 1151.75 222.009 1152.14 227.137L1152.01 227.038C1148.43 224.4 1147.77 223.91 1145.01 223.91C1148.23 224.745 1149.24 228.33 1145.44 230.769Z" fill="#7EA755"/>
<path d="M1182.62 188.805C1183.06 187.871 1183.77 186.866 1184.9 186.547H1198.68L1197.13 190.55H1182.04C1182.05 190.525 1182.06 190.49 1182.07 190.445C1182.09 190.351 1182.12 190.215 1182.17 190.05C1182.26 189.719 1182.4 189.272 1182.62 188.805Z" fill="#F5F5F5" stroke="#F5F5F5" stroke-width="0.0714927"/>
<rect x="1186.83" y="185.189" width="4.50404" height="2.21627" fill="#F5F5F5" stroke="#F5F5F5" stroke-width="0.0714927"/>
<rect x="1188.33" y="174.036" width="0.214478" height="13.9411" fill="#F5F5F5" stroke="#F5F5F5" stroke-width="0.0714927"/>
<line x1="1184.57" y1="186.846" x2="1188.36" y2="174.192" stroke="#F5F5F5" stroke-width="0.155497"/>
<line x1="1193.65" y1="186.899" x2="1188.36" y2="174.244" stroke="#F5F5F5" stroke-width="0.155497"/>
<path d="M1239 242.783H1247.81V242.783C1247.81 244.137 1246.71 245.234 1245.36 245.234H1241.45C1240.1 245.234 1239 244.137 1239 242.783V242.783Z" fill="#6D5249"/>
<rect x="1241.4" y="240.646" width="0.417111" height="2.60694" fill="#6D5249"/>
<path d="M1239.73 231C1241.82 238.195 1247.14 241.128 1247.14 241.128H1239.73L1239.73 231Z" fill="#F5F5F5"/>
<rect x="373" y="41.4009" width="1.15435" height="15.8185" rx="0.577173" transform="rotate(-1.42499 373 41.4009)" fill="url(#paint1_linear_133_996)"/>
<path fill-rule="evenodd" clip-rule="evenodd" d="M373.918 42.1048V50.9548C374.708 50.7154 376.302 50.4402 378.15 50.2694V41.1648C376.219 41.3802 374.614 41.7694 373.918 42.1048Z" fill="#000091"/>
<path fill-rule="evenodd" clip-rule="evenodd" d="M378.15 50.2694V41.1648C379.589 41.0043 381.209 40.9404 382.768 41.0673V50.1306C381.253 50.0637 379.621 50.1335 378.15 50.2694Z" fill="white"/>
<path fill-rule="evenodd" clip-rule="evenodd" d="M382.767 50.1308V41.0675C384.317 41.1937 385.807 41.5086 387 42.1049V50.9549C385.985 50.4476 384.448 50.205 382.767 50.1308Z" fill="#E1000F"/>
<defs>
<linearGradient id="paint0_linear_133_996" x1="494.221" y1="286.964" x2="57.8295" y2="131.699" gradientUnits="userSpaceOnUse">
<stop stop-color="#95C566"/>
<stop offset="1" stop-color="#ADD683"/>
</linearGradient>
<linearGradient id="paint1_linear_133_996" x1="373.577" y1="41.4009" x2="373.577" y2="57.2194" gradientUnits="userSpaceOnUse">
<stop stop-color="#6D5249"/>
<stop offset="1" stop-color="#935A48"/>
</linearGradient>
</defs>
</svg>
