<svg width="1053" height="297" viewBox="0 0 1053 297" fill="none" xmlns="http://www.w3.org/2000/svg">
<rect y="157" width="1051" height="139" fill="#615968"/>
<path d="M0 0H1051V204L417.692 158.368L0 211V0Z" fill="#CCE0E3"/>
<path d="M278.878 224.853C340.305 204.465 324.114 179.033 294.568 134.001C286.458 115.235 176.636 153 72.9954 153.001C58.5584 153.001 12.5587 149 1.05852 201C-3.3729 221.037 3.4981 281.309 72.9953 282.249C132.743 283.057 132.246 238.449 167.255 224.853C213.147 207.031 217.451 245.241 278.878 224.853Z" fill="#9CD067"/>
<path d="M953.915 278.083C1017.16 264.354 1069.58 229.423 1045 181.5C993 124 807.603 146.581 704.412 156.226C601.221 165.872 508.657 199.126 554.032 228.783C571.209 240.01 621.644 276.402 690.646 284.739C749.967 291.906 754.224 247.5 790.482 237.71C838.012 224.876 890.666 291.813 953.915 278.083Z" fill="#9CD067"/>
<path d="M201.878 30.5001C226.878 33.5002 224.991 104.277 272.162 165.203H21.8777C58.1346 129.131 74.5983 66.1178 87.1772 58.2823C99.7561 50.4468 108.544 113.234 125.378 116.5C150.166 121.31 163.785 25.9288 201.878 30.5001Z" fill="#1B5865"/>
<path d="M194.636 89.3479C184.277 85.5928 183.751 69.1846 169.878 69.1846C171.913 60.1204 186.378 40.5001 196.856 38.2922C210.043 35.5136 213.01 56.5711 219.054 69.1846C223.309 78.0639 234.186 99.1891 225.159 100.077C213.875 101.187 213.135 82.8735 206.29 80.0987C199.446 77.3239 209.435 94.7125 194.636 89.3479Z" fill="#F5F5F5"/>
<path d="M573.058 32.1593C598.058 35.1594 596.171 105.937 643.342 166.863H393.058C429.315 130.791 445.779 67.777 458.358 59.9415C470.937 52.106 479.725 114.893 496.558 118.159C521.346 122.969 534.965 27.588 573.058 32.1593Z" fill="#1B5865"/>
<path fill-rule="evenodd" clip-rule="evenodd" d="M385.628 168C385.628 168 385.628 168 385.628 168C385.628 134.311 361.955 107 332.753 107C303.551 107 279.878 134.311 279.878 168C279.878 168 279.878 168 279.878 168H385.628Z" fill="#AABD83"/>
<path fill-rule="evenodd" clip-rule="evenodd" d="M357.383 177H211.878C211.878 143.311 244.45 116 284.63 116C324.81 116 357.382 143.311 357.383 177Z" fill="#63A861"/>
<path fill-rule="evenodd" clip-rule="evenodd" d="M800.563 177H655.058C655.058 143.311 687.63 116 727.81 116C767.99 116 800.562 143.311 800.563 177Z" fill="#63A861"/>
<path d="M470.878 190H335.878C371.319 146.669 384.27 71.1128 401.445 71.1128C418.62 71.1128 444.297 153.637 470.878 190Z" fill="#0B353E"/>
<path d="M679.058 187.887H544.058C579.5 144.556 592.45 69 609.625 69C626.8 69 652.477 151.524 679.058 187.887Z" fill="#0B353E"/>
<path d="M745.058 211.887H610.058C645.5 168.556 658.45 93 675.625 93C692.8 93 718.477 175.524 745.058 211.887Z" fill="#0B353E"/>
<path d="M322.033 183.057H273.505C260.926 177.447 268.253 165.852 278.922 170.34C278.922 170.34 277.033 158.122 286.803 157C290.788 157 299.143 157 297.047 169.218C300.371 162.361 304.153 162.541 309.26 164.605C312.157 165.777 315.944 170.34 312.473 175.701C322.033 169.218 326.742 179.691 322.033 183.057Z" fill="#437D35"/>
<path d="M903.213 191.057H854.686C842.106 185.447 849.433 173.852 860.102 178.34C860.102 178.34 858.213 166.122 867.983 165C871.968 165 880.323 165 878.228 177.218C881.552 170.361 885.333 170.541 890.44 172.605C893.337 173.777 897.124 178.34 893.653 183.701C903.213 177.218 907.922 187.691 903.213 191.057Z" fill="#437D35"/>
<path d="M875.213 209.057H826.686C814.106 203.447 821.433 191.852 832.102 196.34C832.102 196.34 830.213 184.122 839.983 183C843.968 183 852.323 183 850.228 195.218C853.552 188.361 857.333 188.541 862.44 190.605C865.337 191.777 869.124 196.34 865.653 201.701C875.213 195.218 879.922 205.691 875.213 209.057Z" fill="#437D35"/>
<path fill-rule="evenodd" clip-rule="evenodd" d="M86.7013 125L92.3759 150.6H91.1875L94.1077 163.004H92.4415L96.874 176.743H76.8779L81.3105 163.004H79.516L82.4362 150.6H81.0267L86.7013 125Z" fill="#136753"/>
<path fill-rule="evenodd" clip-rule="evenodd" d="M745.881 141L751.556 166.6H750.368L753.288 179.004H751.622L756.054 192.743H736.058L740.491 179.004H738.696L741.616 166.6H740.207L745.881 141Z" fill="#136753"/>
<path fill-rule="evenodd" clip-rule="evenodd" d="M103.701 131L109.376 156.6H108.188L111.108 169.004H109.441L113.874 182.743H93.8779L98.3105 169.004H96.516L99.4362 156.6H98.0267L103.701 131Z" fill="#136753"/>
<path fill-rule="evenodd" clip-rule="evenodd" d="M762.881 147L768.556 172.6H767.368L770.288 185.004H768.622L773.054 198.743H753.058L757.491 185.004H755.696L758.616 172.6H757.207L762.881 147Z" fill="#136753"/>
<rect x="169.405" y="174.188" width="3.69697" height="21.8121" fill="#6D5249"/>
<path d="M155.029 174.927C152.071 181.767 165.092 181.541 171.192 181.541C178.69 181.541 185.344 179.134 184.975 176.177C184.605 173.219 179.244 175.108 184.975 166.609C190.705 158.11 188.672 156.446 182.757 152.191C180.777 150.767 191.999 140.686 179.429 139.947C175.516 139.716 177.581 134.031 171.192 135.144C162.563 136.647 166.386 140.73 160.286 141.47C154.186 142.209 155.479 148.679 158.437 151.267C161.395 153.855 150.408 159.585 155.029 162.912C159.65 166.239 157.986 168.088 155.029 174.927Z" fill="#7EA755"/>
<rect x="980.585" y="216.188" width="3.69697" height="21.8121" fill="#6D5249"/>
<path d="M966.209 216.927C963.251 223.767 976.272 223.541 982.372 223.541C989.87 223.541 996.524 221.134 996.155 218.177C995.785 215.219 990.424 217.108 996.155 208.609C1001.88 200.11 999.851 198.446 993.936 194.191C991.956 192.767 1003.18 182.686 990.609 181.947C986.696 181.716 988.761 176.031 982.372 177.144C973.743 178.647 977.565 182.73 971.465 183.47C965.366 184.209 966.659 190.679 969.617 193.267C972.575 195.855 961.587 201.585 966.209 204.912C970.83 208.239 969.166 210.088 966.209 216.927Z" fill="#7EA755"/>
<path fill-rule="evenodd" clip-rule="evenodd" d="M98.4157 223.007C98.5099 222.03 98.5623 220.947 98.5623 219.806C98.5623 215.495 97.8134 212 96.8896 212C95.9657 212 95.2168 215.495 95.2168 219.806C95.2168 220.588 95.2414 221.344 95.2873 222.056C95.2037 221.912 95.1179 221.768 95.0299 221.623C93.1329 218.495 90.9547 216.348 90.1648 216.827C89.3749 217.306 90.2724 220.23 92.1694 223.358C94.0665 226.485 96.2447 228.633 97.0346 228.154C97.0563 228.14 97.0767 228.125 97.0958 228.109C98.082 227.955 99.8 226.6 101.383 224.644C103.352 222.211 104.365 219.767 103.647 219.186C102.929 218.605 100.751 220.106 98.7818 222.54C98.6558 222.696 98.5337 222.851 98.4157 223.007Z" fill="#8CA262"/>
<path fill-rule="evenodd" clip-rule="evenodd" d="M913.596 222.007C913.69 221.03 913.742 219.947 913.742 218.806C913.742 214.495 912.993 211 912.07 211C911.146 211 910.397 214.495 910.397 218.806C910.397 219.588 910.421 220.344 910.467 221.056C910.384 220.912 910.298 220.768 910.21 220.623C908.313 217.495 906.135 215.348 905.345 215.827C904.555 216.306 905.452 219.23 907.349 222.358C909.247 225.485 911.425 227.633 912.215 227.154C912.236 227.14 912.257 227.125 912.276 227.109C913.262 226.955 914.98 225.6 916.563 223.644C918.532 221.211 919.545 218.767 918.827 218.186C918.109 217.605 915.931 219.106 913.962 221.54C913.836 221.696 913.714 221.851 913.596 222.007Z" fill="#8CA262"/>
<path fill-rule="evenodd" clip-rule="evenodd" d="M112.416 236.007C112.51 235.03 112.562 233.947 112.562 232.806C112.562 228.495 111.813 225 110.89 225C109.966 225 109.217 228.495 109.217 232.806C109.217 233.588 109.241 234.344 109.287 235.056C109.204 234.912 109.118 234.768 109.03 234.623C107.133 231.495 104.955 229.348 104.165 229.827C103.375 230.306 104.272 233.23 106.169 236.358C108.066 239.485 110.245 241.633 111.035 241.154C111.056 241.14 111.077 241.125 111.096 241.109C112.082 240.955 113.8 239.6 115.383 237.644C117.352 235.211 118.365 232.767 117.647 232.186C116.929 231.605 114.751 233.106 112.782 235.54C112.656 235.696 112.534 235.851 112.416 236.007Z" fill="#8CA262"/>
<path fill-rule="evenodd" clip-rule="evenodd" d="M927.596 235.007C927.69 234.03 927.742 232.947 927.742 231.806C927.742 227.495 926.993 224 926.07 224C925.146 224 924.397 227.495 924.397 231.806C924.397 232.588 924.421 233.344 924.467 234.056C924.384 233.912 924.298 233.768 924.21 233.623C922.313 230.495 920.135 228.348 919.345 228.827C918.555 229.306 919.452 232.23 921.349 235.358C923.247 238.485 925.425 240.633 926.215 240.154C926.236 240.14 926.257 240.125 926.276 240.109C927.262 239.955 928.98 238.6 930.563 236.644C932.532 234.211 933.545 231.767 932.827 231.186C932.109 230.605 929.931 232.106 927.962 234.54C927.836 234.696 927.714 234.851 927.596 235.007Z" fill="#8CA262"/>
<path fill-rule="evenodd" clip-rule="evenodd" d="M122.416 212.007C122.51 211.03 122.562 209.947 122.562 208.806C122.562 204.495 121.813 201 120.89 201C119.966 201 119.217 204.495 119.217 208.806C119.217 209.588 119.241 210.344 119.287 211.056C119.204 210.912 119.118 210.768 119.03 210.623C117.133 207.495 114.955 205.348 114.165 205.827C113.375 206.306 114.272 209.23 116.169 212.358C118.066 215.485 120.245 217.633 121.035 217.154C121.056 217.14 121.077 217.125 121.096 217.109C122.082 216.955 123.8 215.6 125.383 213.644C127.352 211.211 128.365 208.767 127.647 208.186C126.929 207.605 124.751 209.106 122.782 211.54C122.656 211.696 122.534 211.851 122.416 212.007Z" fill="#8CA262"/>
<path fill-rule="evenodd" clip-rule="evenodd" d="M937.596 211.007C937.69 210.03 937.742 208.947 937.742 207.806C937.742 203.495 936.993 200 936.07 200C935.146 200 934.397 203.495 934.397 207.806C934.397 208.588 934.421 209.344 934.467 210.056C934.384 209.912 934.298 209.768 934.21 209.623C932.313 206.495 930.135 204.348 929.345 204.827C928.555 205.306 929.452 208.23 931.349 211.358C933.247 214.485 935.425 216.633 936.215 216.154C936.236 216.14 936.257 216.125 936.276 216.109C937.262 215.955 938.98 214.6 940.563 212.644C942.532 210.211 943.545 207.767 942.827 207.186C942.109 206.605 939.931 208.106 937.962 210.54C937.836 210.696 937.714 210.851 937.596 211.007Z" fill="#8CA262"/>
<circle cx="165.911" cy="51.043" r="4.09209" transform="rotate(-52.8766 165.911 51.043)" stroke="black" stroke-width="0.8"/>
<circle cx="174.912" cy="39.1519" r="4.09209" transform="rotate(-52.8766 174.912 39.1519)" stroke="black" stroke-width="0.8"/>
<path d="M162.839 43.1963L167.526 37.0039" stroke="black" stroke-width="0.8" stroke-linecap="round"/>
<path d="M162.854 43.3208L165.954 51.0754" stroke="black" stroke-width="0.8" stroke-linecap="round"/>
<path d="M160.808 42.8984L170.29 45.5427" stroke="black" stroke-width="0.8" stroke-linecap="round"/>
<path d="M168.687 37.4043L170.34 45.6412" stroke="black" stroke-width="0.8" stroke-linecap="round"/>
<path d="M165.559 36.3242L175.069 39.2413" stroke="black" stroke-width="0.8" stroke-linecap="round"/>
<path d="M165.653 36.1997L168.149 32.4553" stroke="black" stroke-width="0.8" stroke-linecap="round"/>
<path d="M168.149 32.4557C169.89 32.9845 169.793 34.6013 168.871 35.819" stroke="black" stroke-width="0.8" stroke-linecap="round"/>
<path d="M159.389 43.6276C159.298 43.5585 159.28 43.4284 159.349 43.3371L161.484 40.5169C161.493 40.5042 161.512 40.5016 161.524 40.5113V40.5113C161.907 40.8011 161.983 41.3464 161.693 41.7293L160.357 43.4936C160.127 43.798 159.694 43.8579 159.389 43.6276V43.6276Z" fill="black"/>
<circle cx="170.14" cy="45.455" r="1.25778" transform="rotate(-52.8766 170.14 45.455)" fill="black"/>
<path d="M169.819 44.9873L172.888 45.8454L173.343 44.4998" stroke="black" stroke-width="0.8" stroke-linecap="round"/>
<path d="M172.991 44.9373L172.82 45.5998C171.127 45.0448 167.956 43.3042 167.074 42.6371C166.098 42.0959 164.814 41.7849 164.13 41.7292C163.89 41.3491 160.169 42.4276 159.718 39.7094C159.266 36.9912 162.212 35.1935 161.848 34.1917C161.484 33.19 162.816 31.9536 163.342 31.9559C163.868 31.9582 164.874 32.9839 164.596 33.9618C164.318 34.9396 163.166 33.6712 163.689 34.4631C163.845 34.6988 164.136 35.7915 164.45 36.1614C164.764 36.5313 167.322 36.5531 167.555 36.3331C167.787 36.113 167.412 35.3007 167.623 35.1964C167.834 35.092 168.907 35.2441 168.864 35.4756C168.821 35.707 168.07 36.5248 167.847 36.8186C167.625 37.1125 164.337 37.7927 164.106 37.7496C163.875 37.7064 163.49 36.5572 163.237 36.6298C162.984 36.7023 162.513 38.4584 162.607 38.5957C162.701 38.733 166.316 37.97 166.219 38.359C166.123 38.7481 164.663 40.4156 165.074 40.1332C165.486 39.8507 171.081 43.5357 172.991 44.9373Z" fill="#CF8F7B"/>
<path fill-rule="evenodd" clip-rule="evenodd" d="M161.831 34.6407C161.723 34.9656 161.443 35.3482 161.12 35.7909C160.518 36.6163 159.763 37.6506 159.678 38.9091L163.152 38.584L163.15 38.5611C162.841 38.6071 162.63 38.6282 162.607 38.5957C162.513 38.4584 162.984 36.7023 163.237 36.6297C163.293 36.6136 163.356 36.6577 163.422 36.7364L164.429 36.1354C164.249 35.9065 164.069 35.4588 163.925 35.0768C163.48 34.4039 162.58 34.1936 161.88 34.6115L161.831 34.6407Z" fill="#ECB70C"/>
<ellipse cx="162.821" cy="33.0802" rx="1.47388" ry="0.894855" transform="rotate(-52.8766 162.821 33.0802)" fill="#ECB70C"/>
<path fill-rule="evenodd" clip-rule="evenodd" d="M165.182 38.2447L164.376 41.7572C164.288 41.745 164.206 41.7359 164.131 41.7298C164.065 41.626 163.74 41.6309 163.294 41.6376C162.103 41.6555 160.046 41.6865 159.718 39.7099C159.67 39.4194 159.66 39.1393 159.681 38.8696L162.597 38.4762C162.593 38.537 162.596 38.5791 162.607 38.5962C162.644 38.6498 163.194 38.5581 163.844 38.4494C164.286 38.3755 164.776 38.2937 165.182 38.2447Z" fill="black"/>
<path fill-rule="evenodd" clip-rule="evenodd" d="M583.808 204C583.808 204 583.808 204 583.808 204C583.808 170.311 560.135 143 530.933 143C501.731 143 478.058 170.311 478.058 204C478.058 204 478.058 204 478.058 204H583.808Z" fill="#AABD83"/>
</svg>
