<svg width="237" height="479" viewBox="0 0 237 479" fill="none" xmlns="http://www.w3.org/2000/svg">
<path fill-rule="evenodd" clip-rule="evenodd" d="M236.529 354.614H103.53C103.53 323.821 133.303 298.857 170.03 298.857C206.756 298.857 236.529 323.821 236.529 354.614Z" fill="#918390"/>
<path d="M209.41 400.932H173.793C170.8 392.261 180.735 388.57 184.899 392.219C184.899 392.219 184.722 385.823 194.617 385.823C196.916 385.823 203.163 387.669 199.693 394.966C208.239 389.471 210.48 397.727 209.41 400.932Z" fill="#437D35"/>
<path d="M129.347 141.417H93.73C90.7366 132.746 100.671 129.054 104.836 132.703C104.836 132.703 104.658 126.307 114.553 126.307C116.853 126.307 123.1 128.153 119.629 135.45C128.175 129.956 130.417 138.212 129.347 141.417Z" fill="#437D35"/>
<path d="M202.509 235.284H166.892C163.899 226.613 173.833 222.922 177.998 226.57C177.998 226.57 177.821 220.174 187.716 220.174C190.015 220.174 196.262 222.02 192.791 229.317C201.338 223.823 203.579 232.079 202.509 235.284Z" fill="#437D35"/>
<path d="M72.751 199.393H37.1343C34.1409 190.722 44.0754 187.031 48.2401 190.68C48.2401 190.68 48.0627 184.284 57.9577 184.284C60.257 184.284 66.504 186.129 63.0334 193.427C71.5797 187.932 73.8211 196.188 72.751 199.393Z" fill="#437D35"/>
<path d="M139.7 393.34H104.084C101.09 384.669 111.025 380.978 115.189 384.626C115.189 384.626 115.012 378.23 124.907 378.23C127.206 378.23 133.453 380.076 129.983 387.373C138.529 381.879 140.77 390.135 139.7 393.34Z" fill="#437D35"/>
<path d="M212.171 357.449H176.554C173.561 348.779 183.495 345.087 187.66 348.736C187.66 348.736 187.483 342.34 197.378 342.34C199.677 342.34 205.924 344.186 202.453 351.483C211 345.988 213.241 354.244 212.171 357.449Z" fill="#437D35"/>
<path d="M98.9786 471.333H63.3618C60.3685 462.662 70.303 458.97 74.4677 462.619C74.4677 462.619 74.2902 456.223 84.1853 456.223C86.4845 456.223 92.7316 458.069 89.261 465.366C97.8073 459.872 100.049 468.128 98.9786 471.333Z" fill="#437D35"/>
<path fill-rule="evenodd" clip-rule="evenodd" d="M209.611 115.805C209.611 115.805 209.611 115.805 209.611 115.804C209.611 85.0107 179.838 60.0474 143.112 60.0474C106.385 60.0474 76.6123 85.0107 76.6123 115.804C76.6123 115.805 76.6123 115.805 76.6123 115.805H209.611Z" fill="#918390"/>
<rect x="160.127" y="297.477" width="2.07061" height="21.3963" rx="1.0353" fill="#6D5249"/>
<path d="M157.976 294.884C157.286 301.441 154.869 305.582 156.595 310.413C160.046 311.794 161.771 312.484 165.223 311.794C167.196 311.399 166.257 299.025 165.223 294.884C164.631 292.516 165.952 285.485 166.257 283.496C166.947 279.009 165.223 268.656 165.223 262.79C165.223 256.923 166.948 254.852 165.223 246.915C163.39 238.484 161.427 235.527 161.082 238.632C160.736 241.738 160.391 256.923 157.976 267.966C155.561 279.009 158.666 288.327 157.976 294.884Z" fill="#437D35"/>
<rect x="58.667" y="371.329" width="2.07061" height="21.3963" rx="1.0353" fill="#6D5249"/>
<path d="M56.516 368.736C55.8258 375.293 53.4092 379.434 55.1347 384.265C58.5857 385.646 60.3112 386.336 63.7628 385.646C65.736 385.251 64.7975 372.877 63.7628 368.736C63.1713 366.369 64.4918 359.337 64.7975 357.348C65.4871 352.861 63.7628 342.508 63.7628 336.642C63.7628 330.775 65.4883 328.704 63.7628 320.767C61.9301 312.336 59.9667 309.379 59.6216 312.485C59.2765 315.59 58.9314 330.775 56.516 341.818C54.1006 352.861 57.2062 362.179 56.516 368.736Z" fill="#437D35"/>
<rect x="178.072" y="302.309" width="2.07061" height="21.3963" rx="1.0353" fill="#6D5249"/>
<path d="M175.921 299.715C175.231 306.272 172.814 310.414 174.54 315.245C177.991 316.625 179.716 317.316 183.168 316.625C185.141 316.231 184.203 303.857 183.168 299.715C182.577 297.348 183.897 290.316 184.203 288.327C184.892 283.841 183.168 273.488 183.168 267.621C183.168 261.754 184.894 259.684 183.168 251.746C181.335 243.316 179.372 240.358 179.027 243.464C178.682 246.57 178.337 261.754 175.921 272.798C173.506 283.841 176.611 293.159 175.921 299.715Z" fill="#437D35"/>
<rect x="194.637" y="313.351" width="2.07061" height="21.3963" rx="1.0353" fill="#6D5249"/>
<path d="M192.486 310.758C191.796 317.315 189.379 321.457 191.104 326.288C194.555 327.668 196.281 328.359 199.733 327.668C201.706 327.274 200.767 314.9 199.733 310.758C199.141 308.391 200.462 301.359 200.767 299.37C201.457 294.884 199.733 284.531 199.733 278.664C199.733 272.797 201.458 270.727 199.733 262.789C197.9 254.359 195.936 251.401 195.591 254.507C195.246 257.613 194.901 272.797 192.486 283.841C190.07 294.884 193.176 304.202 192.486 310.758Z" fill="#437D35"/>
<rect x="178.072" y="457.604" width="2.07061" height="21.3963" rx="1.0353" fill="#6D5249"/>
<path d="M175.921 455.011C175.231 461.568 172.814 465.709 174.54 470.54C177.991 471.921 179.716 472.611 183.168 471.921C185.141 471.526 184.203 459.152 183.168 455.011C182.577 452.643 183.897 445.611 184.203 443.623C184.892 439.136 183.168 428.783 183.168 422.917C183.168 417.05 184.894 414.979 183.168 407.042C181.335 398.611 179.372 395.654 179.027 398.759C178.682 401.865 178.337 417.05 175.921 428.093C173.506 439.136 176.611 448.454 175.921 455.011Z" fill="#437D35"/>
<rect x="143.562" y="60.0474" width="2.07061" height="21.3963" rx="1.0353" fill="#6D5249"/>
<path d="M141.412 57.4547C140.721 64.0116 138.305 68.1528 140.03 72.9842C143.481 74.3647 145.207 75.0549 148.658 74.3647C150.632 73.9701 149.693 61.596 148.658 57.4547C148.067 55.0873 149.387 48.0553 149.693 46.0664C150.383 41.5801 148.658 31.2271 148.658 25.3604C148.658 19.4936 150.384 17.423 148.658 9.48571C146.826 1.05511 144.862 -1.90261 144.517 1.20329C144.172 4.3092 143.827 19.4936 141.412 30.5369C138.996 41.5801 142.102 50.8978 141.412 57.4547Z" fill="#437D35"/>
<rect x="84.8945" y="162.888" width="2.07061" height="21.3963" rx="1.0353" fill="#6D5249"/>
<path d="M82.7435 160.295C82.0533 166.852 79.6367 170.993 81.3622 175.825C84.8133 177.205 86.5388 177.895 89.9904 177.205C91.9636 176.81 91.0251 164.436 89.9904 160.295C89.3988 157.928 90.7193 150.896 91.0251 148.907C91.7147 144.42 89.9904 134.067 89.9904 128.201C89.9904 122.334 91.7159 120.263 89.9904 112.326C88.1576 103.895 86.1943 100.938 85.8492 104.044C85.5041 107.15 85.1589 122.334 82.7436 133.377C80.3282 144.42 83.4338 153.738 82.7435 160.295Z" fill="#437D35"/>
<rect x="109.052" y="82.1338" width="2.07061" height="21.3963" rx="1.0353" fill="#6D5249"/>
<path d="M106.901 79.5411C106.211 86.0981 103.794 90.2393 105.519 95.0707C108.97 96.4511 110.696 97.1413 114.148 96.4511C116.121 96.0565 115.182 83.6824 114.148 79.5411C113.556 77.1737 114.877 70.1417 115.182 68.1528C115.872 63.6666 114.148 53.3135 114.148 47.4468C114.148 41.5801 115.873 39.5095 114.148 31.5721C112.315 23.1415 110.351 20.1838 110.006 23.2897C109.661 26.3956 109.316 41.5801 106.901 52.6233C104.485 63.6665 107.591 72.9842 106.901 79.5411Z" fill="#437D35"/>
<rect x="127.688" y="66.2593" width="2.07061" height="21.3963" rx="1.0353" fill="#6D5249"/>
<path d="M125.537 63.6666C124.846 70.2235 122.43 74.3648 124.155 79.1962C127.606 80.5766 129.332 81.2668 132.783 80.5766C134.757 80.182 133.818 67.8079 132.783 63.6666C132.192 61.2992 133.512 54.2672 133.818 52.2783C134.508 47.792 132.783 37.439 132.783 31.5723C132.783 25.7056 134.509 23.635 132.783 15.6976C130.951 7.26702 128.987 4.3093 128.642 7.41521C128.297 10.5211 127.952 25.7056 125.537 36.7488C123.121 47.792 126.227 57.1097 125.537 63.6666Z" fill="#437D35"/>
<rect x="48.3145" y="104.911" width="2.07061" height="21.3963" rx="1.0353" fill="#6D5249"/>
<path d="M46.1635 102.318C45.4733 108.875 43.0566 113.016 44.7822 117.848C48.2332 119.228 49.9587 119.918 53.4103 119.228C55.3835 118.833 54.445 106.459 53.4103 102.318C52.8188 99.9505 54.1393 92.9186 54.445 90.9297C55.1346 86.4434 53.4103 76.0904 53.4103 70.2236C53.4103 64.3569 55.1358 62.2863 53.4103 54.349C51.5775 45.9184 49.6142 42.9607 49.2691 46.0666C48.924 49.1725 48.5789 64.3569 46.1635 75.4001C43.7481 86.4434 46.8537 95.7611 46.1635 102.318Z" fill="#437D35"/>
<path fill-rule="evenodd" clip-rule="evenodd" d="M109.183 251.917H0C7.81503e-05 233.624 24.4416 218.794 54.5917 218.794C84.7418 218.794 109.183 233.624 109.183 251.917Z" fill="#918390"/>
<rect x="86.9658" y="282.292" width="2.07061" height="21.3963" rx="1.0353" fill="#6D5249"/>
<path d="M84.8148 279.7C84.1246 286.257 81.708 290.398 83.4335 295.229C86.8845 296.61 88.6101 297.3 92.0617 296.61C94.0349 296.215 93.0964 283.841 92.0617 279.7C91.4701 277.332 92.7906 270.3 93.0964 268.312C93.786 263.825 92.0617 253.472 92.0617 247.605C92.0617 241.739 93.7872 239.668 92.0617 231.731C90.2289 223.3 88.2655 220.343 87.9204 223.448C87.5753 226.554 87.2302 241.739 84.8149 252.782C82.3995 263.825 85.505 273.143 84.8148 279.7Z" fill="#437D35"/>
</svg>
