<svg width="370" height="470" viewBox="0 0 370 470" fill="none" xmlns="http://www.w3.org/2000/svg">
<path d="M337.129 116.314H208.139C242.003 74.9122 254.376 2.71899 270.787 2.71899C287.197 2.71899 311.731 81.5697 337.129 116.314Z" fill="#43686F"/>
<path fill-rule="evenodd" clip-rule="evenodd" d="M262.507 86.9695L268.897 115.797H267.559L270.847 129.765H268.971L273.963 145.236H251.445L256.437 129.765H254.416L257.704 115.797H256.117L262.507 86.9695Z" fill="#136753"/>
<path fill-rule="evenodd" clip-rule="evenodd" d="M120.37 51L126.76 79.8278H125.422L128.71 93.7955H126.834L131.825 109.267H109.308L114.299 93.7955H112.279L115.567 79.8278H113.98L120.37 51Z" fill="#136753"/>
<path fill-rule="evenodd" clip-rule="evenodd" d="M185.37 29L191.76 57.8278H190.422L193.71 71.7955H191.834L196.825 87.2666H174.308L179.299 71.7955H177.279L180.567 57.8278H178.98L185.37 29Z" fill="#136753"/>
<path fill-rule="evenodd" clip-rule="evenodd" d="M134.37 0L140.76 28.8278H139.422L142.71 42.7955H140.834L145.825 58.2666H123.308L128.299 42.7955H126.279L129.567 28.8278H127.98L134.37 0Z" fill="#136753"/>
<path fill-rule="evenodd" clip-rule="evenodd" d="M41.0617 31L47.4517 59.8278H46.1137L49.4021 73.7955H47.5259L52.5173 89.2666H30L34.9914 73.7955H32.9706L36.259 59.8278H34.6716L41.0617 31Z" fill="#136753"/>
<path fill-rule="evenodd" clip-rule="evenodd" d="M358.062 145L364.452 173.828H363.114L366.402 187.795H364.526L369.517 203.267H347L351.991 187.795H349.971L353.259 173.828H351.672L358.062 145Z" fill="#136753"/>
<path d="M208.085 42.1455C217.32 39.6676 234.974 118.359 279.791 176.243H42C76.4472 141.972 92.089 82.1037 104.04 74.6593C115.991 67.215 128.469 138.869 144.463 141.972C168.013 146.542 186.467 47.9454 208.085 42.1455Z" fill="#1B5865"/>
<path fill-rule="evenodd" clip-rule="evenodd" d="M106.604 129.488L112.994 158.316H111.656L114.945 172.284H113.068L118.06 187.755H95.5425L100.534 172.284H98.5131L101.802 158.316H100.214L106.604 129.488Z" fill="#136753"/>
<path d="M217.447 215.525H88.4561C122.32 174.123 134.694 101.93 151.104 101.93C167.515 101.93 192.049 180.78 217.447 215.525Z" fill="#43686F"/>
<path d="M182 372H53C86.8663 330.451 99.241 258 115.653 258C132.065 258 156.6 337.132 182 372Z" fill="#43686F"/>
<path fill-rule="evenodd" clip-rule="evenodd" d="M196.366 201.141L202.756 229.968H201.418L204.707 243.936H202.831L207.822 259.407H185.305L190.296 243.936H188.275L191.564 229.968H189.976L196.366 201.141Z" fill="#136753"/>
<path fill-rule="evenodd" clip-rule="evenodd" d="M318.062 312L324.452 340.828H323.114L326.402 354.795H324.526L329.517 370.267H307L311.991 354.795H309.971L313.259 340.828H311.672L318.062 312Z" fill="#136753"/>
<path fill-rule="evenodd" clip-rule="evenodd" d="M37.0617 240L43.4517 268.828H42.1137L45.4021 282.795H43.5259L48.5173 298.267H26L30.9914 282.795H28.9706L32.259 268.828H30.6716L37.0617 240Z" fill="#136753"/>
<path fill-rule="evenodd" clip-rule="evenodd" d="M109.062 334L115.452 362.828H114.114L117.402 376.795H115.526L120.517 392.267H98L102.991 376.795H100.971L104.259 362.828H102.672L109.062 334Z" fill="#136753"/>
<path d="M128.991 419.595H0C33.8639 378.193 46.2376 306 62.6482 306C79.0588 306 103.593 384.851 128.991 419.595Z" fill="#43686F"/>
<path d="M299.991 397.595H171C204.864 356.193 217.238 284 233.648 284C250.059 284 274.593 362.851 299.991 397.595Z" fill="#43686F"/>
<path d="M292.085 306.057C301.32 303.579 318.974 382.27 363.791 440.155H126C160.447 405.884 176.089 346.015 188.04 338.571C199.991 331.127 212.469 402.78 228.463 405.884C252.013 410.453 270.467 311.857 292.085 306.057Z" fill="#1B5865"/>
<path fill-rule="evenodd" clip-rule="evenodd" d="M42.0617 411L48.4517 439.828H47.1137L50.4021 453.795H48.5259L53.5173 469.267H31L35.9914 453.795H33.9706L37.259 439.828H35.6716L42.0617 411Z" fill="#136753"/>
<path fill-rule="evenodd" clip-rule="evenodd" d="M182.062 398L188.452 426.828H187.114L190.402 440.795H188.526L193.517 456.267H171L175.991 440.795H173.971L177.259 426.828H175.672L182.062 398Z" fill="#136753"/>
</svg>
