<svg width="370" height="470" viewBox="0 0 370 470" fill="none" xmlns="http://www.w3.org/2000/svg">
<path d="M337.129 116.314H208.139C242.003 74.9122 254.376 2.71899 270.787 2.71899C287.197 2.71899 311.731 81.5697 337.129 116.314Z" fill="#43686F"/>
<path fill-rule="evenodd" clip-rule="evenodd" d="M262.507 86.9695L268.897 115.797H267.559L270.847 129.765H268.971L273.963 145.236H251.445L256.437 129.765H254.416L257.704 115.797H256.117L262.507 86.9695Z" fill="#136753"/>
<path fill-rule="evenodd" clip-rule="evenodd" d="M120.37 51L126.76 79.8278H125.422L128.71 93.7955H126.834L131.825 109.267H109.308L114.299 93.7955H112.279L115.567 79.8278H113.98L120.37 51Z" fill="#136753"/>
<path fill-rule="evenodd" clip-rule="evenodd" d="M185.37 29L191.76 57.8278H190.422L193.71 71.7955H191.834L196.825 87.2666H174.308L179.299 71.7955H177.279L180.567 57.8278H178.98L185.37 29Z" fill="#136753"/>
<path fill-rule="evenodd" clip-rule="evenodd" d="M134.37 0L140.76 28.8278H139.422L142.71 42.7955H140.834L145.825 58.2666H123.308L128.299 42.7955H126.279L129.567 28.8278H127.98L134.37 0Z" fill="#136753"/>
<path fill-rule="evenodd" clip-rule="evenodd" d="M41.0617 31L47.4517 59.8278H46.1137L49.4021 73.7955H47.5259L52.5173 89.2666H30L34.9914 73.7955H32.9706L36.259 59.8278H34.6716L41.0617 31Z" fill="#136753"/>
<path fill-rule="evenodd" clip-rule="evenodd" d="M358.062 145L364.452 173.828H363.114L366.402 187.795H364.526L369.517 203.267H347L351.991 187.795H349.971L353.259 173.828H351.672L358.062 145Z" fill="#136753"/>
<path d="M208.085 42.1455C217.32 39.6676 234.974 118.359 279.791 176.243H42C76.4472 141.972 92.089 82.1037 104.04 74.6593C115.991 67.215 128.469 138.869 144.463 141.972C168.013 146.542 186.467 47.9454 208.085 42.1455Z" fill="#1B5865"/>
<path fill-rule="evenodd" clip-rule="evenodd" d="M106.604 129.488L112.994 158.316H111.656L114.945 172.284H113.068L118.06 187.755H95.5425L100.534 172.284H98.5131L101.802 158.316H100.214L106.604 129.488Z" fill="#136753"/>
<path d="M217.447 215.525H88.4561C122.32 174.123 134.694 101.93 151.104 101.93C167.515 101.93 192.049 180.78 217.447 215.525Z" fill="#43686F"/>
<path d="M182 372H53C86.8663 330.451 99.241 258 115.653 258C132.065 258 156.6 337.132 182 372Z" fill="#43686F"/>
<path fill-rule="evenodd" clip-rule="evenodd" d="M196.366 201.141L202.756 229.968H201.418L204.707 243.936H202.831L207.822 259.407H185.305L190.296 243.936H188.275L191.564 229.968H189.976L196.366 201.141Z" fill="#136753"/>
<path fill-rule="evenodd" clip-rule="evenodd" d="M318.062 312L324.452 340.828H323.114L326.402 354.795H324.526L329.517 370.267H307L311.991 354.795H309.971L313.259 340.828H311.672L318.062 312Z" fill="#136753"/>
<path fill-rule="evenodd" clip-rule="evenodd" d="M37.0617 240L43.4517 268.828H42.1137L45.4021 282.795H43.5259L48.5173 298.267H26L30.9914 282.795H28.9706L32.259 268.828H30.6716L37.0617 240Z" fill="#136753"/>
<path fill-rule="evenodd" clip-rule="evenodd" d="M109.062 334L115.452 362.828H114.114L117.402 376.795H115.526L120.517 392.267H98L102.991 376.795H100.971L104.259 362.828H102.672L109.062 334Z" fill="#136753"/>
<path d="M128.991 419.595H0C33.8639 378.193 46.2376 306 62.6482 306C79.0588 306 103.593 384.851 128.991 419.595Z" fill="#43686F"/>
<path d="M299.991 397.595H171C204.864 356.193 217.238 284 233.648 284C250.059 284 274.593 362.851 299.991 397.595Z" fill="#43686F"/>
<path d="M292.085 306.057C301.32 303.579 318.974 382.27 363.791 440.155H126C160.447 405.884 176.089 346.015 188.04 338.571C199.991 331.127 212.469 402.78 228.463 405.884C252.013 410.453 270.467 311.857 292.085 306.057Z" fill="#1B5865"/>
<path fill-rule="evenodd" clip-rule="evenodd" d="M42.0617 411L48.4517 439.828H47.1137L50.4021 453.795H48.5259L53.5173 469.267H31L35.9914 453.795H33.9706L37.259 439.828H35.6716L42.0617 411Z" fill="#136753"/>
<path fill-rule="evenodd" clip-rule="evenodd" d="M182.062 398L188.452 426.828H187.114L190.402 440.795H188.526L193.517 456.267H171L175.991 440.795H173.971L177.259 426.828H175.672L182.062 398Z" fill="#136753"/>
<rect x="149" y="76.6589" width="1.89643" height="25.9875" rx="0.948214" transform="rotate(-1.42499 149 76.6589)" fill="#6D5249"/>
<path fill-rule="evenodd" clip-rule="evenodd" d="M150.508 77.8148V92.3541C151.806 91.9608 154.425 91.5087 157.461 91.2281V76.2705C154.289 76.6243 151.652 77.2639 150.508 77.8148Z" fill="#000091"/>
<path fill-rule="evenodd" clip-rule="evenodd" d="M157.461 91.2284V76.2707C159.825 76.007 162.486 75.902 165.047 76.1106V91.0003C162.558 90.8904 159.878 91.0051 157.461 91.2284Z" fill="white"/>
<path fill-rule="evenodd" clip-rule="evenodd" d="M165.046 91.0006V76.1108C167.593 76.3182 170.04 76.8356 172 77.8152V92.3545C170.333 91.5211 167.808 91.1226 165.046 91.0006Z" fill="#E1000F"/>
<rect x="142" y="157" width="51" height="28" fill="#D9D9D9"/>
<path d="M153.353 176.032L153.545 175.624C153.585 175.512 153.601 175.424 153.593 175.36C153.593 175.296 153.593 175.244 153.593 175.204C153.593 175.164 153.589 175.116 153.581 175.06C153.573 174.996 153.545 174.936 153.497 174.88C153.457 174.816 153.413 174.776 153.365 174.76C153.325 174.736 153.245 174.7 153.125 174.652L152.861 174.64C152.621 174.592 152.417 174.612 152.249 174.7C152.249 174.876 152.205 175.244 152.117 175.804L152.045 176.632L151.985 177.064C152.041 177.064 152.185 177.02 152.417 176.932L152.585 176.788C152.617 176.78 152.717 176.692 152.885 176.524C152.925 176.508 152.969 176.468 153.017 176.404L153.137 176.26C153.161 176.268 153.205 176.228 153.269 176.14L153.353 176.032ZM151.961 179.236L151.985 179.524C152.017 179.596 152.017 179.7 151.985 179.836C151.953 179.972 151.949 180.076 151.973 180.148C151.973 180.284 151.977 180.364 151.985 180.388C152.057 180.388 152.165 180.356 152.309 180.292C152.461 180.228 152.557 180.192 152.597 180.184C152.637 180.176 152.689 180.144 152.753 180.088C152.953 179.984 153.161 179.864 153.377 179.728L153.653 179.476C153.885 179.196 154.045 178.992 154.133 178.864L154.205 178.648C154.309 178.424 154.209 178.212 153.905 178.012C153.841 177.916 153.709 177.852 153.509 177.82H153.497C153.217 177.74 153.053 177.708 153.005 177.724L152.477 177.844C152.381 177.892 152.293 177.916 152.213 177.916C152.141 177.916 152.061 177.88 151.973 177.808L151.985 178.144C151.929 178.296 151.913 178.444 151.937 178.588C151.969 178.732 151.977 178.948 151.961 179.236ZM152.489 181.372H152.381C152.301 181.388 152.145 181.376 151.913 181.336C151.505 181.272 151.177 181.144 150.929 180.952C150.857 180.888 150.773 180.804 150.677 180.7C150.589 180.588 150.545 180.512 150.545 180.472C150.545 180.432 150.545 180.38 150.545 180.316C150.553 180.252 150.549 180.188 150.533 180.124V180.028C150.509 179.98 150.513 179.896 150.545 179.776C150.577 179.648 150.585 179.544 150.569 179.464C150.553 179.36 150.541 179.248 150.533 179.128C150.509 179.096 150.521 179.008 150.569 178.864C150.633 177.784 150.665 177.192 150.665 177.088L150.725 176.728C150.685 176.488 150.693 176.28 150.749 176.104V175.84C150.741 175.728 150.773 175.404 150.845 174.868C150.813 174.772 150.705 174.648 150.521 174.496C150.481 174.456 150.441 174.396 150.401 174.316C150.361 174.228 150.377 174.092 150.449 173.908C150.497 173.844 150.637 173.74 150.869 173.596C150.885 173.548 151.101 173.456 151.517 173.32L151.745 173.224C151.857 173.184 152.081 173.168 152.417 173.176C152.601 173.2 152.749 173.236 152.861 173.284C153.269 173.484 153.645 173.712 153.989 173.968C154.093 174.016 154.165 174.08 154.205 174.16C154.349 174.256 154.481 174.412 154.601 174.628C154.729 174.836 154.801 174.968 154.817 175.024C154.857 175.28 154.817 175.588 154.697 175.948C154.641 176.132 154.377 176.516 153.905 177.1C153.985 177.124 154.121 177.192 154.313 177.304C154.337 177.336 154.421 177.392 154.565 177.472C154.581 177.496 154.601 177.524 154.625 177.556C154.657 177.588 154.681 177.616 154.697 177.64L154.793 177.7L154.913 177.88L155.093 178.036C155.173 178.116 155.237 178.204 155.285 178.3C155.405 178.412 155.469 178.504 155.477 178.576L155.501 178.804C155.493 178.892 155.373 179.18 155.141 179.668C155.053 179.844 154.941 179.98 154.805 180.076L154.625 180.292C154.577 180.356 154.485 180.436 154.349 180.532C154.221 180.628 154.113 180.72 154.025 180.808C153.985 180.824 153.921 180.86 153.833 180.916C153.753 180.972 153.629 181.04 153.461 181.12C153.301 181.2 153.193 181.248 153.137 181.264C152.977 181.312 152.761 181.348 152.489 181.372Z" fill="#0B353E"/>
<path d="M157.942 177.76C157.958 177.744 158.05 177.728 158.218 177.712C158.394 177.688 158.598 177.616 158.83 177.496C158.838 177.496 158.834 177.4 158.818 177.208C158.794 176.872 158.774 176.632 158.758 176.488C158.742 176.296 158.726 176.16 158.71 176.08C158.71 175.928 158.65 175.612 158.53 175.132L158.002 176.92C157.89 177.416 157.846 177.72 157.87 177.832L157.942 177.76ZM156.322 178.108L156.394 177.58C156.394 177.476 156.41 177.372 156.442 177.268C156.442 177.132 156.51 176.928 156.646 176.656C156.646 176.64 156.682 176.536 156.754 176.344C156.754 176.328 156.83 176.092 156.982 175.636L157.126 175.288C157.126 175.256 157.146 175.196 157.186 175.108C157.226 175.012 157.254 174.92 157.27 174.832C157.294 174.736 157.322 174.644 157.354 174.556C157.466 174.34 157.566 174.156 157.654 174.004C157.822 173.684 158.134 173.54 158.59 173.572L158.974 173.608C159.214 173.672 159.398 173.74 159.526 173.812C159.71 173.884 159.834 173.964 159.898 174.052C159.962 174.132 159.99 174.268 159.982 174.46C159.99 174.556 160.014 174.972 160.054 175.708C160.094 176.444 160.114 176.816 160.114 176.824L160.174 177.34C160.174 177.388 160.262 177.964 160.438 179.068L160.702 179.908C160.862 180.356 160.946 180.592 160.954 180.616C160.97 180.632 161.006 180.716 161.062 180.868C161.15 181.132 161.074 181.308 160.834 181.396C160.618 181.428 160.458 181.408 160.354 181.336C160.314 181.336 160.222 181.3 160.078 181.228C160.062 181.188 160.014 181.148 159.934 181.108C159.862 181.076 159.814 181.048 159.79 181.024C159.702 181 159.622 180.876 159.55 180.652C159.526 180.636 159.482 180.572 159.418 180.46C159.362 180.348 159.346 180.256 159.37 180.184C159.314 180.112 159.286 179.964 159.286 179.74C159.214 179.62 159.178 179.432 159.178 179.176C159.178 178.92 159.138 178.72 159.058 178.576C158.65 178.76 158.214 178.86 157.75 178.876C157.662 178.876 157.618 178.892 157.618 178.924C157.618 178.996 157.594 179.124 157.546 179.308L157.342 180.628C157.422 181.22 157.35 181.532 157.126 181.564C157.062 181.564 156.954 181.58 156.802 181.612C156.658 181.644 156.538 181.616 156.442 181.528C156.258 181.424 156.126 181.316 156.046 181.204C155.974 181.1 155.942 180.98 155.95 180.844C155.958 180.732 155.978 180.492 156.01 180.124C156.026 180.108 156.03 180.02 156.022 179.86C156.022 179.692 156.034 179.564 156.058 179.476L156.25 178.732C156.274 178.716 156.306 178.596 156.346 178.372C156.338 178.356 156.334 178.316 156.334 178.252L156.322 178.108Z" fill="#0B353E"/>
<path d="M163.903 175.804C163.847 176.076 163.819 176.312 163.819 176.512C163.803 176.624 163.783 176.7 163.759 176.74C163.743 176.78 163.735 176.872 163.735 177.016C163.735 177.16 163.779 177.244 163.867 177.268C163.955 177.268 164.083 177.22 164.251 177.124L164.503 176.896C164.591 176.824 164.795 176.692 165.115 176.5L165.415 176.212L165.535 176.056L165.583 175.948C165.647 175.844 165.667 175.736 165.643 175.624L165.619 175.42C165.563 175.172 165.523 175.028 165.499 174.988C165.483 174.94 165.455 174.892 165.415 174.844C165.375 174.788 165.331 174.74 165.283 174.7C165.235 174.66 165.207 174.632 165.199 174.616L164.827 174.436C164.819 174.428 164.771 174.416 164.683 174.4C164.547 174.344 164.355 174.336 164.107 174.376L164.035 174.76C164.035 174.808 164.011 174.892 163.963 175.012C163.923 175.132 163.915 175.22 163.939 175.276C163.931 175.3 163.927 175.348 163.927 175.42C163.927 175.484 163.919 175.572 163.903 175.684V175.804ZM163.675 178.132C163.611 178.164 163.571 178.18 163.555 178.18C163.547 178.204 163.543 178.248 163.543 178.312V178.456C163.543 178.512 163.507 178.684 163.435 178.972V179.092C163.435 179.212 163.415 179.308 163.375 179.38L163.327 179.908L163.255 180.208C163.239 180.256 163.235 180.3 163.243 180.34C163.259 180.38 163.271 180.528 163.279 180.784C163.295 181.032 163.287 181.212 163.255 181.324L163.183 181.432C163.023 181.48 162.919 181.492 162.871 181.468C162.823 181.444 162.743 181.428 162.631 181.42C162.519 181.412 162.455 181.404 162.439 181.396C162.431 181.396 162.391 181.38 162.319 181.348C162.255 181.324 162.211 181.304 162.187 181.288C162.171 181.272 162.143 181.248 162.103 181.216C161.999 181.144 161.947 180.988 161.947 180.748C161.931 180.7 161.935 180.644 161.959 180.58C161.911 180.556 161.895 180.492 161.911 180.388C161.935 180.34 161.947 180.264 161.947 180.16C161.947 180.056 161.959 179.972 161.983 179.908V179.716C161.983 179.644 162.011 179.496 162.067 179.272C162.067 179.208 162.079 179.152 162.103 179.104C162.087 179.088 162.107 179.02 162.163 178.9C162.147 178.876 162.167 178.76 162.223 178.552C162.199 178.528 162.195 178.456 162.211 178.336C162.227 178.208 162.247 178.108 162.271 178.036C162.271 177.884 162.283 177.792 162.307 177.76C162.299 177.736 162.287 177.66 162.271 177.532L162.295 177.388C162.295 177.292 162.331 177.144 162.403 176.944C162.467 176.488 162.499 176.24 162.499 176.2C162.611 175.736 162.667 175.448 162.667 175.336C162.691 175.328 162.715 175.252 162.739 175.108C162.763 174.956 162.755 174.848 162.715 174.784C162.355 174.92 162.055 175.08 161.815 175.264C161.655 175.4 161.547 175.452 161.491 175.42C161.379 175.356 161.323 175.264 161.323 175.144L161.275 174.952C161.267 174.944 161.247 174.9 161.215 174.82C161.175 174.732 161.159 174.668 161.167 174.628C161.167 174.588 161.163 174.536 161.155 174.472C161.139 174.4 161.139 174.352 161.155 174.328C161.227 174.192 161.323 174.092 161.443 174.028L161.731 173.824L161.935 173.704C161.951 173.704 162.103 173.62 162.391 173.452C162.407 173.42 162.467 173.392 162.571 173.368C162.675 173.344 162.907 173.272 163.267 173.152C163.507 173.128 163.647 173.116 163.687 173.116C163.943 173.084 164.159 173.108 164.335 173.188C164.455 173.22 164.523 173.236 164.539 173.236C164.563 173.228 164.591 173.228 164.623 173.236C164.663 173.244 164.691 173.248 164.707 173.248C164.707 173.264 164.743 173.272 164.815 173.272L165.043 173.356C165.083 173.356 165.135 173.376 165.199 173.416C165.247 173.408 165.311 173.428 165.391 173.476C165.479 173.516 165.603 173.576 165.763 173.656C165.931 173.736 166.015 173.804 166.015 173.86C166.063 173.876 166.115 173.92 166.171 173.992L166.315 174.136L166.543 174.436C166.559 174.444 166.595 174.484 166.651 174.556C166.731 174.692 166.775 174.772 166.783 174.796C166.791 174.82 166.799 174.844 166.807 174.868C166.815 174.884 166.847 174.952 166.903 175.072C167.015 175.296 167.059 175.492 167.035 175.66C167.035 175.668 166.995 175.792 166.915 176.032C166.771 176.456 166.551 176.792 166.255 177.04C166.191 177.088 166.107 177.152 166.003 177.232C165.899 177.304 165.815 177.368 165.751 177.424C165.447 177.608 165.267 177.724 165.211 177.772C165.163 177.82 165.119 177.86 165.079 177.892L164.947 177.952L164.971 178.024C164.971 177.992 164.991 178.008 165.031 178.072C165.079 178.128 165.111 178.172 165.127 178.204C165.127 178.244 165.167 178.292 165.247 178.348C165.263 178.34 165.283 178.348 165.307 178.372C165.355 178.42 165.379 178.496 165.379 178.6C165.435 178.632 165.519 178.728 165.631 178.888C165.743 178.968 165.839 179.08 165.919 179.224C165.975 179.288 166.019 179.332 166.051 179.356C166.083 179.404 166.147 179.468 166.243 179.548C166.339 179.628 166.403 179.684 166.435 179.716C166.467 179.74 166.503 179.768 166.543 179.8C166.687 179.912 166.787 179.996 166.843 180.052L166.987 180.148C167.283 180.436 167.439 180.592 167.455 180.616C167.447 180.672 167.391 180.756 167.287 180.868C167.279 180.996 167.095 181.104 166.735 181.192C166.615 181.192 166.451 181.136 166.243 181.024C166.035 180.92 165.875 180.808 165.763 180.688C165.411 180.432 165.179 180.232 165.067 180.088C164.739 179.76 164.503 179.444 164.359 179.14C164.327 179.116 164.287 179.076 164.239 179.02C164.199 178.964 164.159 178.92 164.119 178.888L163.963 178.588C163.819 178.388 163.747 178.288 163.747 178.288L163.675 178.132Z" fill="#0B353E"/>
<path d="M170.097 176.152C170.097 176.24 170.077 176.52 170.037 176.992V177.256C169.941 178.464 169.905 179.52 169.929 180.424C170.073 180.384 170.197 180.308 170.301 180.196C170.421 180.092 170.569 179.968 170.745 179.824L170.913 179.644C170.953 179.636 171.057 179.54 171.225 179.356V179.344C171.241 179.296 171.309 179.196 171.429 179.044L171.561 178.768L171.645 178.528C171.709 178.44 171.785 178.228 171.873 177.892L171.945 177.4V177.076C171.945 177.012 171.953 176.932 171.969 176.836C171.969 176.684 171.957 176.568 171.933 176.488C171.877 175.752 171.609 175.264 171.129 175.024C170.937 174.912 170.737 174.888 170.529 174.952C170.441 174.952 170.305 175.008 170.121 175.12C170.129 175.232 170.133 175.42 170.133 175.684L170.097 176.152ZM168.501 180.364L168.429 179.548L168.477 178.912C168.477 178.768 168.493 178.588 168.525 178.372C168.501 178.34 168.497 178.16 168.513 177.832C168.545 177.776 168.561 177.716 168.561 177.652C168.529 177.068 168.521 176.748 168.537 176.692C168.561 176.628 168.561 176.524 168.537 176.38C168.553 176.364 168.573 176.28 168.597 176.128C168.629 175.976 168.641 175.872 168.633 175.816C168.361 175.832 168.157 175.764 168.021 175.612C167.885 175.46 167.765 175.24 167.661 174.952C167.685 174.76 167.721 174.632 167.769 174.568C167.825 174.496 167.861 174.452 167.877 174.436C167.893 174.412 167.929 174.376 167.985 174.328C168.049 174.28 168.089 174.252 168.105 174.244C168.129 174.228 168.185 174.192 168.273 174.136C168.361 174.072 168.417 174.032 168.441 174.016C168.465 173.976 168.529 173.944 168.633 173.92C168.737 173.888 168.885 173.828 169.077 173.74C169.109 173.708 169.245 173.656 169.485 173.584C169.957 173.488 170.345 173.5 170.649 173.62C170.817 173.596 170.949 173.604 171.045 173.644C171.117 173.708 171.233 173.76 171.393 173.8L172.005 174.1C172.133 174.228 172.321 174.428 172.569 174.7C172.865 175.172 173.069 175.7 173.181 176.284C173.205 176.436 173.217 176.704 173.217 177.088C173.193 177.616 173.121 178.048 173.001 178.384C172.985 178.48 172.949 178.58 172.893 178.684C172.877 178.788 172.833 178.912 172.761 179.056C172.761 179.096 172.677 179.256 172.509 179.536C172.325 179.816 172.161 180.052 172.017 180.244C171.777 180.468 171.637 180.604 171.597 180.652C171.557 180.7 171.521 180.74 171.489 180.772L171.273 180.928L170.277 181.48C170.205 181.536 170.093 181.58 169.941 181.612C169.709 181.636 169.565 181.628 169.509 181.588C169.397 181.556 169.277 181.476 169.149 181.348C169.109 181.34 169.041 181.276 168.945 181.156C168.937 181.148 168.905 181.128 168.849 181.096C168.793 181.064 168.753 181.036 168.729 181.012C168.633 180.876 168.557 180.66 168.501 180.364Z" fill="#0B353E"/>
<path d="M176.388 173.572L176.604 173.476C176.628 173.476 176.664 173.464 176.712 173.44C176.888 173.36 177.116 173.3 177.396 173.26C177.444 173.196 177.536 173.216 177.672 173.32C177.736 173.352 177.776 173.368 177.792 173.368C177.816 173.368 177.852 173.4 177.9 173.464C177.956 173.52 177.992 173.568 178.008 173.608L178.14 173.716C178.236 173.772 178.292 173.82 178.308 173.86C178.324 173.892 178.324 173.956 178.308 174.052C178.3 174.14 178.264 174.224 178.2 174.304C178.144 174.376 178.084 174.424 178.02 174.448C177.748 174.552 177.564 174.604 177.468 174.604C177.372 174.604 177.256 174.644 177.12 174.724C176.984 174.804 176.872 174.852 176.784 174.868C176.696 174.884 176.628 174.904 176.58 174.928C176.54 174.952 176.48 174.992 176.4 175.048C176.208 175.16 176.02 175.232 175.836 175.264C175.852 175.264 175.844 175.304 175.812 175.384C175.78 175.464 175.752 175.572 175.728 175.708C175.704 175.836 175.66 175.988 175.596 176.164L175.452 176.812C175.42 176.956 175.416 177.028 175.44 177.028C175.464 177.028 175.484 177.012 175.5 176.98C175.94 176.804 176.2 176.672 176.28 176.584C176.368 176.488 176.496 176.448 176.664 176.464L176.808 176.428C176.832 176.404 176.884 176.392 176.964 176.392C177.108 176.352 177.296 176.448 177.528 176.68L177.492 176.812C177.452 176.892 177.388 176.98 177.3 177.076C177.212 177.172 177.14 177.232 177.084 177.256C177.036 177.28 177 177.3 176.976 177.316C176.952 177.324 176.936 177.328 176.928 177.328H176.904C176.856 177.376 176.804 177.416 176.748 177.448C176.684 177.512 176.62 177.56 176.556 177.592C176.492 177.624 176.432 177.66 176.376 177.7C176.32 177.732 176.276 177.756 176.244 177.772C176.22 177.788 176.188 177.808 176.148 177.832C176.108 177.856 176.06 177.884 176.004 177.916C175.956 177.948 175.924 177.964 175.908 177.964C175.892 177.964 175.804 178.036 175.644 178.18C175.596 178.18 175.528 178.16 175.44 178.12C175.352 178.072 175.288 178.024 175.248 177.976C175.2 177.976 175.192 178.084 175.224 178.3C175.224 178.34 175.208 178.44 175.176 178.6C175.144 178.896 175.14 179.192 175.164 179.488C175.188 179.784 175.224 179.964 175.272 180.028C175.32 180.092 175.372 180.124 175.428 180.124C175.548 180.1 175.64 180.068 175.704 180.028C175.768 179.98 175.828 179.952 175.884 179.944C175.94 179.936 176 179.904 176.064 179.848C176.136 179.792 176.188 179.764 176.22 179.764C176.26 179.764 176.376 179.668 176.568 179.476C176.592 179.436 176.644 179.396 176.724 179.356C176.812 179.308 176.856 179.272 176.856 179.248C176.872 179.216 176.928 179.172 177.024 179.116C177.128 179.052 177.248 179.012 177.384 178.996C177.528 178.972 177.636 178.98 177.708 179.02C177.836 179.092 177.992 179.22 178.176 179.404C178.216 179.468 178.212 179.608 178.164 179.824C178.124 180.032 178.056 180.184 177.96 180.28L177.852 180.388C177.716 180.548 177.516 180.716 177.252 180.892C177.044 181.004 176.936 181.06 176.928 181.06C176.88 181.1 176.852 181.124 176.844 181.132C176.804 181.204 176.768 181.232 176.736 181.216C176.712 181.2 176.64 181.2 176.52 181.216C176.408 181.232 176.308 181.232 176.22 181.216C176.172 181.192 176.112 181.18 176.04 181.18C175.968 181.22 175.7 181.084 175.236 180.772C175.172 180.724 175.128 180.7 175.104 180.7C175.08 180.7 175.028 180.692 174.948 180.676C174.884 180.644 174.808 180.608 174.72 180.568C174.456 180.416 174.3 180.312 174.252 180.256C174.204 180.2 174.148 180.152 174.084 180.112C174.02 180.072 173.984 180.028 173.976 179.98C173.968 179.932 173.944 179.88 173.904 179.824C173.904 179.808 173.88 179.736 173.832 179.608C173.768 179.504 173.748 179.428 173.772 179.38C173.78 179.332 173.776 179.296 173.76 179.272C173.744 179.24 173.728 179.008 173.712 178.576C173.696 178.136 173.704 177.896 173.736 177.856C173.768 177.816 173.784 177.72 173.784 177.568C173.768 177.424 173.788 177.316 173.844 177.244C173.908 177.172 173.936 177.08 173.928 176.968C173.92 176.848 173.932 176.756 173.964 176.692C173.996 176.66 174.024 176.536 174.048 176.32L174.096 176.104C174.192 175.912 174.24 175.784 174.24 175.72C174.24 175.648 174.256 175.564 174.288 175.468C174.296 175.452 174.344 175.316 174.432 175.06L174.516 174.892L174.552 174.748C174.752 174.34 174.876 174.104 174.924 174.04C174.924 174.008 174.976 173.86 175.08 173.596C175.072 173.476 175.136 173.392 175.272 173.344C175.408 173.288 175.532 173.292 175.644 173.356C175.764 173.42 175.836 173.464 175.86 173.488C175.884 173.512 175.932 173.544 176.004 173.584C176.028 173.624 176.156 173.62 176.388 173.572Z" fill="#0B353E"/>
<path d="M182.344 174.508C182.328 174.652 182.32 174.8 182.32 174.952C182.32 175.24 182.304 175.5 182.272 175.732C182.24 175.964 182.22 176.124 182.212 176.212C182.204 176.292 182.192 176.372 182.176 176.452V176.536C182.176 176.68 182.144 176.824 182.08 176.968L182.044 177.508L181.996 178.648V179.248C181.996 179.552 181.98 179.716 181.948 179.74L181.96 180.052V180.184L181.948 180.328C181.948 180.36 181.94 180.376 181.924 180.376C181.94 180.472 181.9 180.576 181.804 180.688C181.716 180.792 181.604 180.86 181.468 180.892L181.252 180.928C181.22 180.928 181.176 180.932 181.12 180.94C181.064 180.94 181.016 180.932 180.976 180.916C180.936 180.9 180.896 180.88 180.856 180.856C180.776 180.808 180.72 180.716 180.688 180.58C180.664 180.54 180.616 180.296 180.544 179.848C180.544 179.752 180.536 179.632 180.52 179.488L180.556 179.2V178.972C180.556 178.828 180.572 178.728 180.604 178.672C180.572 178.624 180.592 178.52 180.664 178.36C180.608 178.288 180.612 178.128 180.676 177.88C180.644 177.776 180.644 177.708 180.676 177.676C180.692 177.628 180.7 177.516 180.7 177.34L180.712 177.22C180.712 176.988 180.736 176.776 180.784 176.584C180.768 176.56 180.768 176.496 180.784 176.392C180.8 176.288 180.812 176.164 180.82 176.02V175.936C180.828 175.816 180.832 175.688 180.832 175.552L180.844 175.444C180.844 175.396 180.852 175.3 180.868 175.156C180.892 175.012 180.912 174.86 180.928 174.7H180.904C180.056 174.932 179.536 175.048 179.344 175.048L179.14 175.06C179.02 175.06 178.896 175.04 178.768 175C178.704 174.968 178.656 174.884 178.624 174.748C178.624 174.484 178.68 174.292 178.792 174.172C178.912 174.052 179.132 173.94 179.452 173.836C179.532 173.828 180.028 173.66 180.94 173.332L181.456 173.212C181.552 173.18 181.704 173.164 181.912 173.164C182.12 173.164 182.292 173.14 182.428 173.092C182.572 173.036 182.728 172.996 182.896 172.972C183.064 172.94 183.24 172.908 183.424 172.876C183.512 172.844 183.672 172.852 183.904 172.9C183.992 172.9 184.132 172.992 184.324 173.176L184.396 173.344C184.396 173.392 184.408 173.428 184.432 173.452C184.464 173.668 184.416 173.808 184.288 173.872C184.24 173.896 184.156 173.928 184.036 173.968C183.876 173.968 183.476 174.048 182.836 174.208C182.804 174.208 182.644 174.232 182.356 174.28L182.344 174.436V174.508Z" fill="#0B353E"/>
<path d="M152.67 163.504L152.778 164.08V164.356C152.85 164.572 152.902 164.792 152.934 165.016C153.062 165.752 153.134 166.176 153.15 166.288C153.166 166.4 153.182 166.504 153.198 166.6C153.222 166.696 153.226 166.752 153.21 166.768C153.218 166.832 153.222 166.888 153.222 166.936C153.23 166.976 153.238 167.012 153.246 167.044C153.262 167.068 153.274 167.084 153.282 167.092C153.298 167.1 153.314 167.096 153.33 167.08C153.378 167.048 153.446 166.884 153.534 166.588C153.63 166.388 153.694 166.204 153.726 166.036C153.742 165.94 153.778 165.788 153.834 165.58C153.89 165.412 153.942 165.252 153.99 165.1C154.046 164.964 154.086 164.82 154.11 164.668C154.134 164.508 154.146 164.42 154.146 164.404C154.154 164.38 154.17 164.34 154.194 164.284C154.274 164.052 154.314 163.876 154.314 163.756C154.314 163.628 154.33 163.492 154.362 163.348C154.362 163.148 154.418 162.88 154.53 162.544C154.53 162.528 154.554 162.432 154.602 162.256C154.65 162.072 154.71 161.904 154.782 161.752C154.91 161.416 155.142 161.188 155.478 161.068C155.614 161.028 155.762 161.008 155.922 161.008C156.09 161.008 156.202 161.028 156.258 161.068C156.322 161.108 156.358 161.196 156.366 161.332C156.35 161.38 156.338 161.456 156.33 161.56L155.958 162.712L155.802 163.108L155.658 163.396C155.658 163.412 155.638 163.46 155.598 163.54L155.478 163.936C155.462 164.056 155.442 164.136 155.418 164.176L155.214 164.848C155.182 164.88 155.154 164.976 155.13 165.136C155.066 165.352 155.01 165.504 154.962 165.592C154.906 165.752 154.878 165.864 154.878 165.928C154.878 165.992 154.858 166.084 154.818 166.204C154.778 166.316 154.75 166.38 154.734 166.396C154.726 166.404 154.71 166.456 154.686 166.552C154.662 166.648 154.65 166.744 154.65 166.84C154.618 166.856 154.602 166.928 154.602 167.056C154.554 167.16 154.522 167.308 154.506 167.5C154.466 167.572 154.442 167.676 154.434 167.812C154.354 168.116 154.25 168.356 154.122 168.532C153.994 168.7 153.81 168.804 153.57 168.844C153.33 168.9 153.162 168.9 153.066 168.844C153.034 168.852 152.982 168.844 152.91 168.82C152.87 168.82 152.842 168.812 152.826 168.796C152.77 168.796 152.682 168.76 152.562 168.688C152.474 168.656 152.394 168.604 152.322 168.532C152.258 168.452 152.186 168.36 152.106 168.256C152.09 168.216 152.042 168.136 151.962 168.016C151.938 167.808 151.906 167.684 151.866 167.644C151.85 167.604 151.842 167.576 151.842 167.56L151.77 167.272C151.778 167.28 151.786 167.296 151.794 167.32C151.778 167.088 151.774 166.896 151.782 166.744C151.75 166.664 151.75 166.544 151.782 166.384C151.782 166.256 151.77 166.144 151.746 166.048C151.658 165.824 151.61 165.668 151.602 165.58C151.602 165.492 151.59 165.352 151.566 165.16C151.566 164.952 151.558 164.772 151.542 164.62L151.338 163.468C151.29 163.212 151.27 163.064 151.278 163.024C151.286 162.976 151.286 162.948 151.278 162.94C151.278 162.924 151.274 162.896 151.266 162.856C151.266 162.816 151.262 162.764 151.254 162.7C151.198 162.572 151.166 162.468 151.158 162.388C150.87 161.684 150.926 161.292 151.326 161.212C151.374 161.196 151.478 161.188 151.638 161.188C151.806 161.188 151.914 161.196 151.962 161.212C152.01 161.22 152.07 161.248 152.142 161.296C152.326 161.408 152.458 161.856 152.538 162.64C152.602 163.056 152.638 163.292 152.646 163.348C152.662 163.396 152.67 163.448 152.67 163.504Z" fill="#0B353E"/>
<path d="M160.801 162.4C160.825 162.504 160.805 162.576 160.741 162.616C160.677 162.648 160.609 162.664 160.537 162.664C160.473 162.664 160.297 162.672 160.009 162.688C159.825 162.728 159.641 162.78 159.457 162.844H159.445C159.445 162.988 159.405 163.2 159.325 163.48C159.325 163.576 159.305 163.732 159.265 163.948C159.265 164.012 159.253 164.076 159.229 164.14C159.205 164.204 159.193 164.304 159.193 164.44C159.137 164.768 159.113 164.948 159.121 164.98C159.129 165.012 159.129 165.056 159.121 165.112C159.113 165.168 159.097 165.252 159.073 165.364C159.049 165.476 159.037 165.608 159.037 165.76C159.037 165.912 159.017 166.048 158.977 166.168V166.3C158.993 166.588 158.981 166.792 158.941 166.912C158.909 167.032 158.893 167.136 158.893 167.224C158.893 167.304 158.873 167.432 158.833 167.608C158.793 167.784 158.781 167.992 158.797 168.232H158.869C159.069 168.216 159.173 168.212 159.181 168.22C159.197 168.22 159.253 168.208 159.349 168.184L159.541 168.196H159.661C159.685 168.196 159.737 168.228 159.817 168.292C159.897 168.348 159.953 168.404 159.985 168.46C160.041 168.516 160.057 168.572 160.033 168.628C160.017 168.676 159.929 168.76 159.769 168.88L159.541 168.952C159.517 168.976 159.461 169.004 159.373 169.036C159.285 169.068 159.209 169.084 159.145 169.084C158.961 169.124 158.853 169.192 158.821 169.288C158.789 169.352 158.597 169.376 158.245 169.36H157.837L157.609 169.432C157.409 169.512 157.233 169.532 157.081 169.492C156.929 169.452 156.825 169.42 156.769 169.396C156.721 169.38 156.661 169.34 156.589 169.276C156.517 169.22 156.485 169.152 156.493 169.072C156.509 169 156.537 168.892 156.577 168.748C156.713 168.636 156.809 168.564 156.865 168.532C157.249 168.412 157.493 168.332 157.597 168.292C157.597 168.028 157.589 167.872 157.573 167.824C157.597 167.816 157.625 167.644 157.657 167.308C157.665 167.276 157.645 167.2 157.597 167.08V167.008C157.621 166.784 157.617 166.58 157.585 166.396C157.585 166.388 157.601 166.248 157.633 165.976C157.673 165.928 157.673 165.8 157.633 165.592C157.665 165.44 157.693 165.32 157.717 165.232L157.729 165.064C157.729 165.016 157.753 164.872 157.801 164.632V164.512L157.825 164.416C157.969 163.824 158.065 163.392 158.113 163.12C158.049 163.136 158.009 163.144 157.993 163.144L157.597 163.204C157.293 163.284 157.025 163.216 156.793 163C156.593 162.728 156.589 162.496 156.781 162.304C156.901 162.2 157.085 162.128 157.333 162.088C157.549 162.016 157.689 161.964 157.753 161.932C157.833 161.932 158.021 161.844 158.317 161.668C158.613 161.628 158.785 161.608 158.833 161.608L159.397 161.536C159.469 161.528 159.565 161.536 159.685 161.56C159.805 161.576 159.877 161.6 159.901 161.632C160.005 161.656 160.133 161.704 160.285 161.776L160.573 162.04C160.685 162.2 160.761 162.32 160.801 162.4Z" fill="#0B353E"/>
<path d="M163.476 163.804C163.42 164.076 163.392 164.312 163.392 164.512C163.376 164.624 163.356 164.7 163.332 164.74C163.316 164.78 163.308 164.872 163.308 165.016C163.308 165.16 163.352 165.244 163.44 165.268C163.528 165.268 163.656 165.22 163.824 165.124L164.076 164.896C164.164 164.824 164.368 164.692 164.688 164.5L164.988 164.212L165.108 164.056L165.156 163.948C165.22 163.844 165.24 163.736 165.216 163.624L165.192 163.42C165.136 163.172 165.096 163.028 165.072 162.988C165.056 162.94 165.028 162.892 164.988 162.844C164.948 162.788 164.904 162.74 164.856 162.7C164.808 162.66 164.78 162.632 164.772 162.616L164.4 162.436C164.392 162.428 164.344 162.416 164.256 162.4C164.12 162.344 163.928 162.336 163.68 162.376L163.608 162.76C163.608 162.808 163.584 162.892 163.536 163.012C163.496 163.132 163.488 163.22 163.512 163.276C163.504 163.3 163.5 163.348 163.5 163.42C163.5 163.484 163.492 163.572 163.476 163.684V163.804ZM163.248 166.132C163.184 166.164 163.144 166.18 163.128 166.18C163.12 166.204 163.116 166.248 163.116 166.312V166.456C163.116 166.512 163.08 166.684 163.008 166.972V167.092C163.008 167.212 162.988 167.308 162.948 167.38L162.9 167.908L162.828 168.208C162.812 168.256 162.808 168.3 162.816 168.34C162.832 168.38 162.844 168.528 162.852 168.784C162.868 169.032 162.86 169.212 162.828 169.324L162.756 169.432C162.596 169.48 162.492 169.492 162.444 169.468C162.396 169.444 162.316 169.428 162.204 169.42C162.092 169.412 162.028 169.404 162.012 169.396C162.004 169.396 161.964 169.38 161.892 169.348C161.828 169.324 161.784 169.304 161.76 169.288C161.744 169.272 161.716 169.248 161.676 169.216C161.572 169.144 161.52 168.988 161.52 168.748C161.504 168.7 161.508 168.644 161.532 168.58C161.484 168.556 161.468 168.492 161.484 168.388C161.508 168.34 161.52 168.264 161.52 168.16C161.52 168.056 161.532 167.972 161.556 167.908V167.716C161.556 167.644 161.584 167.496 161.64 167.272C161.64 167.208 161.652 167.152 161.676 167.104C161.66 167.088 161.68 167.02 161.736 166.9C161.72 166.876 161.74 166.76 161.796 166.552C161.772 166.528 161.768 166.456 161.784 166.336C161.8 166.208 161.82 166.108 161.844 166.036C161.844 165.884 161.856 165.792 161.88 165.76C161.872 165.736 161.86 165.66 161.844 165.532L161.868 165.388C161.868 165.292 161.904 165.144 161.976 164.944C162.04 164.488 162.072 164.24 162.072 164.2C162.184 163.736 162.24 163.448 162.24 163.336C162.264 163.328 162.288 163.252 162.312 163.108C162.336 162.956 162.328 162.848 162.288 162.784C161.928 162.92 161.628 163.08 161.388 163.264C161.228 163.4 161.12 163.452 161.064 163.42C160.952 163.356 160.896 163.264 160.896 163.144L160.848 162.952C160.84 162.944 160.82 162.9 160.788 162.82C160.748 162.732 160.732 162.668 160.74 162.628C160.74 162.588 160.736 162.536 160.728 162.472C160.712 162.4 160.712 162.352 160.728 162.328C160.8 162.192 160.896 162.092 161.016 162.028L161.304 161.824L161.508 161.704C161.524 161.704 161.676 161.62 161.964 161.452C161.98 161.42 162.04 161.392 162.144 161.368C162.248 161.344 162.48 161.272 162.84 161.152C163.08 161.128 163.22 161.116 163.26 161.116C163.516 161.084 163.732 161.108 163.908 161.188C164.028 161.22 164.096 161.236 164.112 161.236C164.136 161.228 164.164 161.228 164.196 161.236C164.236 161.244 164.264 161.248 164.28 161.248C164.28 161.264 164.316 161.272 164.388 161.272L164.616 161.356C164.656 161.356 164.708 161.376 164.772 161.416C164.82 161.408 164.884 161.428 164.964 161.476C165.052 161.516 165.176 161.576 165.336 161.656C165.504 161.736 165.588 161.804 165.588 161.86C165.636 161.876 165.688 161.92 165.744 161.992L165.888 162.136L166.116 162.436C166.132 162.444 166.168 162.484 166.224 162.556C166.304 162.692 166.348 162.772 166.356 162.796C166.364 162.82 166.372 162.844 166.38 162.868C166.388 162.884 166.42 162.952 166.476 163.072C166.588 163.296 166.632 163.492 166.608 163.66C166.608 163.668 166.568 163.792 166.488 164.032C166.344 164.456 166.124 164.792 165.828 165.04C165.764 165.088 165.68 165.152 165.576 165.232C165.472 165.304 165.388 165.368 165.324 165.424C165.02 165.608 164.84 165.724 164.784 165.772C164.736 165.82 164.692 165.86 164.652 165.892L164.52 165.952L164.544 166.024C164.544 165.992 164.564 166.008 164.604 166.072C164.652 166.128 164.684 166.172 164.7 166.204C164.7 166.244 164.74 166.292 164.82 166.348C164.836 166.34 164.856 166.348 164.88 166.372C164.928 166.42 164.952 166.496 164.952 166.6C165.008 166.632 165.092 166.728 165.204 166.888C165.316 166.968 165.412 167.08 165.492 167.224C165.548 167.288 165.592 167.332 165.624 167.356C165.656 167.404 165.72 167.468 165.816 167.548C165.912 167.628 165.976 167.684 166.008 167.716C166.04 167.74 166.076 167.768 166.116 167.8C166.26 167.912 166.36 167.996 166.416 168.052L166.56 168.148C166.856 168.436 167.012 168.592 167.028 168.616C167.02 168.672 166.964 168.756 166.86 168.868C166.852 168.996 166.668 169.104 166.308 169.192C166.188 169.192 166.024 169.136 165.816 169.024C165.608 168.92 165.448 168.808 165.336 168.688C164.984 168.432 164.752 168.232 164.64 168.088C164.312 167.76 164.076 167.444 163.932 167.14C163.9 167.116 163.86 167.076 163.812 167.02C163.772 166.964 163.732 166.92 163.692 166.888L163.536 166.588C163.392 166.388 163.32 166.288 163.32 166.288L163.248 166.132Z" fill="#0B353E"/>
<path d="M169.946 164.14L169.898 163.936C169.898 163.4 169.838 163.028 169.718 162.82C169.702 162.812 169.69 162.808 169.682 162.808C169.642 162.808 169.614 162.856 169.598 162.952C169.502 163.144 169.414 163.408 169.334 163.744C169.302 163.776 169.266 163.896 169.226 164.104C169.106 164.64 169.014 164.972 168.95 165.1L168.926 165.28C168.87 165.464 168.866 165.584 168.914 165.64C168.914 165.608 169.082 165.556 169.418 165.484C169.754 165.412 169.93 165.372 169.946 165.364C169.962 165.356 169.966 165.316 169.958 165.244C169.958 165.172 169.982 165.06 170.03 164.908C170.046 164.9 170.034 164.872 169.994 164.824C169.962 164.768 169.95 164.684 169.958 164.572C169.942 164.524 169.934 164.456 169.934 164.368C169.942 164.28 169.946 164.204 169.946 164.14ZM171.194 164.224L171.218 164.404C171.266 164.42 171.282 164.452 171.266 164.5C171.25 164.548 171.246 164.616 171.254 164.704C171.278 165.024 171.318 165.268 171.374 165.436C171.374 165.532 171.39 165.656 171.422 165.808C171.462 165.952 171.478 166.028 171.47 166.036C171.462 166.044 171.458 166.076 171.458 166.132V166.252C171.41 166.148 171.406 166.228 171.446 166.492C171.478 166.556 171.502 166.656 171.518 166.792C171.542 166.928 171.59 167.168 171.662 167.512C171.814 168.112 171.89 168.444 171.89 168.508C171.89 168.564 171.866 168.66 171.818 168.796C171.77 168.924 171.698 169.016 171.602 169.072L171.062 169.108C170.942 169.076 170.794 168.984 170.618 168.832C170.514 168.728 170.45 168.612 170.426 168.484L170.282 168.076C170.274 168.028 170.27 167.956 170.27 167.86C170.262 167.852 170.25 167.8 170.234 167.704C170.25 167.664 170.23 167.584 170.174 167.464V167.248C170.198 167.208 170.182 167.132 170.126 167.02L170.066 166.636C170.082 166.604 170.034 166.536 169.922 166.432C169.842 166.472 169.738 166.504 169.61 166.528H169.226C169.074 166.528 168.946 166.532 168.842 166.54C168.786 166.54 168.758 166.7 168.758 167.02C168.75 167.044 168.73 167.1 168.698 167.188C168.698 167.228 168.682 167.292 168.65 167.38C168.618 167.468 168.602 167.544 168.602 167.608C168.602 167.664 168.594 167.704 168.578 167.728C168.538 167.808 168.482 168 168.41 168.304C168.338 168.6 168.282 168.796 168.242 168.892C168.21 168.988 168.206 169.048 168.23 169.072C168.238 169.096 168.226 169.136 168.194 169.192C168.162 169.248 168.126 169.288 168.086 169.312C167.998 169.312 167.902 169.292 167.798 169.252C167.694 169.212 167.57 169.192 167.426 169.192C167.322 169.176 167.23 169.072 167.15 168.88C167.134 168.824 167.122 168.776 167.114 168.736C167.13 168.712 167.142 168.652 167.15 168.556C167.094 168.516 167.066 168.44 167.066 168.328L167.078 168.16C167.078 168.088 167.098 168.02 167.138 167.956C167.13 167.956 167.146 167.888 167.186 167.752C167.138 167.72 167.166 167.476 167.27 167.02C167.27 166.908 167.306 166.744 167.378 166.528C167.41 166.384 167.426 166.288 167.426 166.24C167.434 166.168 167.442 166.124 167.45 166.108C167.458 166.084 167.466 166.056 167.474 166.024C167.562 165.784 167.61 165.62 167.618 165.532C167.626 165.436 167.69 165.244 167.81 164.956C167.834 164.908 167.846 164.836 167.846 164.74C167.846 164.644 167.858 164.568 167.882 164.512C167.906 164.456 167.926 164.392 167.942 164.32C167.966 164.248 167.998 164.172 168.038 164.092C168.014 164.068 168.022 163.988 168.062 163.852C168.062 163.804 168.094 163.704 168.158 163.552C168.222 163.392 168.254 163.292 168.254 163.252C168.262 163.204 168.27 163.172 168.278 163.156C168.294 163.132 168.31 163.096 168.326 163.048C168.342 163 168.366 162.948 168.398 162.892C168.43 162.836 168.446 162.788 168.446 162.748C168.454 162.708 168.478 162.64 168.518 162.544C168.518 162.488 168.53 162.416 168.554 162.328C168.578 162.304 168.63 162.228 168.71 162.1C168.71 162.052 168.778 161.976 168.914 161.872C169.058 161.768 169.146 161.696 169.178 161.656L169.802 161.56C169.81 161.496 169.858 161.4 169.946 161.272C170.194 161.152 170.446 161.112 170.702 161.152C170.71 161.152 170.726 161.156 170.75 161.164C170.782 161.172 170.818 161.18 170.858 161.188C170.906 161.196 170.958 161.208 171.014 161.224C171.078 161.24 171.11 161.296 171.11 161.392L171.098 162.82C171.114 162.884 171.126 163.052 171.134 163.324C171.15 163.588 171.174 163.78 171.206 163.9C171.206 164.084 171.202 164.192 171.194 164.224Z" fill="#0B353E"/>
<path d="M176.772 165.772C176.772 165.74 176.768 165.704 176.76 165.664C176.76 165.616 176.76 165.54 176.76 165.436C176.76 165.332 176.748 165.268 176.724 165.244C176.62 165.228 176.392 165.332 176.04 165.556C176.016 165.572 175.96 165.576 175.872 165.568C175.792 165.56 175.728 165.544 175.68 165.52C175.488 165.384 175.44 165.184 175.536 164.92C175.56 164.848 175.572 164.8 175.572 164.776C175.58 164.752 175.596 164.728 175.62 164.704C175.652 164.68 175.692 164.652 175.74 164.62C175.796 164.588 175.864 164.536 175.944 164.464C176.024 164.392 176.164 164.312 176.364 164.224C176.572 164.136 176.812 164.096 177.084 164.104C177.364 164.112 177.584 164.196 177.744 164.356C177.904 164.516 178.04 164.812 178.152 165.244C178.168 165.34 178.168 165.548 178.152 165.868C178.136 166.228 178.04 166.828 177.864 167.668C177.808 168.052 177.752 168.312 177.696 168.448C177.64 168.576 177.6 168.708 177.576 168.844C177.552 168.98 177.532 169.076 177.516 169.132C177.508 169.188 177.5 169.224 177.492 169.24C177.492 169.264 177.488 169.284 177.48 169.3C177.48 169.316 177.48 169.328 177.48 169.336C177.376 169.616 177.212 169.768 176.988 169.792C176.964 169.792 176.932 169.784 176.892 169.768C176.86 169.76 176.828 169.752 176.796 169.744C176.764 169.736 176.74 169.728 176.724 169.72C176.716 169.712 176.696 169.7 176.664 169.684C176.632 169.676 176.608 169.664 176.592 169.648C176.584 169.64 176.568 169.624 176.544 169.6C176.52 169.584 176.5 169.568 176.484 169.552C176.436 169.488 176.388 169.388 176.34 169.252C176.292 169.124 176.268 169.016 176.268 168.928V168.736C176.268 168.688 176.304 168.468 176.376 168.076L176.04 168.448C176.04 168.488 175.968 168.54 175.824 168.604C175.752 168.676 175.532 168.692 175.164 168.652C175.156 168.7 175.088 168.716 174.96 168.7C174.84 168.676 174.736 168.66 174.648 168.652C174.568 168.636 174.432 168.596 174.24 168.532H174.012C173.996 168.516 173.908 168.5 173.748 168.484C173.732 168.452 173.688 168.424 173.616 168.4C173.568 168.392 173.468 168.316 173.316 168.172C173.164 168.028 173.084 167.944 173.076 167.92C173.068 167.896 173.04 167.86 172.992 167.812C172.968 167.78 172.916 167.612 172.836 167.308C172.756 167.004 172.716 166.792 172.716 166.672C172.716 166.544 172.732 166.384 172.764 166.192C172.716 166.128 172.724 166.028 172.788 165.892L172.872 164.92C172.888 164.888 172.896 164.796 172.896 164.644C172.904 164.492 172.944 164.32 173.016 164.128C173.128 163.816 173.196 163.58 173.22 163.42C173.356 163.052 173.436 162.848 173.46 162.808C173.516 162.72 173.568 162.64 173.616 162.568C173.672 162.488 173.748 162.372 173.844 162.22L174.144 161.872C174.216 161.8 174.324 161.736 174.468 161.68C174.548 161.6 174.704 161.512 174.936 161.416C174.952 161.416 175 161.4 175.08 161.368C175.152 161.344 175.316 161.316 175.572 161.284C175.668 161.364 175.8 161.344 175.968 161.224L176.82 161.32C177.036 161.32 177.248 161.352 177.456 161.416C177.664 161.48 177.772 161.58 177.78 161.716C177.788 161.916 177.752 162.064 177.672 162.16C177.6 162.256 177.508 162.296 177.396 162.28C177.076 162.224 176.808 162.2 176.592 162.208C176.384 162.216 176.232 162.248 176.136 162.304C176.04 162.352 175.936 162.4 175.824 162.448C175.72 162.496 175.636 162.54 175.572 162.58C175.26 162.836 174.968 163.296 174.696 163.96L174.66 164.164C174.676 164.148 174.68 164.148 174.672 164.164C174.664 164.18 174.652 164.208 174.636 164.248C174.62 164.28 174.608 164.308 174.6 164.332C174.6 164.348 174.592 164.384 174.576 164.44C174.464 164.712 174.372 165.04 174.3 165.424C174.236 165.8 174.2 166.104 174.192 166.336C174.184 166.568 174.224 166.764 174.312 166.924L174.492 167.14C174.524 167.212 174.616 167.292 174.768 167.38C174.856 167.484 174.964 167.576 175.092 167.656C175.236 167.72 175.452 167.668 175.74 167.5C175.772 167.476 175.804 167.448 175.836 167.416L176.136 167.236C176.344 167.012 176.456 166.892 176.472 166.876L176.604 166.768C176.716 166.28 176.772 165.984 176.772 165.88V165.772Z" fill="#0B353E"/>
<path d="M180.498 165.82L180.474 166.684C180.49 166.956 180.51 167.104 180.534 167.128L180.582 167.416C180.582 167.472 180.61 167.576 180.666 167.728C180.666 167.76 180.774 167.86 180.99 168.028C181.094 168.028 181.334 167.956 181.71 167.812L182.19 167.644C182.382 167.524 182.562 167.48 182.73 167.512C182.906 167.536 183.006 167.676 183.03 167.932C183.038 168.052 183.026 168.144 182.994 168.208C182.97 168.272 182.902 168.348 182.79 168.436C182.686 168.524 182.614 168.588 182.574 168.628C182.534 168.668 182.47 168.708 182.382 168.748C182.302 168.788 182.202 168.832 182.082 168.88C181.97 168.928 181.898 168.96 181.866 168.976C181.53 169.112 181.286 169.16 181.134 169.12C181.046 169.12 180.946 169.096 180.834 169.048C180.722 169.008 180.662 168.992 180.654 169C180.622 169.008 180.558 168.996 180.462 168.964C180.374 168.932 180.23 168.892 180.03 168.844C180.03 168.812 179.974 168.776 179.862 168.736L179.55 168.46C179.494 168.428 179.438 168.328 179.382 168.16C179.222 167.904 179.13 167.676 179.106 167.476C179.066 167.38 179.05 167.256 179.058 167.104C179.026 167.064 178.99 166.9 178.95 166.612C178.926 166.228 178.938 165.932 178.986 165.724C178.986 165.588 179.018 165.44 179.082 165.28C179.114 165.144 179.138 165.012 179.154 164.884C179.178 164.836 179.198 164.744 179.214 164.608C179.182 164.504 179.246 164.24 179.406 163.816C179.406 163.768 179.438 163.66 179.502 163.492C179.55 163.404 179.582 163.288 179.598 163.144L179.694 162.928C179.694 162.92 179.762 162.684 179.898 162.22C179.97 162.076 180.006 161.988 180.006 161.956L180.33 161.332L180.474 161.152C180.554 161.088 180.642 161.044 180.738 161.02C180.786 160.98 180.914 160.988 181.122 161.044C181.25 161.092 181.334 161.14 181.374 161.188C181.43 161.22 181.498 161.236 181.578 161.236C181.658 161.228 181.786 161.224 181.962 161.224C182.234 161.176 182.538 161.188 182.874 161.26C182.986 161.284 183.086 161.356 183.174 161.476C183.27 161.58 183.306 161.676 183.282 161.764C183.258 161.852 183.218 161.92 183.162 161.968C183.114 162.008 183.058 162.044 182.994 162.076C182.866 162.14 182.774 162.184 182.718 162.208C182.654 162.224 182.506 162.292 182.274 162.412C182.042 162.524 181.89 162.596 181.818 162.628C181.706 162.676 181.594 162.724 181.482 162.772C181.338 162.868 181.254 162.964 181.23 163.06C181.222 163.076 181.214 163.096 181.206 163.12C181.198 163.144 181.186 163.176 181.17 163.216C181.162 163.256 181.146 163.312 181.122 163.384C181.098 163.456 181.066 163.556 181.026 163.684C180.834 164.292 180.738 164.636 180.738 164.716L180.978 164.692C181.338 164.588 181.546 164.56 181.602 164.608C181.634 164.608 181.678 164.6 181.734 164.584C182.086 164.496 182.35 164.46 182.526 164.476C182.558 164.46 182.598 164.48 182.646 164.536C182.702 164.592 182.73 164.644 182.73 164.692C182.762 164.796 182.77 164.892 182.754 164.98C182.746 165.06 182.682 165.132 182.562 165.196L182.406 165.292L181.626 165.616L181.338 165.7C181.074 165.82 180.862 165.888 180.702 165.904L180.498 165.82Z" fill="#0B353E"/>
<rect x="151" y="185" width="3" height="9" fill="#D9D9D9"/>
<rect x="182" y="185" width="3" height="9" fill="#D9D9D9"/>
</svg>
