<svg width="413" height="535" viewBox="0 0 413 535" fill="none" xmlns="http://www.w3.org/2000/svg">
<path d="M292.991 123.595H164C197.864 82.1932 210.238 10 226.648 10C243.059 10 267.593 88.8508 292.991 123.595Z" fill="#43686F"/>
<path d="M166.085 29.1904C175.32 26.7126 192.974 105.403 237.791 163.288H0C34.4472 129.017 50.089 69.1486 62.0401 61.7043C73.9911 54.2599 86.4694 125.914 102.463 129.017C126.013 133.587 144.467 34.9904 166.085 29.1904Z" fill="#1B5865"/>
<path fill-rule="evenodd" clip-rule="evenodd" d="M296.096 0L302.486 28.8278H301.148L304.437 42.7955H302.561L307.552 58.2666H285.035L290.026 42.7955H288.005L291.294 28.8278H289.706L296.096 0Z" fill="#136753"/>
<path fill-rule="evenodd" clip-rule="evenodd" d="M313.062 38L319.452 66.8278H318.114L321.402 80.7955H319.526L324.517 96.2666H302L306.991 80.7955H304.971L308.259 66.8278H306.672L313.062 38Z" fill="#136753"/>
<path fill-rule="evenodd" clip-rule="evenodd" d="M331.062 17L337.452 45.8278H336.114L339.402 59.7955H337.526L342.517 75.2666H320L324.991 59.7955H322.971L326.259 45.8278H324.672L331.062 17Z" fill="#136753"/>
<path d="M246.115 248.108H112C147.209 205.061 160.075 130 177.137 130C194.2 130 219.708 211.983 246.115 248.108Z" fill="#0B353E"/>
<path d="M174.731 159.635C169.623 154.187 156.344 179.103 157.859 168.72C164.132 154.011 163.05 151.848 172.568 139.734C177.497 133.461 181.798 136.349 190.955 149.901C196.363 157.905 201.511 172.441 190.955 173.479C177.76 174.777 195.498 187.323 187.494 184.079C179.49 180.834 181.221 166.557 174.731 159.635Z" fill="#F5F5F5"/>
<path fill-rule="evenodd" clip-rule="evenodd" d="M307.062 172L313.452 200.828H312.114L315.402 214.795H313.526L318.517 230.267H296L300.991 214.795H298.971L302.259 200.828H300.672L307.062 172Z" fill="#136753"/>
<path fill-rule="evenodd" clip-rule="evenodd" d="M205.062 288L211.452 316.828H210.114L213.402 330.795H211.526L216.517 346.267H194L198.991 330.795H196.971L200.259 316.828H198.672L205.062 288Z" fill="#136753"/>
<path fill-rule="evenodd" clip-rule="evenodd" d="M123.062 230L129.452 258.828H128.114L131.402 272.795H129.526L134.517 288.267H112L116.991 272.795H114.971L118.259 258.828H116.672L123.062 230Z" fill="#136753"/>
<path fill-rule="evenodd" clip-rule="evenodd" d="M118.062 344L124.452 372.828H123.114L126.402 386.795H124.526L129.517 402.267H107L111.991 386.795H109.971L113.259 372.828H111.672L118.062 344Z" fill="#136753"/>
<path fill-rule="evenodd" clip-rule="evenodd" d="M82.714 130.706L89.1041 159.534H87.7661L91.0545 173.502H89.1782L94.1696 188.973H71.6523L76.6437 173.502H74.623L77.9114 159.534H76.324L82.714 130.706Z" fill="#136753"/>
<path d="M147.991 325.595H19C52.8639 284.193 65.2376 212 81.6482 212C98.0588 212 122.593 290.851 147.991 325.595Z" fill="#43686F"/>
<path d="M340.689 153.057C349.958 150.57 367.677 229.548 412.656 287.643H174C208.573 253.247 224.271 193.161 236.266 185.69C248.26 178.218 260.784 250.132 276.836 253.247C300.472 257.833 318.993 158.878 340.689 153.057Z" fill="#1B5865"/>
<path d="M333.809 212.091C323.932 208.51 330.105 201.155 316.876 201.155C318.816 192.511 328.165 173.285 335.926 163.407C343.866 153.302 351.33 180.837 357.093 192.864C361.15 201.331 371.522 221.475 362.914 222.321C352.154 223.38 351.449 205.917 344.922 203.271C338.396 200.625 347.921 217.206 333.809 212.091Z" fill="#F5F5F5"/>
<path d="M387.991 390.595H259C292.864 349.193 305.238 277 321.648 277C338.059 277 362.593 355.851 387.991 390.595Z" fill="#43686F"/>
<path fill-rule="evenodd" clip-rule="evenodd" d="M76.0617 306L82.4517 334.828H81.1137L84.4021 348.795H82.5259L87.5173 364.267H65L69.9914 348.795H67.9706L71.259 334.828H69.6716L76.0617 306Z" fill="#136753"/>
<path fill-rule="evenodd" clip-rule="evenodd" d="M354.062 364L360.452 392.828H359.114L362.402 406.795H360.526L365.517 422.267H343L347.991 406.795H345.971L349.259 392.828H347.672L354.062 364Z" fill="#136753"/>
<path fill-rule="evenodd" clip-rule="evenodd" d="M296.062 352L302.452 380.828H301.114L304.402 394.795H302.526L307.517 410.267H285L289.991 394.795H287.971L291.259 380.828H289.672L296.062 352Z" fill="#136753"/>
<path d="M251.085 306.057C260.32 303.579 277.974 382.27 322.791 440.155H85C119.447 405.884 135.089 346.015 147.04 338.571C158.991 331.127 171.469 402.78 187.463 405.884C211.013 410.453 229.467 311.857 251.085 306.057Z" fill="#1B5865"/>
<path fill-rule="evenodd" clip-rule="evenodd" d="M276.062 440L282.452 468.828H281.114L284.402 482.795H282.526L287.517 498.267H265L269.991 482.795H267.971L271.259 468.828H269.672L276.062 440Z" fill="#136753"/>
<path fill-rule="evenodd" clip-rule="evenodd" d="M182.062 476L188.452 504.828H187.114L190.402 518.795H188.526L193.517 534.267H171L175.991 518.795H173.971L177.259 504.828H175.672L182.062 476Z" fill="#136753"/>
<path fill-rule="evenodd" clip-rule="evenodd" d="M129.062 463L135.452 491.828H134.114L137.402 505.795H135.526L140.517 521.267H118L122.991 505.795H120.971L124.259 491.828H122.672L129.062 463Z" fill="#136753"/>
<path fill-rule="evenodd" clip-rule="evenodd" d="M399.062 476L405.452 504.828H404.114L407.402 518.795H405.526L410.517 534.267H388L392.991 518.795H390.971L394.259 504.828H392.672L399.062 476Z" fill="#136753"/>
<path fill-rule="evenodd" clip-rule="evenodd" d="M34.0617 418L40.4517 446.828H39.1137L42.4021 460.795H40.5259L45.5173 476.267H23L27.9914 460.795H25.9706L29.259 446.828H27.6716L34.0617 418Z" fill="#136753"/>
</svg>
