<svg width="413" height="535" viewBox="0 0 413 535" fill="none" xmlns="http://www.w3.org/2000/svg">
<path d="M292.991 123.595H164C197.864 82.1932 210.238 10 226.648 10C243.059 10 267.593 88.8508 292.991 123.595Z" fill="#43686F"/>
<path d="M166.085 29.1904C175.32 26.7126 192.974 105.403 237.791 163.288H0C34.4472 129.017 50.089 69.1486 62.0401 61.7043C73.9911 54.2599 86.4694 125.914 102.463 129.017C126.013 133.587 144.467 34.9904 166.085 29.1904Z" fill="#1B5865"/>
<path fill-rule="evenodd" clip-rule="evenodd" d="M296.096 0L302.486 28.8278H301.148L304.437 42.7955H302.561L307.552 58.2666H285.035L290.026 42.7955H288.005L291.294 28.8278H289.706L296.096 0Z" fill="#136753"/>
<path fill-rule="evenodd" clip-rule="evenodd" d="M313.062 38L319.452 66.8278H318.114L321.402 80.7955H319.526L324.517 96.2666H302L306.991 80.7955H304.971L308.259 66.8278H306.672L313.062 38Z" fill="#136753"/>
<path fill-rule="evenodd" clip-rule="evenodd" d="M331.062 17L337.452 45.8278H336.114L339.402 59.7955H337.526L342.517 75.2666H320L324.991 59.7955H322.971L326.259 45.8278H324.672L331.062 17Z" fill="#136753"/>
<path d="M246.115 248.108H112C147.209 205.061 160.075 130 177.137 130C194.2 130 219.708 211.983 246.115 248.108Z" fill="#0B353E"/>
<path d="M174.731 159.635C169.623 154.187 156.344 179.103 157.859 168.72C164.132 154.011 163.05 151.848 172.568 139.734C177.497 133.461 181.798 136.349 190.955 149.901C196.363 157.905 201.511 172.441 190.955 173.479C177.76 174.777 195.498 187.323 187.494 184.079C179.49 180.834 181.221 166.557 174.731 159.635Z" fill="#F5F5F5"/>
<path fill-rule="evenodd" clip-rule="evenodd" d="M307.062 172L313.452 200.828H312.114L315.402 214.795H313.526L318.517 230.267H296L300.991 214.795H298.971L302.259 200.828H300.672L307.062 172Z" fill="#136753"/>
<path fill-rule="evenodd" clip-rule="evenodd" d="M205.062 288L211.452 316.828H210.114L213.402 330.795H211.526L216.517 346.267H194L198.991 330.795H196.971L200.259 316.828H198.672L205.062 288Z" fill="#136753"/>
<path fill-rule="evenodd" clip-rule="evenodd" d="M123.062 230L129.452 258.828H128.114L131.402 272.795H129.526L134.517 288.267H112L116.991 272.795H114.971L118.259 258.828H116.672L123.062 230Z" fill="#136753"/>
<path fill-rule="evenodd" clip-rule="evenodd" d="M118.062 344L124.452 372.828H123.114L126.402 386.795H124.526L129.517 402.267H107L111.991 386.795H109.971L113.259 372.828H111.672L118.062 344Z" fill="#136753"/>
<path fill-rule="evenodd" clip-rule="evenodd" d="M82.714 130.706L89.1041 159.534H87.7661L91.0545 173.502H89.1782L94.1696 188.973H71.6523L76.6437 173.502H74.623L77.9114 159.534H76.324L82.714 130.706Z" fill="#136753"/>
<path d="M147.991 325.595H19C52.8639 284.193 65.2376 212 81.6482 212C98.0588 212 122.593 290.851 147.991 325.595Z" fill="#43686F"/>
<path d="M340.689 153.057C349.958 150.57 367.677 229.548 412.656 287.643H174C208.573 253.247 224.271 193.161 236.266 185.69C248.26 178.218 260.784 250.132 276.836 253.247C300.472 257.833 318.993 158.878 340.689 153.057Z" fill="#1B5865"/>
<path d="M333.809 212.091C323.932 208.51 330.105 201.155 316.876 201.155C318.816 192.511 328.165 173.285 335.926 163.407C343.866 153.302 351.33 180.837 357.093 192.864C361.15 201.331 371.522 221.475 362.914 222.321C352.154 223.38 351.449 205.917 344.922 203.271C338.396 200.625 347.921 217.206 333.809 212.091Z" fill="#F5F5F5"/>
<path d="M387.991 390.595H259C292.864 349.193 305.238 277 321.648 277C338.059 277 362.593 355.851 387.991 390.595Z" fill="#43686F"/>
<path fill-rule="evenodd" clip-rule="evenodd" d="M76.0617 306L82.4517 334.828H81.1137L84.4021 348.795H82.5259L87.5173 364.267H65L69.9914 348.795H67.9706L71.259 334.828H69.6716L76.0617 306Z" fill="#136753"/>
<path fill-rule="evenodd" clip-rule="evenodd" d="M354.062 364L360.452 392.828H359.114L362.402 406.795H360.526L365.517 422.267H343L347.991 406.795H345.971L349.259 392.828H347.672L354.062 364Z" fill="#136753"/>
<path fill-rule="evenodd" clip-rule="evenodd" d="M296.062 352L302.452 380.828H301.114L304.402 394.795H302.526L307.517 410.267H285L289.991 394.795H287.971L291.259 380.828H289.672L296.062 352Z" fill="#136753"/>
<path d="M251.085 306.057C260.32 303.579 277.974 382.27 322.791 440.155H85C119.447 405.884 135.089 346.015 147.04 338.571C158.991 331.127 171.469 402.78 187.463 405.884C211.013 410.453 229.467 311.857 251.085 306.057Z" fill="#1B5865"/>
<path fill-rule="evenodd" clip-rule="evenodd" d="M276.062 440L282.452 468.828H281.114L284.402 482.795H282.526L287.517 498.267H265L269.991 482.795H267.971L271.259 468.828H269.672L276.062 440Z" fill="#136753"/>
<path fill-rule="evenodd" clip-rule="evenodd" d="M182.062 476L188.452 504.828H187.114L190.402 518.795H188.526L193.517 534.267H171L175.991 518.795H173.971L177.259 504.828H175.672L182.062 476Z" fill="#136753"/>
<path fill-rule="evenodd" clip-rule="evenodd" d="M129.062 463L135.452 491.828H134.114L137.402 505.795H135.526L140.517 521.267H118L122.991 505.795H120.971L124.259 491.828H122.672L129.062 463Z" fill="#136753"/>
<path fill-rule="evenodd" clip-rule="evenodd" d="M399.062 476L405.452 504.828H404.114L407.402 518.795H405.526L410.517 534.267H388L392.991 518.795H390.971L394.259 504.828H392.672L399.062 476Z" fill="#136753"/>
<path fill-rule="evenodd" clip-rule="evenodd" d="M34.0617 418L40.4517 446.828H39.1137L42.4021 460.795H40.5259L45.5173 476.267H23L27.9914 460.795H25.9706L29.259 446.828H27.6716L34.0617 418Z" fill="#136753"/>
<rect x="151" y="101" width="51" height="21" rx="8" fill="#D9D9D9"/>
<rect x="175" y="122" width="3" height="8" fill="#D9D9D9"/>
<path d="M162.544 115L162.4 114.976C162.36 114.976 162.304 114.948 162.232 114.892C162.16 114.828 162.116 114.812 162.1 114.844C162.092 114.868 162.052 114.852 161.98 114.796C161.796 114.66 161.64 114.476 161.512 114.244C161.392 114.012 161.38 113.816 161.476 113.656C161.516 113.552 161.6 113.416 161.728 113.248C161.856 113.072 161.94 112.948 161.98 112.876C162.02 112.804 162.092 112.708 162.196 112.588C162.3 112.46 162.368 112.356 162.4 112.276C162.432 112.148 162.54 112.024 162.724 111.904C162.772 111.808 162.812 111.736 162.844 111.688C162.876 111.632 162.908 111.572 162.94 111.508C163.036 111.324 163.096 111.216 163.12 111.184C163.152 111.144 163.18 111.104 163.204 111.064C163.244 111.008 163.316 110.94 163.42 110.86C163.444 110.78 163.48 110.692 163.528 110.596C163.584 110.492 163.62 110.424 163.636 110.392C163.924 110.04 164.132 109.652 164.26 109.228C164.292 109.052 164.272 108.912 164.2 108.808C164.128 108.704 163.996 108.692 163.804 108.772C163.252 109.028 162.772 109.52 162.364 110.248C162.276 110.288 162.196 110.272 162.124 110.2C162.06 110.176 161.98 110.116 161.884 110.02C161.78 109.956 161.712 109.876 161.68 109.78C161.648 109.684 161.632 109.52 161.632 109.288C161.632 109.048 161.664 108.868 161.728 108.748C161.792 108.628 161.844 108.556 161.884 108.532C161.932 108.484 161.956 108.412 161.956 108.316C162.004 108.22 162.052 108.164 162.1 108.148C162.132 108.06 162.14 108.004 162.124 107.98L162.196 107.884L162.34 107.62C162.436 107.476 162.556 107.388 162.7 107.356C162.732 107.324 162.76 107.3 162.784 107.284C162.808 107.26 162.836 107.232 162.868 107.2C162.9 107.2 162.948 107.184 163.012 107.152C163.076 107.152 163.18 107.14 163.324 107.116C163.356 107.084 163.432 107.072 163.552 107.08C163.672 107.08 163.772 107.104 163.852 107.152C163.996 107.168 164.088 107.18 164.128 107.188C164.176 107.196 164.208 107.2 164.224 107.2C164.24 107.2 164.284 107.244 164.356 107.332L164.476 107.428C164.492 107.428 164.588 107.524 164.764 107.716C164.948 107.9 165.052 108.028 165.076 108.1C165.108 108.164 165.14 108.208 165.172 108.232C165.212 108.256 165.284 108.34 165.388 108.484C165.492 108.628 165.56 108.736 165.592 108.808C165.688 108.992 165.72 109.26 165.688 109.612C165.664 109.964 165.564 110.3 165.388 110.62C165.212 110.94 164.86 111.468 164.332 112.204C164.132 112.484 163.728 112.956 163.12 113.62C164.312 113.62 164.92 113.628 164.944 113.644C164.968 113.66 165.1 113.768 165.34 113.968C165.38 114.016 165.448 114.136 165.544 114.328C165.64 114.512 165.692 114.644 165.7 114.724C165.74 114.828 165.768 114.88 165.784 114.88C165.808 114.912 165.816 114.964 165.808 115.036C165.8 115.116 165.764 115.156 165.7 115.156C165.644 115.092 165.504 115.048 165.28 115.024C165.064 115.008 164.732 115 164.284 115C163.836 115 163.516 115.008 163.324 115.024C162.804 115.024 162.544 115.016 162.544 115Z" fill="#0B353E"/>
<path d="M169.852 108.244L169.792 108.052C169.624 107.956 169.428 107.896 169.204 107.872C169.164 107.856 169.096 107.876 169 107.932C168.912 107.98 168.86 108.036 168.844 108.1C168.612 108.548 168.568 108.908 168.712 109.18L168.76 109.348C168.776 109.364 168.82 109.432 168.892 109.552C169.084 109.84 169.228 109.992 169.324 110.008C169.524 109.808 169.692 109.416 169.828 108.832C169.844 108.736 169.852 108.54 169.852 108.244ZM169.06 114.004C169.076 113.988 169.088 113.968 169.096 113.944C169.104 113.92 169.128 113.9 169.168 113.884C169.224 113.876 169.272 113.82 169.312 113.716C169.352 113.604 169.364 113.512 169.348 113.44C169.34 113.368 169.344 113.308 169.36 113.26V113.2C169.344 113.2 169.32 113.18 169.288 113.14C169.264 113.092 169.232 113.052 169.192 113.02C169.216 112.9 169.22 112.82 169.204 112.78C169.164 112.628 169.144 112.548 169.144 112.54C169.12 112.532 169.1 112.516 169.084 112.492C169.076 112.468 169.06 112.456 169.036 112.456C169.012 112.456 168.98 112.4 168.94 112.288C168.948 112.248 168.94 112.18 168.916 112.084C168.9 111.98 168.876 111.928 168.844 111.928L168.784 111.844L168.664 111.736C168.656 111.728 168.628 111.744 168.58 111.784C168.444 111.912 168.292 112.16 168.124 112.528C168.092 112.56 168.088 112.576 168.112 112.576C168.12 112.6 168.08 112.736 167.992 112.984C167.912 113.232 167.872 113.384 167.872 113.44C167.68 113.744 167.668 113.984 167.836 114.16C167.892 114.272 167.94 114.344 167.98 114.376C168.02 114.4 168.048 114.42 168.064 114.436C168.088 114.444 168.128 114.452 168.184 114.46C168.248 114.468 168.292 114.472 168.316 114.472C168.372 114.488 168.484 114.496 168.652 114.496V114.472L168.64 114.448C168.664 114.44 168.736 114.376 168.856 114.256C168.976 114.136 169.036 114.064 169.036 114.04C169.052 114.032 169.06 114.02 169.06 114.004ZM166.96 108.628L166.984 108.412C167 108.156 167.144 107.908 167.416 107.668C167.496 107.628 167.548 107.56 167.572 107.464C167.596 107.448 167.644 107.408 167.716 107.344C167.788 107.28 167.844 107.236 167.884 107.212C168.036 107.124 168.212 107.072 168.412 107.056C168.468 107.032 168.564 107.024 168.7 107.032C168.836 107.04 168.932 107.056 168.988 107.08H169.264L169.54 107.092L169.684 107.152C170.236 107.272 170.6 107.484 170.776 107.788C170.952 108.036 171.024 108.412 170.992 108.916C170.968 108.956 170.944 109 170.92 109.048C170.728 109.632 170.488 110.084 170.2 110.404L170.02 110.62L170.164 110.752C170.212 110.776 170.244 110.824 170.26 110.896C170.276 110.968 170.28 111.024 170.272 111.064C170.368 111.144 170.48 111.292 170.608 111.508C170.736 111.724 170.816 111.844 170.848 111.868C170.864 111.932 170.9 111.992 170.956 112.048C171.076 112.32 171.148 112.512 171.172 112.624C171.204 112.736 171.228 112.896 171.244 113.104C171.26 113.304 171.248 113.496 171.208 113.68C171.168 113.864 171.132 113.96 171.1 113.968C171.076 114.024 171.06 114.076 171.052 114.124C171.052 114.172 170.988 114.284 170.86 114.46C170.7 114.692 170.56 114.828 170.44 114.868C170.416 114.876 170.384 114.9 170.344 114.94C170.32 114.94 170.308 114.96 170.308 115C170.228 115.064 169.904 115.2 169.336 115.408C168.72 115.408 168.396 115.404 168.364 115.396C168.18 115.348 168.052 115.328 167.98 115.336C167.908 115.352 167.752 115.276 167.512 115.108C167.4 115.052 167.312 114.992 167.248 114.928C167.176 114.896 167.084 114.824 166.972 114.712C166.884 114.672 166.792 114.584 166.696 114.448C166.608 114.304 166.564 114.184 166.564 114.088C166.532 114.008 166.5 113.948 166.468 113.908C166.396 113.732 166.36 113.556 166.36 113.38C166.368 113.196 166.392 113.08 166.432 113.032C166.472 112.976 166.496 112.936 166.504 112.912C166.52 112.88 166.532 112.856 166.54 112.84C166.572 112.8 166.588 112.772 166.588 112.756L166.924 112.096C166.94 112.096 166.968 112.084 167.008 112.06C167.056 112.036 167.092 112.02 167.116 112.012C167.332 111.796 167.448 111.688 167.464 111.688C167.44 111.64 167.472 111.58 167.56 111.508C167.656 111.428 167.712 111.388 167.728 111.388C167.752 111.38 167.772 111.368 167.788 111.352C167.852 111.32 167.916 111.304 167.98 111.304C168.012 111.32 168.028 111.312 168.028 111.28C168.028 111.248 168.056 111.216 168.112 111.184C168.12 111.16 168.12 111.124 168.112 111.076C168.112 111.02 168.104 110.992 168.088 110.992C168.056 110.992 168.04 110.9 168.04 110.716C167.888 110.46 167.788 110.336 167.74 110.344C167.716 110.352 167.68 110.336 167.632 110.296C167.592 110.256 167.568 110.224 167.56 110.2C167.592 110.136 167.592 110.096 167.56 110.08C167.528 110.048 167.512 110.016 167.512 109.984C167.512 109.976 167.464 109.908 167.368 109.78C167.376 109.764 167.336 109.708 167.248 109.612C167.16 109.516 167.108 109.468 167.092 109.468L167.068 109.396C167.068 109.308 167.06 109.252 167.044 109.228C166.972 109.196 166.952 109.164 166.984 109.132C166.984 109.076 166.968 109.036 166.936 109.012C166.904 108.98 166.888 108.932 166.888 108.868L166.96 108.628Z" fill="#0B353E"/>
<path d="M175.025 111.844L175.049 111.46C175.081 111.18 175.061 110.78 174.989 110.26C174.981 109.98 174.949 109.768 174.893 109.624C174.837 109.472 174.721 109.26 174.545 108.988C174.401 108.86 174.329 108.776 174.329 108.736C174.241 108.648 174.137 108.712 174.017 108.928C173.985 109.048 173.829 109.392 173.549 109.96C173.573 110.024 173.549 110.092 173.477 110.164C173.461 110.188 173.453 110.236 173.453 110.308C173.477 110.356 173.485 110.424 173.477 110.512C173.453 110.592 173.429 110.928 173.405 111.52C173.405 111.856 173.433 112.096 173.489 112.24C173.489 112.512 173.505 112.728 173.537 112.888C173.529 113.112 173.545 113.288 173.585 113.416C173.697 113.68 173.817 113.812 173.945 113.812C174.073 113.812 174.213 113.708 174.365 113.5C174.525 113.292 174.649 113.036 174.737 112.732C174.729 112.668 174.741 112.636 174.773 112.636C174.773 112.58 174.793 112.488 174.833 112.36C174.881 112.224 174.905 112.132 174.905 112.084L175.025 111.844ZM172.229 109.312L172.265 109.06C172.265 109.004 172.305 108.928 172.385 108.832C172.433 108.704 172.453 108.62 172.445 108.58C172.445 108.54 172.485 108.436 172.565 108.268C172.653 108.092 172.733 107.972 172.805 107.908C172.877 107.836 172.945 107.752 173.009 107.656C173.009 107.616 173.033 107.572 173.081 107.524C173.137 107.476 173.193 107.448 173.249 107.44C173.433 107.376 173.573 107.36 173.669 107.392C173.917 107.488 174.065 107.508 174.113 107.452C174.129 107.428 174.209 107.404 174.353 107.38C174.505 107.348 174.609 107.336 174.665 107.344C174.729 107.344 174.797 107.372 174.869 107.428C175.149 107.564 175.425 107.828 175.697 108.22C175.977 108.612 176.173 109.024 176.285 109.456C176.461 110 176.521 110.536 176.465 111.064C176.409 111.664 176.281 112.268 176.081 112.876C175.881 113.484 175.757 113.832 175.709 113.92C175.669 114.008 175.633 114.076 175.601 114.124C175.577 114.164 175.561 114.212 175.553 114.268C175.545 114.316 175.485 114.404 175.373 114.532C175.261 114.66 175.177 114.732 175.121 114.748C174.897 114.924 174.697 115.016 174.521 115.024C174.481 115.032 174.413 115.032 174.317 115.024C174.229 115.024 174.149 115.024 174.077 115.024C174.005 115.024 173.949 115.032 173.909 115.048C173.765 115.032 173.649 115.024 173.561 115.024C173.481 115.032 173.365 115 173.213 114.928C172.973 114.776 172.781 114.588 172.637 114.364C172.605 114.228 172.561 114.132 172.505 114.076L172.385 113.812C172.297 113.756 172.245 113.584 172.229 113.296C171.981 112.576 171.921 111.432 172.049 109.864C172.049 109.76 172.077 109.708 172.133 109.708C172.157 109.668 172.165 109.62 172.157 109.564C172.157 109.508 172.181 109.424 172.229 109.312Z" fill="#0B353E"/>
<path d="M180.392 111.844L180.416 111.46C180.448 111.18 180.428 110.78 180.356 110.26C180.348 109.98 180.316 109.768 180.26 109.624C180.204 109.472 180.088 109.26 179.912 108.988C179.768 108.86 179.696 108.776 179.696 108.736C179.608 108.648 179.504 108.712 179.384 108.928C179.352 109.048 179.196 109.392 178.916 109.96C178.94 110.024 178.916 110.092 178.844 110.164C178.828 110.188 178.82 110.236 178.82 110.308C178.844 110.356 178.852 110.424 178.844 110.512C178.82 110.592 178.796 110.928 178.772 111.52C178.772 111.856 178.8 112.096 178.856 112.24C178.856 112.512 178.872 112.728 178.904 112.888C178.896 113.112 178.912 113.288 178.952 113.416C179.064 113.68 179.184 113.812 179.312 113.812C179.44 113.812 179.58 113.708 179.732 113.5C179.892 113.292 180.016 113.036 180.104 112.732C180.096 112.668 180.108 112.636 180.14 112.636C180.14 112.58 180.16 112.488 180.2 112.36C180.248 112.224 180.272 112.132 180.272 112.084L180.392 111.844ZM177.596 109.312L177.632 109.06C177.632 109.004 177.672 108.928 177.752 108.832C177.8 108.704 177.82 108.62 177.812 108.58C177.812 108.54 177.852 108.436 177.932 108.268C178.02 108.092 178.1 107.972 178.172 107.908C178.244 107.836 178.312 107.752 178.376 107.656C178.376 107.616 178.4 107.572 178.448 107.524C178.504 107.476 178.56 107.448 178.616 107.44C178.8 107.376 178.94 107.36 179.036 107.392C179.284 107.488 179.432 107.508 179.48 107.452C179.496 107.428 179.576 107.404 179.72 107.38C179.872 107.348 179.976 107.336 180.032 107.344C180.096 107.344 180.164 107.372 180.236 107.428C180.516 107.564 180.792 107.828 181.064 108.22C181.344 108.612 181.54 109.024 181.652 109.456C181.828 110 181.888 110.536 181.832 111.064C181.776 111.664 181.648 112.268 181.448 112.876C181.248 113.484 181.124 113.832 181.076 113.92C181.036 114.008 181 114.076 180.968 114.124C180.944 114.164 180.928 114.212 180.92 114.268C180.912 114.316 180.852 114.404 180.74 114.532C180.628 114.66 180.544 114.732 180.488 114.748C180.264 114.924 180.064 115.016 179.888 115.024C179.848 115.032 179.78 115.032 179.684 115.024C179.596 115.024 179.516 115.024 179.444 115.024C179.372 115.024 179.316 115.032 179.276 115.048C179.132 115.032 179.016 115.024 178.928 115.024C178.848 115.032 178.732 115 178.58 114.928C178.34 114.776 178.148 114.588 178.004 114.364C177.972 114.228 177.928 114.132 177.872 114.076L177.752 113.812C177.664 113.756 177.612 113.584 177.596 113.296C177.348 112.576 177.288 111.432 177.416 109.864C177.416 109.76 177.444 109.708 177.5 109.708C177.524 109.668 177.532 109.62 177.524 109.564C177.524 109.508 177.548 109.424 177.596 109.312Z" fill="#0B353E"/>
<path d="M188.386 109.552C188.394 109.688 188.426 110.004 188.482 110.5C188.57 111.38 188.622 111.916 188.638 112.108L188.758 112.672L188.854 113.236C189.03 112.884 189.114 112.68 189.106 112.624C189.106 112.568 189.174 112.36 189.31 112C189.502 111.656 189.626 111.352 189.682 111.088C189.69 111.04 189.734 110.924 189.814 110.74C189.79 110.716 189.81 110.64 189.874 110.512C189.938 110.376 189.986 110.232 190.018 110.08C190.058 109.928 190.078 109.848 190.078 109.84C190.086 109.832 190.094 109.824 190.102 109.816C190.126 109.792 190.158 109.72 190.198 109.6C190.222 109.488 190.234 109.4 190.234 109.336V108.964C190.234 108.94 190.254 108.856 190.294 108.712L190.282 108.436C190.282 108.244 190.374 107.996 190.558 107.692L190.798 107.488C190.798 107.416 190.858 107.372 190.978 107.356C191.106 107.34 191.218 107.348 191.314 107.38C191.41 107.412 191.474 107.428 191.506 107.428C191.538 107.46 191.654 107.5 191.854 107.548C191.95 107.58 192.01 107.64 192.034 107.728C192.066 107.816 192.082 107.936 192.082 108.088L191.998 109.024C191.998 109.08 191.974 109.468 191.926 110.188L191.938 110.572C191.93 110.588 191.926 110.724 191.926 110.98V111.604C191.926 111.724 191.926 111.8 191.926 111.832L191.962 112.288C191.93 112.288 191.978 112.644 192.106 113.356C192.106 113.468 192.146 113.712 192.226 114.088C192.314 114.456 192.338 114.764 192.298 115.012C192.298 115.14 192.182 115.256 191.95 115.36C191.774 115.328 191.666 115.276 191.626 115.204C191.554 115.164 191.51 115.132 191.494 115.108L191.398 114.988C191.27 114.884 191.166 114.76 191.086 114.616C191.03 114.56 190.99 114.48 190.966 114.376C190.886 114.264 190.838 114.124 190.822 113.956C190.806 113.788 190.774 113.672 190.726 113.608C190.686 113.536 190.654 113.468 190.63 113.404C190.542 113.316 190.486 113.16 190.462 112.936C190.438 112.704 190.414 112.504 190.39 112.336C190.39 112.24 190.394 112.168 190.402 112.12C190.378 112.056 190.362 112.008 190.354 111.976C190.354 111.944 190.35 111.908 190.342 111.868L190.294 112.096C190.27 112.136 190.218 112.292 190.138 112.564L189.886 113.344L189.67 114.1C189.63 114.124 189.582 114.22 189.526 114.388C189.454 114.572 189.41 114.672 189.394 114.688C189.386 114.704 189.374 114.728 189.358 114.76C189.294 114.888 189.222 114.992 189.142 115.072C188.926 115.272 188.702 115.328 188.47 115.24C188.246 115.16 188.082 115 187.978 114.76C187.922 114.624 187.878 114.536 187.846 114.496C187.838 114.432 187.794 114.32 187.714 114.16C187.658 114.008 187.614 113.816 187.582 113.584C187.542 113.512 187.514 113.388 187.498 113.212C187.458 113.14 187.43 113.036 187.414 112.9C187.398 112.764 187.374 112.632 187.342 112.504C187.302 112.368 187.274 112.204 187.258 112.012C187.242 111.868 187.182 111.604 187.078 111.22C187.054 111.196 187.022 111.116 186.982 110.98C186.966 111.108 186.958 111.18 186.958 111.196C186.958 111.204 186.926 111.4 186.862 111.784C186.878 111.8 186.874 111.92 186.85 112.144C186.802 112.296 186.774 112.456 186.766 112.624C186.702 113.056 186.674 113.38 186.682 113.596C186.706 113.668 186.706 113.756 186.682 113.86C186.666 113.956 186.65 114.056 186.634 114.16C186.626 114.256 186.61 114.344 186.586 114.424V114.508C186.562 114.756 186.558 114.896 186.574 114.928C186.574 115.016 186.538 115.124 186.466 115.252C186.402 115.38 186.298 115.428 186.154 115.396C185.898 115.332 185.75 115.284 185.71 115.252C185.622 115.108 185.578 114.98 185.578 114.868V114.292L185.602 114.076C185.594 114.052 185.598 113.96 185.614 113.8C185.606 113.792 185.602 113.728 185.602 113.608C185.602 113.48 185.59 113.384 185.566 113.32V113.2C185.55 112.928 185.546 112.772 185.554 112.732C185.57 112.684 185.57 112.584 185.554 112.432C185.586 112.432 185.606 112.372 185.614 112.252C185.622 112.124 185.634 111.988 185.65 111.844L185.734 111.808C185.718 111.8 185.714 111.688 185.722 111.472C185.73 111.416 185.75 111.272 185.782 111.04C185.814 110.808 185.826 110.652 185.818 110.572C185.818 110.484 185.862 110.348 185.95 110.164C186.118 109.66 186.206 109.34 186.214 109.204C186.23 109.068 186.254 108.948 186.286 108.844C186.318 108.58 186.394 108.36 186.514 108.184C186.57 108.008 186.674 107.904 186.826 107.872L186.97 107.764H186.982C187.134 107.652 187.406 107.636 187.798 107.716C188.134 107.868 188.318 108.056 188.35 108.28C188.318 108.392 188.33 108.78 188.386 109.444V109.552Z" fill="#0B353E"/>
</svg>
