<svg width="370" height="307" viewBox="0 0 370 307" fill="none" xmlns="http://www.w3.org/2000/svg">
<path d="M166.689 36.0646C175.958 33.5778 193.677 112.555 238.656 170.651H0C34.5725 136.254 50.2713 76.1683 62.2659 68.6968C74.2604 61.2254 86.7841 133.14 102.836 136.254C126.472 140.841 144.993 41.8857 166.689 36.0646Z" fill="#1B5865"/>
<path d="M159.809 95.0981C149.932 91.5174 156.105 84.1619 142.876 84.1619C144.816 75.5187 154.165 56.2922 161.926 46.4143C169.866 36.3098 177.33 63.844 183.093 75.8715C187.15 84.3383 197.522 104.482 188.914 105.329C178.154 106.387 177.449 88.9244 170.922 86.2786C164.396 83.6327 173.921 100.213 159.809 95.0981Z" fill="#F5F5F5"/>
<path fill-rule="evenodd" clip-rule="evenodd" d="M189.626 208.422L196.016 237.249H194.678L197.966 251.217H196.09L201.081 266.688H178.564L183.555 251.217H181.535L184.823 237.249H183.236L189.626 208.422Z" fill="#136753"/>
<path fill-rule="evenodd" clip-rule="evenodd" d="M219.547 248.578L225.937 277.406H224.599L227.887 291.374H226.011L231.002 306.845H208.485L213.476 291.374H211.455L214.744 277.406H213.157L219.547 248.578Z" fill="#136753"/>
<path d="M369.459 113.595H240.468C274.332 72.1932 286.706 0 303.116 0C319.527 0 344.061 78.8508 369.459 113.595Z" fill="#43686F"/>
<path fill-rule="evenodd" clip-rule="evenodd" d="M280.451 83.2505L286.841 112.078H285.503L288.791 126.046H286.915L291.906 141.517H269.389L274.381 126.046H272.36L275.648 112.078H274.061L280.451 83.2505Z" fill="#136753"/>
<path fill-rule="evenodd" clip-rule="evenodd" d="M122.186 29.708L128.576 58.5358H127.238L130.527 72.5035H128.65L133.642 87.9746H111.125L116.116 72.5035H114.095L117.384 58.5358H115.796L122.186 29.708Z" fill="#136753"/>
<path fill-rule="evenodd" clip-rule="evenodd" d="M330.844 112.384L337.234 141.212H335.896L339.184 155.179H337.308L342.299 170.65H319.782L324.774 155.179H322.753L326.041 141.212H324.454L330.844 112.384Z" fill="#136753"/>
<path d="M242.601 79.3475C251.897 76.8533 269.668 156.065 314.782 214.333H75.416C110.091 179.835 125.837 119.57 137.867 112.077C149.897 104.583 162.458 176.711 178.557 179.835C202.264 184.435 220.84 85.1859 242.601 79.3475Z" fill="#1B5865"/>
<path fill-rule="evenodd" clip-rule="evenodd" d="M230.57 181.65L236.96 210.478H235.622L238.91 224.446H237.034L242.026 239.917H219.508L224.5 224.446H222.479L225.767 210.478H224.18L230.57 181.65Z" fill="#136753"/>
<path fill-rule="evenodd" clip-rule="evenodd" d="M255.766 219.445L262.156 248.273H260.818L264.107 262.241H262.23L267.222 277.712H244.705L249.696 262.241H247.675L250.964 248.273H249.376L255.766 219.445Z" fill="#136753"/>
<path fill-rule="evenodd" clip-rule="evenodd" d="M117.186 181.65L123.576 210.478H122.238L125.527 224.446H123.65L128.642 239.917H106.125L111.116 224.446H109.095L112.384 210.478H110.796L117.186 181.65Z" fill="#136753"/>
<path fill-rule="evenodd" clip-rule="evenodd" d="M280.963 185.587L287.353 214.415H286.015L289.303 228.383H287.427L292.418 243.854H269.901L274.892 228.383H272.872L276.16 214.415H274.573L280.963 185.587Z" fill="#136753"/>
</svg>
