<svg width="946" height="748" viewBox="0 0 946 748" fill="none" xmlns="http://www.w3.org/2000/svg">
<path d="M182.624 145.333H17.5938C60.9192 92.3639 76.7501 0 97.7458 0C118.742 0 150.13 100.882 182.624 145.333Z" fill="#1E525D"/>
<path d="M310.577 19.9548C321.424 17.0444 342.16 109.471 394.8 177.46H115.502C155.962 137.206 174.334 66.8878 188.371 58.144C202.408 49.4002 217.065 133.561 235.85 137.206C263.511 142.574 285.186 26.7671 310.577 19.9548Z" fill="#1B5865"/>
<path d="M165.031 218H0C43.3254 165.031 59.1564 72.6666 80.1521 72.6666C101.148 72.6666 132.536 173.548 165.031 218Z" fill="#1E525D"/>
<path d="M104.516 554.568C163.891 626.179 315.085 698.905 522.63 701.329C771.677 681.532 829.666 431.28 788.025 321.693C746.383 212.107 454.999 148.263 326.525 177.193C277.888 188.146 112.197 220.301 76.0147 285.179C44.9081 340.956 52.6753 355.552 95.023 397.694C150.536 452.936 45.142 482.957 104.516 554.568Z" fill="#615968"/>
<path d="M159.516 559.568C218.891 631.179 370.085 703.905 577.63 706.329C826.677 686.532 884.666 436.28 843.025 326.693C801.383 217.107 509.999 153.263 381.525 182.193C332.888 193.146 167.197 225.301 131.015 290.179C99.9081 345.956 107.675 360.552 150.023 402.694C205.536 457.936 100.142 487.957 159.516 559.568Z" fill="#D8CEAE"/>
<path d="M222.516 561.568C281.891 633.179 433.085 705.905 640.63 708.329C889.677 688.532 947.666 438.28 906.025 328.693C864.383 219.107 572.999 155.263 444.525 184.193C395.888 195.146 230.197 227.301 194.015 292.179C162.908 347.956 170.675 362.552 213.023 404.694C268.536 459.936 163.142 489.957 222.516 561.568Z" fill="#67C9D0"/>
<path d="M143.253 222.853H146.159L147.473 276.811H142.216L143.253 222.853Z" fill="#935A48"/>
<path d="M149.067 234.564C149.067 228.476 148.998 225.294 144.433 223.011C142.795 224.326 137.096 225.828 137.096 235.167C132.738 229.909 133.72 225.703 137.096 221.331L137.093 221.33C135.337 220.915 130.108 219.676 127.688 227.557C125.198 220.224 129.625 215.451 138.341 215.382C136.981 214.022 133.915 211.854 127.688 215.935C129.487 205.421 142.7 207.427 145.674 212.822C150.032 206.942 156.466 206.043 162 212.338C159.464 212.592 150.946 212.919 148.234 216.627C151.001 215.313 161.239 217.665 162 227.557L161.74 227.365C154.844 222.276 153.563 221.331 148.234 221.331C154.463 222.942 156.4 229.86 149.067 234.564Z" fill="#7EA755"/>
<path d="M193.253 191.853H196.159L197.473 245.811H192.216L193.253 191.853Z" fill="#935A48"/>
<path d="M199.067 203.564C199.067 197.476 198.998 194.294 194.433 192.011C192.795 193.326 187.096 194.828 187.096 204.167C182.738 198.909 183.72 194.703 187.096 190.331L187.093 190.33C185.337 189.915 180.108 188.676 177.688 196.557C175.198 189.224 179.625 184.451 188.341 184.382C186.981 183.022 183.915 180.854 177.688 184.935C179.487 174.421 192.7 176.427 195.674 181.822C200.032 175.942 206.466 175.043 212 181.338C209.464 181.592 200.946 181.919 198.234 185.627C201.001 184.313 211.239 186.665 212 196.557L211.74 196.365C204.844 191.276 203.563 190.331 198.234 190.331C204.463 191.942 206.4 198.86 199.067 203.564Z" fill="#7EA755"/>
<path d="M243.253 168.853H246.159L247.473 222.811H242.216L243.253 168.853Z" fill="#935A48"/>
<path d="M249.067 180.564C249.067 174.476 248.998 171.294 244.433 169.011C242.795 170.326 237.096 171.828 237.096 181.167C232.738 175.909 233.72 171.703 237.096 167.331L237.093 167.33C235.337 166.915 230.108 165.676 227.688 173.557C225.198 166.224 229.625 161.451 238.341 161.382C236.981 160.022 233.915 157.854 227.688 161.935C229.487 151.421 242.7 153.427 245.674 158.822C250.032 152.942 256.466 152.043 262 158.338C259.464 158.592 250.946 158.919 248.234 162.627C251.001 161.313 261.239 163.665 262 173.557L261.74 173.365C254.844 168.276 253.563 167.331 248.234 167.331C254.463 168.942 256.4 175.86 249.067 180.564Z" fill="#7EA755"/>
<path d="M302.253 150.853H305.159L306.473 204.811H301.216L302.253 150.853Z" fill="#935A48"/>
<path d="M308.067 162.564C308.067 156.476 307.998 153.294 303.433 151.011C301.795 152.326 296.096 153.828 296.096 163.167C291.738 157.909 292.72 153.703 296.096 149.331L296.093 149.33C294.337 148.915 289.108 147.676 286.688 155.557C284.198 148.224 288.625 143.451 297.341 143.382C295.981 142.022 292.915 139.854 286.688 143.935C288.487 133.421 301.7 135.427 304.674 140.822C309.032 134.942 315.466 134.043 321 140.338C318.464 140.592 309.946 140.919 307.234 144.627C310.001 143.313 320.239 145.665 321 155.557L320.74 155.365C313.844 150.276 312.563 149.331 307.234 149.331C313.463 150.942 315.4 157.86 308.067 162.564Z" fill="#7EA755"/>
<path d="M123.253 264.853H126.159L127.473 318.811H122.216L123.253 264.853Z" fill="#935A48"/>
<path d="M129.067 276.564C129.067 270.476 128.998 267.294 124.433 265.011C122.795 266.326 117.096 267.828 117.096 277.167C112.738 271.909 113.72 267.703 117.096 263.331L117.093 263.33C115.337 262.915 110.108 261.676 107.688 269.557C105.198 262.224 109.625 257.451 118.341 257.382C116.981 256.022 113.915 253.854 107.688 257.935C109.487 247.421 122.7 249.427 125.674 254.822C130.032 248.942 136.466 248.043 142 254.338C139.464 254.592 130.946 254.919 128.234 258.627C131.001 257.313 141.239 259.665 142 269.557L141.74 269.365C134.844 264.276 133.563 263.331 128.234 263.331C134.463 264.942 136.4 271.86 129.067 276.564Z" fill="#7EA755"/>
<path d="M123.253 317.853H126.159L127.473 371.811H122.216L123.253 317.853Z" fill="#935A48"/>
<path d="M129.067 329.564C129.067 323.476 128.998 320.294 124.433 318.011C122.795 319.326 117.096 320.828 117.096 330.167C112.738 324.909 113.72 320.703 117.096 316.331L117.093 316.33C115.337 315.915 110.108 314.676 107.688 322.557C105.198 315.224 109.625 310.451 118.341 310.382C116.981 309.022 113.915 306.854 107.688 310.935C109.487 300.421 122.7 302.427 125.674 307.822C130.032 301.942 136.466 301.043 142 307.338C139.464 307.592 130.946 307.919 128.234 311.627C131.001 310.313 141.239 312.665 142 322.557L141.74 322.365C134.844 317.276 133.563 316.331 128.234 316.331C134.463 317.942 136.4 324.86 129.067 329.564Z" fill="#7EA755"/>
<path d="M158.253 352.853H161.159L162.473 406.811H157.216L158.253 352.853Z" fill="#935A48"/>
<path d="M164.067 364.564C164.067 358.476 163.998 355.294 159.433 353.011C157.795 354.326 152.096 355.828 152.096 365.167C147.738 359.909 148.72 355.703 152.096 351.331L152.093 351.33C150.337 350.915 145.108 349.676 142.688 357.557C140.198 350.224 144.625 345.451 153.341 345.382C151.981 344.022 148.915 341.854 142.688 345.935C144.487 335.421 157.7 337.427 160.674 342.822C165.032 336.942 171.466 336.043 177 342.338C174.464 342.592 165.946 342.919 163.234 346.627C166.001 345.313 176.239 347.665 177 357.557L176.74 357.365C169.844 352.276 168.563 351.331 163.234 351.331C169.463 352.942 171.4 359.86 164.067 364.564Z" fill="#7EA755"/>
<path d="M173.253 405.853H176.159L177.473 459.811H172.216L173.253 405.853Z" fill="#935A48"/>
<path d="M179.067 417.564C179.067 411.476 178.998 408.294 174.433 406.011C172.795 407.326 167.096 408.828 167.096 418.167C162.738 412.909 163.72 408.703 167.096 404.331L167.093 404.33C165.337 403.915 160.108 402.676 157.688 410.557C155.198 403.224 159.625 398.451 168.341 398.382C166.981 397.022 163.915 394.854 157.688 398.935C159.487 388.421 172.7 390.427 175.674 395.822C180.032 389.942 186.466 389.043 192 395.338C189.464 395.592 180.946 395.919 178.234 399.627C181.001 398.313 191.239 400.665 192 410.557L191.74 410.365C184.844 405.276 183.563 404.331 178.234 404.331C184.463 405.942 186.4 412.86 179.067 417.564Z" fill="#7EA755"/>
<path d="M145.253 458.853H148.159L149.473 512.811H144.216L145.253 458.853Z" fill="#935A48"/>
<path d="M151.067 470.564C151.067 464.476 150.998 461.294 146.433 459.011C144.795 460.326 139.096 461.828 139.096 471.167C134.738 465.909 135.72 461.703 139.096 457.331L139.093 457.33C137.337 456.915 132.108 455.676 129.688 463.557C127.198 456.224 131.625 451.451 140.341 451.382C138.981 450.022 135.915 447.854 129.688 451.935C131.487 441.421 144.7 443.427 147.674 448.822C152.032 442.942 158.466 442.043 164 448.338C161.464 448.592 152.946 448.919 150.234 452.627C153.001 451.313 163.239 453.665 164 463.557L163.74 463.365C156.844 458.276 155.563 457.331 150.234 457.331C156.463 458.942 158.4 465.86 151.067 470.564Z" fill="#7EA755"/>
<path d="M165.253 510.853H168.159L169.473 564.811H164.216L165.253 510.853Z" fill="#935A48"/>
<path d="M171.067 522.564C171.067 516.476 170.998 513.294 166.433 511.011C164.795 512.326 159.096 513.828 159.096 523.167C154.738 517.909 155.72 513.703 159.096 509.331L159.093 509.33C157.337 508.915 152.108 507.676 149.688 515.557C147.198 508.224 151.625 503.451 160.341 503.382C158.981 502.022 155.915 499.854 149.688 503.935C151.487 493.421 164.7 495.427 167.674 500.822C172.032 494.942 178.466 494.043 184 500.338C181.464 500.592 172.946 500.919 170.234 504.627C173.001 503.313 183.239 505.665 184 515.557L183.74 515.365C176.844 510.276 175.563 509.331 170.234 509.331C176.463 510.942 178.4 517.86 171.067 522.564Z" fill="#7EA755"/>
<path d="M87.584 355.832C87.5413 355.725 87.5307 355.544 87.552 355.288C87.5947 355.032 87.6373 354.691 87.68 354.264C87.68 353.603 87.6907 353.197 87.712 353.048L87.68 352.408C87.68 352.067 87.6907 351.779 87.712 351.544V350.616C87.7547 350.424 87.7547 350.104 87.712 349.656C87.6907 349.208 87.712 348.643 87.776 347.96C87.84 347.256 87.8933 346.829 87.936 346.68V346.04C87.936 345.976 87.9467 345.752 87.968 345.368V345.144C87.9893 344.824 87.9787 344.632 87.936 344.568L88.224 343.384L88.352 342.712C88.3947 342.627 88.5547 342.445 88.832 342.168C88.896 342.104 89.1413 342.072 89.568 342.072C89.9947 342.072 90.3147 342.083 90.528 342.104C90.7413 342.125 90.88 342.189 90.944 342.296C91.008 342.381 91.072 342.573 91.136 342.872C91.264 343.149 91.296 343.501 91.232 343.928C91.2533 344.056 91.264 344.152 91.264 344.216V344.536C91.328 344.963 91.3173 345.4 91.232 345.848C91.232 346.019 91.2427 346.189 91.264 346.36V346.648C91.264 347.075 91.232 347.448 91.168 347.768V348.568C91.1893 348.845 91.1573 349.112 91.072 349.368C91.072 349.453 91.0613 349.709 91.04 350.136C90.9973 350.285 90.9547 350.467 90.912 350.68C90.976 350.851 90.976 351.075 90.912 351.352C90.848 351.416 90.8693 351.672 90.976 352.12C90.8907 352.397 90.9013 352.899 91.008 353.624V354.264C91.072 354.947 91.0613 355.619 90.976 356.28V356.472C90.976 356.899 90.9547 357.208 90.912 357.4C90.9547 357.763 90.9547 358.221 90.912 358.776V358.968L90.848 359.736C90.6133 361.251 89.9307 362.115 88.8 362.328C87.4133 362.584 86.3147 362.211 85.504 361.208L85.312 360.728C85.0773 360.685 84.768 360.195 84.384 359.256C83.7867 357.827 83.456 357.037 83.392 356.888C83.0933 356.056 82.944 355.608 82.944 355.544L82.88 354.936C82.8587 354.893 82.816 354.808 82.752 354.68C82.688 354.552 82.6347 354.424 82.592 354.296C82.592 354.147 82.5173 353.827 82.368 353.336C82.368 353.293 82.3147 353.027 82.208 352.536L81.824 349.688C81.824 349.624 81.8133 349.517 81.792 349.368L81.664 350.072C81.5147 351.501 81.408 352.365 81.344 352.664L81.184 355.896V357.176L81.088 358.744C81.088 359.533 81.12 360.269 81.184 360.952C81.1627 361.571 81.0453 361.987 80.832 362.2C80.6187 362.392 80.2987 362.499 79.872 362.52C79.5733 362.435 79.168 362.275 78.656 362.04C78.5067 361.955 78.4 361.784 78.336 361.528C78.2933 361.251 78.176 361.016 77.984 360.824C77.792 360.632 77.6853 360.419 77.664 360.184L77.28 357.752C77.28 357.411 77.2907 357.059 77.312 356.696C77.3547 356.312 77.3547 355.917 77.312 355.512C77.2907 355.107 77.344 354.637 77.472 354.104C77.6213 353.571 77.6853 353.123 77.664 352.76C77.6427 352.376 77.664 351.896 77.728 351.32C77.792 350.723 77.824 350.296 77.824 350.04C77.824 349.763 77.856 349.549 77.92 349.4C77.92 349.059 77.9413 348.792 77.984 348.6C77.9627 348.536 78.0267 348.216 78.176 347.64C78.176 347.491 78.208 347.267 78.272 346.968C78.336 346.669 78.4 346.264 78.464 345.752C78.528 345.24 78.6453 344.824 78.816 344.504C78.9867 344.184 79.2533 343.821 79.616 343.416C79.808 343.309 79.9787 343.032 80.128 342.584C80.2773 342.371 80.5547 342.168 80.96 341.976C81.1093 341.869 81.3013 341.816 81.536 341.816C81.792 341.816 82.0267 341.891 82.24 342.04C83.072 342.36 83.584 342.925 83.776 343.736L83.904 344.536C83.904 344.664 84 344.952 84.192 345.4C84.192 345.613 84.2347 345.923 84.32 346.328C84.32 346.627 84.3947 346.936 84.544 347.256C84.7573 348.344 84.9173 349.101 85.024 349.528C85.1307 349.677 85.216 349.88 85.28 350.136C85.3227 350.328 85.408 350.616 85.536 351C85.5787 351.363 85.6747 351.779 85.824 352.248C86.6987 355.107 87.2427 356.717 87.456 357.08C87.4987 356.995 87.52 356.728 87.52 356.28L87.584 355.832Z" fill="#D8CEAE"/>
<path d="M107.064 364.4C107.128 364.677 107.075 364.869 106.904 364.976C106.733 365.061 106.552 365.104 106.36 365.104C106.189 365.104 105.72 365.125 104.952 365.168C104.461 365.275 103.971 365.413 103.48 365.584H103.448C103.448 365.968 103.341 366.533 103.128 367.28C103.128 367.536 103.075 367.952 102.968 368.528C102.968 368.699 102.936 368.869 102.872 369.04C102.808 369.211 102.776 369.477 102.776 369.84C102.627 370.715 102.563 371.195 102.584 371.28C102.605 371.365 102.605 371.483 102.584 371.632C102.563 371.781 102.52 372.005 102.456 372.304C102.392 372.603 102.36 372.955 102.36 373.36C102.36 373.765 102.307 374.128 102.2 374.448V374.8C102.243 375.568 102.211 376.112 102.104 376.432C102.019 376.752 101.976 377.029 101.976 377.264C101.976 377.477 101.923 377.819 101.816 378.288C101.709 378.757 101.677 379.312 101.72 379.952H101.912C102.445 379.909 102.723 379.899 102.744 379.92C102.787 379.92 102.936 379.888 103.192 379.824L103.704 379.856H104.024C104.088 379.856 104.227 379.941 104.44 380.112C104.653 380.261 104.803 380.411 104.888 380.56C105.037 380.709 105.08 380.859 105.016 381.008C104.973 381.136 104.739 381.36 104.312 381.68L103.704 381.872C103.64 381.936 103.491 382.011 103.256 382.096C103.021 382.181 102.819 382.224 102.648 382.224C102.157 382.331 101.869 382.512 101.784 382.768C101.699 382.939 101.187 383.003 100.248 382.96H99.16L98.552 383.152C98.0187 383.365 97.5493 383.419 97.144 383.312C96.7387 383.205 96.4613 383.12 96.312 383.056C96.184 383.013 96.024 382.907 95.832 382.736C95.64 382.587 95.5547 382.405 95.576 382.192C95.6187 382 95.6933 381.712 95.8 381.328C96.1627 381.029 96.4187 380.837 96.568 380.752C97.592 380.432 98.2427 380.219 98.52 380.112C98.52 379.408 98.4987 378.992 98.456 378.864C98.52 378.843 98.5947 378.384 98.68 377.488C98.7013 377.403 98.648 377.2 98.52 376.88V376.688C98.584 376.091 98.5733 375.547 98.488 375.056C98.488 375.035 98.5307 374.661 98.616 373.936C98.7227 373.808 98.7227 373.467 98.616 372.912C98.7013 372.507 98.776 372.187 98.84 371.952L98.872 371.504C98.872 371.376 98.936 370.992 99.064 370.352V370.032L99.128 369.776C99.512 368.197 99.768 367.045 99.896 366.32C99.7253 366.363 99.6187 366.384 99.576 366.384L98.52 366.544C97.7093 366.757 96.9947 366.576 96.376 366C95.8427 365.275 95.832 364.656 96.344 364.144C96.664 363.867 97.1547 363.675 97.816 363.568C98.392 363.376 98.7653 363.237 98.936 363.152C99.1493 363.152 99.6507 362.917 100.44 362.448C101.229 362.341 101.688 362.288 101.816 362.288L103.32 362.096C103.512 362.075 103.768 362.096 104.088 362.16C104.408 362.203 104.6 362.267 104.664 362.352C104.941 362.416 105.283 362.544 105.688 362.736L106.456 363.44C106.755 363.867 106.957 364.187 107.064 364.4Z" fill="#D8CEAE"/>
<path d="M114.984 381.416C115.283 381.288 115.901 381.245 116.84 381.288C117.779 381.309 118.451 381.395 118.856 381.544L119.656 381.8C120.317 382.248 120.691 382.472 120.776 382.472C121.651 383.155 122.152 384.051 122.28 385.16C122.408 385.629 122.429 386.056 122.344 386.44C122.344 386.568 122.301 386.845 122.216 387.272L121.896 388.008L121.512 388.552C121.384 388.573 121.309 388.584 121.288 388.584C120.499 388.712 119.891 388.733 119.464 388.648C119.037 388.541 118.664 388.307 118.344 387.944C118.28 387.816 118.248 387.699 118.248 387.592C118.269 387.485 118.301 387.389 118.344 387.304L118.504 386.792C118.781 386.109 118.76 385.533 118.44 385.064C118.44 385 118.333 384.883 118.12 384.712C117.907 384.541 117.736 384.413 117.608 384.328C117.501 384.243 117.299 384.232 117 384.296C116.488 384.509 116.051 385.16 115.688 386.248C115.261 386.803 114.963 387.528 114.792 388.424C114.536 390.024 114.408 390.931 114.408 391.144L114.376 391.848V392.136C114.333 392.179 114.355 393.107 114.44 394.92C114.461 395.027 114.504 395.176 114.568 395.368C114.632 395.603 114.728 395.987 114.856 396.52L115.272 397.224C115.379 397.288 115.517 397.48 115.688 397.8C115.795 397.8 115.88 397.875 115.944 398.024C116.093 398.173 116.157 398.259 116.136 398.28C116.243 398.301 116.403 398.365 116.616 398.472C117.192 398.771 117.693 398.707 118.12 398.28C118.269 398.131 118.451 397.928 118.664 397.672C118.899 397.395 119.069 397.181 119.176 397.032C119.304 396.861 119.496 396.701 119.752 396.552C120.456 396.019 121.064 396.04 121.576 396.616C121.683 396.787 121.693 397.203 121.608 397.864C121.544 398.504 121.245 399.176 120.712 399.88C120.669 400.008 120.531 400.221 120.296 400.52C120.061 400.797 119.816 401.021 119.56 401.192C119.517 401.341 118.707 401.448 117.128 401.512C117.043 401.512 116.872 401.491 116.616 401.448C116.381 401.512 116.061 401.48 115.656 401.352C115.272 401.224 115.059 401.16 115.016 401.16L114.6 401.064C114.429 401.064 114.259 401.011 114.088 400.904C113.917 400.797 113.629 400.616 113.224 400.36C112.84 400.083 112.541 399.859 112.328 399.688C111.688 399.176 111.229 398.589 110.952 397.928C110.867 397.779 110.813 397.576 110.792 397.32C110.771 397.043 110.728 396.84 110.664 396.712C110.493 396.541 110.408 396.264 110.408 395.88C110.429 395.496 110.408 395.027 110.344 394.472C110.344 394.216 110.355 394.067 110.376 394.024C110.269 393.917 110.227 393.736 110.248 393.48C110.269 393.203 110.28 392.829 110.28 392.36C110.344 392.232 110.365 391.859 110.344 391.24C110.344 390.6 110.365 390.12 110.408 389.8C110.323 389.608 110.312 389.331 110.376 388.968L110.408 388.008C110.429 387.624 110.525 387.219 110.696 386.792C110.717 386.6 110.76 386.376 110.824 386.12C110.888 385.843 111.165 385.299 111.656 384.488C111.656 384.317 111.816 384.104 112.136 383.848C112.136 383.763 112.221 383.635 112.392 383.464C112.563 383.293 112.755 383.08 112.968 382.824C113.267 382.461 113.597 382.195 113.96 382.024C114.323 381.853 114.664 381.651 114.984 381.416Z" fill="#D8CEAE"/>
<path d="M130.152 412.544V413.824C130.152 415.147 130.227 415.883 130.376 416.032C130.355 416.053 130.408 416.309 130.536 416.8C130.536 416.971 130.621 417.237 130.792 417.6C130.792 417.707 131.091 417.963 131.688 418.368C131.944 418.368 132.573 418.155 133.576 417.728L135.848 416.864C136.125 416.779 136.381 416.821 136.616 416.992C136.872 417.141 137.021 417.419 137.064 417.824C137.128 418.208 137.117 418.485 137.032 418.656C136.968 418.827 136.787 419.04 136.488 419.296C136.211 419.552 136.029 419.733 135.944 419.84C135.859 419.947 135.699 420.053 135.464 420.16C135.229 420.288 134.963 420.416 134.664 420.544C134.387 420.672 134.195 420.768 134.088 420.832C133.256 421.216 132.616 421.365 132.168 421.28C131.891 421.28 131.603 421.227 131.304 421.12C131.027 421.013 130.867 420.96 130.824 420.96C130.803 420.981 130.717 420.971 130.568 420.928C130.44 420.907 130.312 420.875 130.184 420.832C130.056 420.811 129.725 420.747 129.192 420.64C129.192 420.555 129.043 420.469 128.744 420.384L127.88 419.68C127.731 419.595 127.571 419.328 127.4 418.88L127.112 418.4C127.027 418.336 126.909 418.091 126.76 417.664C126.675 417.557 126.621 417.365 126.6 417.088C126.493 416.853 126.44 416.523 126.44 416.096C126.355 415.989 126.259 415.584 126.152 414.88C126.003 413.963 125.992 413.141 126.12 412.416C126.12 412.011 126.195 411.616 126.344 411.232C126.365 411.061 126.387 410.891 126.408 410.72C126.515 410.165 126.589 409.739 126.632 409.44C126.547 409.141 126.685 408.427 127.048 407.296C127.048 407.125 127.112 406.88 127.24 406.56C127.389 406.219 127.475 405.867 127.496 405.504L127.752 404.896C127.752 404.725 127.912 404.096 128.232 403.008C128.403 402.603 128.488 402.368 128.488 402.304L129.288 400.608L129.672 400.096C129.821 399.947 130.045 399.819 130.344 399.712C130.472 399.605 130.813 399.616 131.368 399.744C131.709 399.872 131.944 400 132.072 400.128C132.221 400.192 132.403 400.224 132.616 400.224L135.08 400.064C135.699 400.107 136.115 400.181 136.328 400.288C136.541 400.373 136.744 400.533 136.936 400.768C137.149 401.003 137.224 401.237 137.16 401.472C137.117 401.707 137.032 401.888 136.904 402.016C136.627 402.251 136.115 402.528 135.368 402.848C134.067 403.552 133.363 403.925 133.256 403.968L132.488 404.32C132.168 404.533 131.965 404.757 131.88 404.992C131.219 407.381 130.856 408.715 130.792 408.992C130.749 409.248 130.717 409.408 130.696 409.472C130.696 409.515 130.696 409.547 130.696 409.568L131.336 409.504C132.275 409.205 132.829 409.109 133 409.216C133.085 409.216 133.203 409.184 133.352 409.12C134.141 408.843 134.835 408.725 135.432 408.768C135.539 408.704 135.656 408.747 135.784 408.896C135.912 409.045 136.008 409.227 136.072 409.44C136.2 409.973 136.04 410.389 135.592 410.688C134.696 411.285 133.629 411.765 132.392 412.128C131.987 412.448 131.421 412.651 130.696 412.736L130.152 412.544Z" fill="#D8CEAE"/>
<path d="M404 245.734H421V245.734C421 248.345 418.883 250.462 416.272 250.462H408.728C406.117 250.462 404 248.345 404 245.734V245.734Z" fill="#935A48"/>
<rect x="408.627" y="241.609" width="0.804734" height="5.02959" fill="#935A48"/>
<path d="M405.408 223C409.433 236.882 419.696 242.54 419.696 242.54H405.409L405.408 223Z" fill="white"/>
<path d="M343.619 503.597H317V503.597C317 507.686 320.314 511 324.403 511H336.216C340.305 511 343.619 507.686 343.619 503.597V503.597Z" fill="#935A48"/>
<rect width="1.26007" height="7.87547" transform="matrix(-1 0 0 1 336.374 497.139)" fill="#935A48"/>
<path d="M341.414 468C335.112 489.736 319.042 498.596 319.042 498.596H341.413L341.414 468Z" fill="white"/>
<path d="M282.2 293.564C283.042 291.761 284.424 289.822 286.596 289.207H313.175L310.194 296.931H281.083C281.093 296.883 281.107 296.814 281.126 296.728C281.167 296.546 281.23 296.283 281.319 295.965C281.497 295.327 281.78 294.465 282.2 293.564Z" fill="white" stroke="white" stroke-width="0.137931"/>
<rect x="290.31" y="286.586" width="8.68966" height="4.27586" fill="white" stroke="white" stroke-width="0.137931"/>
<rect x="293.207" y="265.069" width="0.413793" height="26.8966" fill="white" stroke="white" stroke-width="0.137931"/>
<line x1="285.96" y1="289.785" x2="293.27" y2="265.371" stroke="white" stroke-width="0.3"/>
<line x1="303.483" y1="289.885" x2="293.276" y2="265.472" stroke="white" stroke-width="0.3"/>
<path d="M506.399 393.863C505.875 392.74 505.016 391.538 503.672 391.155H487.101L488.944 395.931H507.089C507.084 395.905 507.077 395.873 507.069 395.836C507.043 395.722 507.004 395.559 506.949 395.36C506.838 394.962 506.661 394.425 506.399 393.863Z" fill="white" stroke="white" stroke-width="0.137931"/>
<rect x="-0.0689655" y="0.0689655" width="5.37931" height="2.62069" transform="matrix(-1 0 0 1 501.26 389.448)" fill="white" stroke="white" stroke-width="0.137931"/>
<rect x="-0.0689655" y="0.0689655" width="0.206897" height="16.7586" transform="matrix(-1 0 0 1 499.449 376)" fill="white" stroke="white" stroke-width="0.137931"/>
<line y1="-0.15" x2="15.928" y2="-0.15" transform="matrix(-0.286851 -0.957975 -0.957975 0.286851 503.983 391.517)" stroke="white" stroke-width="0.3"/>
<line y1="-0.15" x2="16.5385" y2="-0.15" transform="matrix(0.385725 -0.922614 -0.922614 -0.385725 493.035 391.517)" stroke="white" stroke-width="0.3"/>
<path d="M473.156 427.888C472.394 426.256 471.143 424.501 469.178 423.944H445.101L447.797 430.931H474.167C474.158 430.888 474.146 430.829 474.129 430.755C474.093 430.59 474.036 430.352 473.955 430.063C473.794 429.486 473.537 428.704 473.156 427.888Z" fill="white" stroke="white" stroke-width="0.137931"/>
<rect x="-0.0689655" y="0.0689655" width="7.86207" height="3.86207" transform="matrix(-1 0 0 1 465.738 421.5)" fill="white" stroke="white" stroke-width="0.137931"/>
<rect x="-0.0689655" y="0.0689655" width="0.362069" height="24.3621" transform="matrix(-1 0 0 1 463.112 402)" fill="white" stroke="white" stroke-width="0.137931"/>
<line y1="-0.15" x2="23.0956" y2="-0.15" transform="matrix(-0.286851 -0.957975 -0.957975 0.286851 469.625 424.5)" stroke="white" stroke-width="0.3"/>
<line y1="-0.15" x2="23.9808" y2="-0.15" transform="matrix(0.385725 -0.922614 -0.922614 -0.385725 453.75 424.5)" stroke="white" stroke-width="0.3"/>
</svg>
