<svg width="50" height="87" viewBox="0 0 50 87" fill="none" xmlns="http://www.w3.org/2000/svg">
<rect x="22.083" y="55.9783" width="5.25792" height="31.0217" fill="#6D5249"/>
<path d="M1.63664 57.0299C-2.56969 66.757 15.9486 66.4363 24.624 66.4363C35.2879 66.4363 44.7522 63.0132 44.2264 58.8068C43.7006 54.6004 36.0766 57.2871 44.2264 45.1996C52.3761 33.1121 49.4843 30.7458 41.0716 24.6937C38.2557 22.6679 54.2164 8.33147 36.3395 7.27961C30.774 6.95214 33.7105 -1.13304 24.624 0.449466C12.3522 2.58673 17.7884 8.39416 9.11302 9.44574C0.437631 10.4973 2.27755 19.6987 6.484 23.3792C10.6904 27.0598 -4.93564 35.2095 1.63664 39.9417C8.20892 44.6738 5.84298 47.3027 1.63664 57.0299Z" fill="url(#paint0_linear_60_217)"/>
<defs>
<linearGradient id="paint0_linear_60_217" x1="43.9629" y1="48.0914" x2="1.63668" y2="15.2295" gradientUnits="userSpaceOnUse">
<stop stop-color="#577A34"/>
<stop offset="1" stop-color="#82A75D"/>
</linearGradient>
</defs>
</svg>
